<svg width="401" height="353" viewBox="0 0 401 353" fill="none" xmlns="http://www.w3.org/2000/svg">
<path d="M27.7593 199.853V43.6561H41.467" stroke="#263238" stroke-linecap="round" stroke-linejoin="round"/>
<path d="M27.7686 225.388V219.694" stroke="#263238" stroke-linecap="round" stroke-linejoin="round"/>
<path d="M76.7058 43.6561H218.086V245.382H27.7593" stroke="#263238" stroke-linecap="round" stroke-linejoin="round"/>
<path d="M59.3681 43.6561H71.7918" stroke="#263238" stroke-linecap="round" stroke-linejoin="round"/>
<path d="M210.928 50.5864H34.918V238.461H210.928V50.5864Z" stroke="#263238" stroke-linecap="round" stroke-linejoin="round"/>
<path d="M202.744 63.766V136.837H43.1019V130.175" stroke="#263238" stroke-linecap="round" stroke-linejoin="round"/>
<path d="M43.1019 114.542V57.8389H202.744" stroke="#263238" stroke-linecap="round" stroke-linejoin="round"/>
<path d="M43.1111 125.045V118.562" stroke="#263238" stroke-linecap="round" stroke-linejoin="round"/>
<path d="M175.79 144.519H210.928" stroke="#263238" stroke-linecap="round" stroke-linejoin="round"/>
<path d="M163.293 144.519H168.262" stroke="#263238" stroke-linecap="round" stroke-linejoin="round"/>
<path d="M34.918 144.519H157.353" stroke="#263238" stroke-linecap="round" stroke-linejoin="round"/>
<path d="M114.078 136.837V133.327H128.793V135.324H122.927V136.837" stroke="#263238" stroke-linecap="round" stroke-linejoin="round"/>
<path d="M35.2228 207.49C35.2228 207.49 37.6614 209.281 39.3795 220.115C39.3795 220.115 42.3353 202.807 45.9192 202.539C49.5031 202.27 48.7457 213.802 48.7457 213.802C48.7457 213.802 49.3369 208.117 52.1449 208.377C54.9529 208.636 52.1449 220.115 52.1449 220.115C52.1449 220.115 55.5164 211.161 58.7031 211.322C61.8898 211.484 56.5878 227.537 56.5878 227.537C56.5878 227.537 64.7718 221.789 68.0878 224.601C71.4039 227.412 66.2404 234.503 66.2404 234.503C66.2404 234.503 77.9806 232.032 79.8002 238.703" stroke="#263238" stroke-linecap="round" stroke-linejoin="round"/>
<path d="M79.8279 232.238C79.8279 232.238 84.9452 228.988 88.9633 230.501C88.9633 230.501 86.4046 226.723 88.9633 224.413C91.5219 222.103 94.8102 230.501 94.8102 230.501C94.8102 230.501 95.1797 216.435 100.297 217.142C105.414 217.85 100.297 230.501 100.297 230.501C100.297 230.501 109.432 222.658 111.621 225.389C113.811 228.119 110.162 232.238 110.162 232.238C110.162 232.238 115.639 230.537 119.658 234.503C119.658 234.503 125.782 228.442 132.589 227.573C132.589 227.573 128.063 214.841 130.262 212.271C132.46 209.702 136.432 223.383 136.432 223.383C136.432 223.383 138.178 214.483 143.895 213.802C143.895 213.802 139.129 211.287 140.542 207.49C141.955 203.694 148.532 208.386 148.532 208.386C148.532 208.386 145.826 201.697 150.102 199.862C154.379 198.026 156.162 205.458 156.162 205.458C156.162 205.458 157.353 197.668 162.378 198.098C167.403 198.527 165.777 207.499 165.777 207.499C165.777 207.499 170.516 200.336 173.056 201.097C178.127 202.548 176.585 213.811 176.585 213.811C176.585 213.811 183.669 209.039 185.489 211.233C187.457 213.606 178.1 219.703 178.1 219.703C178.1 219.703 185.129 220.455 189.498 224.422" stroke="#263238" stroke-linecap="round" stroke-linejoin="round"/>
<path d="M210.928 210.06C210.928 210.06 210.124 202.897 202.744 202.539C195.363 202.181 204.776 218.208 204.776 218.208C204.776 218.208 198.689 213.328 196.509 214.832C194.329 216.336 202.744 224.601 202.744 224.601C202.744 224.601 198.707 221.019 194.43 222.103C190.154 223.186 196.86 234.727 196.86 234.727C190.538 233.49 183.975 234.233 178.118 236.849" stroke="#263238" stroke-linecap="round" stroke-linejoin="round"/>
<path d="M284.343 306.133V216.883H388.018" stroke="#263238" stroke-linecap="round" stroke-linejoin="round"/>
<path d="M384.249 226.114H292.683V309.249" stroke="#263238" stroke-linecap="round" stroke-linejoin="round"/>
<path d="M311.01 271.455V234.503H317.004V242.123H325.003V238.703H332.153V242.848H341.805V234.503H351.68V240.108H357V236.849H366.533V258.615" stroke="#263238" stroke-linecap="round" stroke-linejoin="round"/>
<path d="M357 240.108V271.455" stroke="#263238" stroke-linecap="round" stroke-linejoin="round"/>
<path d="M352.446 244.8V250.396" stroke="#263238" stroke-linecap="round" stroke-linejoin="round"/>
<path d="M352.446 254.407V277.391" stroke="#263238" stroke-linecap="round" stroke-linejoin="round"/>
<path d="M341.805 242.857V263.504" stroke="#263238" stroke-linecap="round" stroke-linejoin="round"/>
<path d="M342.175 270.309V276.738" stroke="#263238" stroke-linecap="round" stroke-linejoin="round"/>
<path d="M332.153 242.857V254.407" stroke="#263238" stroke-linecap="round" stroke-linejoin="round"/>
<path d="M332.153 261.508V285.844" stroke="#263238" stroke-linecap="round" stroke-linejoin="round"/>
<path d="M325.004 242.123V270.81" stroke="#263238" stroke-linecap="round" stroke-linejoin="round"/>
<path d="M317.004 242.123V252.975" stroke="#263238" stroke-linecap="round" stroke-linejoin="round"/>
<path d="M317.004 258.615V284.411" stroke="#263238" stroke-linecap="round" stroke-linejoin="round"/>
<path d="M311.01 276.738V288.386" stroke="#263238" stroke-linecap="round" stroke-linejoin="round"/>
<path d="M298.641 288.386H371.41" stroke="#263238" stroke-linecap="round" stroke-linejoin="round"/>
<path d="M357 288.386V280.928" stroke="#263238" stroke-linecap="round" stroke-linejoin="round"/>
<path d="M342.175 282.898V288.037" stroke="#263238" stroke-linecap="round" stroke-linejoin="round"/>
<path d="M367.346 246.421H374.403" stroke="#263238" stroke-linecap="round" stroke-linejoin="round"/>
<path d="M298.918 294.887H366.533" stroke="#263238" stroke-linecap="round" stroke-linejoin="round"/>
<path d="M313.43 313.842V305.157H325.955V310.753H336.032V321.667H341.805V305.488H354.599V309.248H362.459" stroke="#263238" stroke-linecap="round" stroke-linejoin="round"/>
<path d="M354.599 309.249V318.56" stroke="#263238" stroke-linecap="round" stroke-linejoin="round"/>
<path d="M342.175 325.607V331.874" stroke="#263238" stroke-linecap="round" stroke-linejoin="round"/>
<path d="M336.032 321.667V329.922" stroke="#263238" stroke-linecap="round" stroke-linejoin="round"/>
<path d="M325.955 310.753V315.489" stroke="#263238" stroke-linecap="round" stroke-linejoin="round"/>
<path d="M384.563 26.3755H163.21V174.621H384.563V26.3755Z" fill="#00796B" fill-opacity="0.5" stroke="#263238" stroke-linecap="round" stroke-linejoin="round"/>
<path d="M384.563 26.3755H163.21V41.0327H384.563V26.3755Z" fill="#263238"/>
<path d="M252.882 128.017L247.69 121.016C247.689 119.553 247.612 118.092 247.46 116.637C247.266 115.984 244.116 111.176 244.042 110.039C244.03 109.496 243.959 108.955 243.829 108.427C243.829 108.427 242.213 108.821 242.231 109.779C242.25 110.737 242.425 113.969 242.425 113.969C242.425 113.969 238.213 111.588 237.742 110.961C237.271 110.334 232.135 106.681 231.655 106.135C231.175 105.589 229.217 105.553 228.986 106.135L229.263 106.806L227.646 107.549L228.727 110.656C228.418 111.356 228.231 112.1 228.173 112.859C228.348 113.244 228.921 115.545 228.921 115.545C228.921 115.545 228.57 115.894 228.616 117.112C228.662 118.33 235.562 124.552 236.929 125.224C238.562 125.889 240.234 126.46 241.936 126.934L246.268 132.369L252.882 128.017Z" fill="white" stroke="#263238" stroke-linecap="round" stroke-linejoin="round"/>
<path d="M242.416 113.969C241.61 115.748 241.403 117.728 241.825 119.628" stroke="#263238" stroke-linecap="round" stroke-linejoin="round"/>
<path d="M229.254 106.806C230.648 107.326 232.394 109.851 233.198 110.63C233.925 111.265 234.703 111.843 235.525 112.358" stroke="#263238" stroke-linecap="round" stroke-linejoin="round"/>
<path d="M228.718 110.63C229.863 110.397 230.639 110.827 230.611 111.91C230.584 112.993 233.059 114.641 233.059 114.641" stroke="#263238" stroke-linecap="round" stroke-linejoin="round"/>
<path d="M228.912 115.518C228.912 115.518 229.715 114.13 230.353 114.766C230.99 115.402 231.193 117.031 232.366 117.372" stroke="#263238" stroke-linecap="round" stroke-linejoin="round"/>
<path d="M320.385 120.407C320.385 120.407 302.161 121.499 298.143 123.093C294.845 124.409 271.651 139.21 271.651 139.21C271.651 139.21 258.008 129.235 254.045 125.779C253.281 125.421 252.46 125.191 251.616 125.099L249.538 123.818L244.43 130.793L245.862 132.718C245.862 132.718 246.092 135.825 246.73 136.604C255.209 146.928 271.448 161.379 273.886 162.802C276.325 164.226 297.958 151.816 297.958 151.816L301.976 174.648H366.496C366.496 174.648 366.33 134.58 363.614 131.509C360.898 128.438 329.77 116.396 329.77 116.396L320.385 120.407Z" fill="#757575" stroke="#263238" stroke-linecap="round" stroke-linejoin="round"/>
<path d="M342.175 105.911C342.175 105.911 336.393 109.672 339.459 121.687C339.459 121.687 330.749 127.722 322.131 121.634C322.131 121.634 324.117 112.053 322.131 110.128" fill="white"/>
<path d="M342.175 105.911C342.175 105.911 336.393 109.672 339.459 121.687C339.459 121.687 330.749 127.722 322.131 121.634C322.131 121.634 324.117 112.053 322.131 110.128" stroke="#263238" stroke-linecap="round" stroke-linejoin="round"/>
<path d="M362.459 133.372C362.459 133.372 354.599 142.137 353.684 157.144" stroke="#263238" stroke-linecap="round" stroke-linejoin="round"/>
<path d="M327.867 81.8345C327.867 81.8345 322.713 81.0824 320.912 87.2067C319.863 90.9575 320.287 94.9521 322.103 98.4167L331.58 89.7944L327.867 81.8345Z" fill="#263238"/>
<path d="M340.411 109.564C347.052 101.882 351.744 89.0781 341.769 83.9656C322.519 74.0987 316.155 93.3758 319.388 111.283C320.385 116.808 328.126 114.345 333.788 112.349" fill="white"/>
<path d="M340.411 109.564C347.052 101.882 351.744 89.0781 341.769 83.9656C322.519 74.0987 316.155 93.3758 319.388 111.283C320.385 116.808 328.126 114.345 333.788 112.349" stroke="#263238" stroke-linecap="round" stroke-linejoin="round"/>
<path d="M326.962 92.8655C326.962 92.8655 330.139 93.6981 330.943 95.3455" stroke="#263238" stroke-linecap="round" stroke-linejoin="round"/>
<path d="M322.362 92.0506C321.987 91.8719 321.571 91.7895 321.153 91.8115C320.736 91.8334 320.332 91.9589 319.979 92.1759" stroke="#263238" stroke-linecap="round" stroke-linejoin="round"/>
<path d="M326.906 97.1095C326.851 97.6557 327.1 98.1303 327.461 98.1661C327.821 98.2019 328.163 97.781 328.218 97.2706C328.273 96.7602 328.024 96.2409 327.664 96.2051C327.304 96.1692 326.962 96.5543 326.906 97.1095Z" fill="#263238"/>
<path d="M320.016 95.4531C319.969 96.0082 320.219 96.4827 320.579 96.5185C320.939 96.5543 321.281 96.1335 321.336 95.6232C321.392 95.1129 321.142 94.6026 320.773 94.5668C320.404 94.531 320.071 94.907 320.016 95.4531Z" fill="#263238"/>
<path d="M337.446 100.7C337.446 100.7 334.462 104.89 332.458 106.233C331.163 107.037 329.602 107.338 328.089 107.075C328.089 107.075 325.53 104.013 321.798 103.968C320.832 103.372 319.734 103.007 318.593 102.902L318.806 98.2286C318.806 98.2286 315.97 108.248 316.238 111.838C316.506 115.429 325.613 117.918 330.167 116.915C334.721 115.912 337.039 109.045 338.425 102.589C338.526 102.052 337.446 100.7 337.446 100.7Z" fill="#263238"/>
<path d="M319.147 106.278C319.147 106.278 322.75 107.952 325.955 107.558" stroke="white" stroke-linecap="round" stroke-linejoin="round"/>
<path d="M340.429 87.932C341.612 87.0366 338.582 83.1866 336.882 83.2672C335.183 83.3477 326.842 83.6522 326.842 83.6522C326.842 83.6522 325.087 74.7522 339.127 79.5604C341.427 80.3483 342.166 82.4345 344.226 83.4999C346.285 84.5654 349.075 90.1704 348.281 94.9516C347.486 99.7329 344.854 108.122 340.078 110.638C340.078 110.638 338.434 110.477 339.432 109.376C344.133 104.246 339.21 94.5935 338.425 102.571L336.771 101.613C336.758 100.737 336.851 99.8627 337.048 99.0076C337.399 96.814 334.896 92.3282 340.429 87.932Z" fill="#263238"/>
<path d="M339.709 100.118C339.709 100.118 342.729 96.6438 344.558 97.8257C346.387 99.0076 345.158 103.198 344.179 104.245C343.2 105.293 342.406 105.526 341.048 107.2C339.69 108.875 337.981 108.31 338.277 106.967" fill="white"/>
<path d="M339.709 100.118C339.709 100.118 342.729 96.6438 344.558 97.8257C346.387 99.0076 345.158 103.198 344.179 104.245C343.2 105.293 342.406 105.526 341.048 107.2C339.69 108.875 337.981 108.31 338.277 106.967" stroke="#263238" stroke-linecap="round" stroke-linejoin="round"/>
<path d="M330.472 97.5572C330.573 99.5001 329.354 101.139 327.701 101.219C326.047 101.3 324.699 99.7956 324.597 97.8526C324.495 95.9097 325.715 94.2712 327.368 94.1906C329.022 94.11 330.352 95.6142 330.472 97.5572Z" stroke="#263238" stroke-width="0.5" stroke-miterlimit="10"/>
<path d="M321.955 95.7933C322.066 97.7362 320.838 99.3747 319.23 99.4643C317.623 99.5538 316.228 98.0317 316.118 96.0888C316.007 94.1459 317.245 92.5074 318.889 92.4268C320.533 92.3462 321.854 93.8504 321.955 95.7933Z" stroke="#263238" stroke-width="0.5" stroke-miterlimit="10"/>
<path d="M322.833 94.1281C322.833 95.0234 318.048 100.315 317.993 101.479C317.937 102.643 322.445 102.714 322.445 102.714" fill="white"/>
<path d="M322.833 94.1281C322.833 95.0234 318.048 100.315 317.993 101.479C317.937 102.643 322.445 102.714 322.445 102.714" stroke="#263238" stroke-linecap="round" stroke-linejoin="round"/>
<path d="M321.955 95.7934C321.955 95.7934 323.387 95.4442 324.588 97.3154" stroke="#263238" stroke-width="0.5" stroke-miterlimit="10"/>
<path d="M330.49 98.2377L332.042 98.4615L340.752 99.0524" stroke="#263238" stroke-width="0.5" stroke-miterlimit="10"/>
<path d="M357 138.144L355.264 136.058C355.264 136.058 340.632 137.679 334.167 146.131C334.167 146.131 322.159 140.633 311.351 143.31L311.037 147.062L334.675 160.77L343.912 157.045L357 138.144Z" fill="white" stroke="#263238" stroke-linecap="round" stroke-linejoin="round"/>
<path d="M359.374 136.882L356.88 152.998C356.88 152.998 343.117 158.854 340.254 163.564L339.57 163.653L336.337 164.092L334.591 163.59C330.32 162.385 325.968 161.464 321.567 160.833C320.04 160.604 318.49 160.547 316.949 160.663L307.638 146.596C307.638 146.596 322.039 144.662 331.996 147.966L336.762 147.644L336.938 147.501C338.369 146.364 348.401 138.637 359.374 136.882Z" fill="#00796B" fill-opacity="0.5"/>
<path opacity="0.3" d="M339.385 159.893L336.938 147.492C338.36 146.364 348.391 138.637 359.365 136.882L356.871 152.998C356.871 152.998 343.108 158.854 340.244 163.564L339.561 163.653L339.385 159.893Z" fill="black" fill-opacity="0.7"/>
<path opacity="0.3" d="M334.647 160.77L334.582 163.581C330.311 162.376 325.959 161.455 321.558 160.824C321.753 157.98 322.901 155.275 324.827 153.121C326.752 150.967 329.35 149.481 332.227 148.889L334.647 160.77Z" fill="black" fill-opacity="0.7"/>
<path d="M359.374 136.882L356.88 152.998C356.88 152.998 343.117 158.854 340.254 163.564L339.57 163.653L336.337 164.092L334.591 163.59C330.32 162.385 325.968 161.464 321.567 160.833C320.04 160.604 318.49 160.547 316.949 160.663L307.638 146.596C307.638 146.596 322.039 144.662 331.996 147.966L336.762 147.644L336.938 147.501C338.369 146.364 348.401 138.637 359.374 136.882Z" stroke="#263238" stroke-linecap="round" stroke-linejoin="round"/>
<path d="M339.33 167.494C334.398 167.19 325.013 159.866 325.013 159.866C324.448 158.499 323.656 157.232 322.667 156.114C321.327 154.816 323.11 153.733 323.11 153.733C323.11 153.733 321.549 152.757 320.662 152.219C319.775 151.682 321.327 150.267 321.327 150.267C321.327 150.267 328.024 151.163 328.717 150.921C329.41 150.679 335.839 154.708 336.836 154.816C338.191 154.84 339.527 154.502 340.697 153.84C341.362 153.303 343.422 149.945 344.761 149.292C346.101 148.638 348.456 148.647 347.329 150.053C346.202 151.458 346.406 154.592 345.851 155.031C345.297 155.47 344.383 160.179 344.383 161.8L351.68 168.264L347.523 173.753L339.33 167.494Z" fill="white" stroke="#263238" stroke-linecap="round" stroke-linejoin="round"/>
<path d="M323.082 153.733C324.394 153.875 325.673 154.222 326.869 154.762" stroke="#263238" stroke-linecap="round" stroke-linejoin="round"/>
<path d="M328.052 156.293C328.052 156.293 327.636 157.932 327.525 158.182C327.414 158.433 328.902 160.036 328.689 160.77C328.477 161.504 330.195 163.456 330.195 163.456" stroke="#263238" stroke-linecap="round" stroke-linejoin="round"/>
<path d="M326.371 158.182C325.087 157.584 323.852 156.893 322.676 156.114" stroke="#263238" stroke-linecap="round" stroke-linejoin="round"/>
<path d="M322.796 117.407L325.992 123.648L339.127 116.593L342.018 122.842L328.615 131.089L326.038 124.633L320.828 129.495L319.064 121.634L322.796 117.407Z" fill="#757575" stroke="#263238" stroke-linecap="round" stroke-linejoin="round"/>
<path d="M363.651 131.483C366.838 134.786 378.171 159.015 379.261 174.621H344.734V173.224L340.965 171.085C340.965 171.085 343.302 163.116 349.962 164.36L351.901 167.046L356.197 170.18C356.197 170.18 363.734 170.368 365.923 172.472" fill="#757575"/>
<path d="M363.651 131.483C366.838 134.786 378.171 159.015 379.261 174.621H344.734V173.224L340.965 171.085C340.965 171.085 343.302 163.116 349.962 164.36L351.901 167.046L356.197 170.18C356.197 170.18 363.734 170.368 365.923 172.472" stroke="#263238" stroke-linecap="round" stroke-linejoin="round"/>
<path d="M356.197 170.216C356.197 170.216 360.381 164.37 366.533 166.841" stroke="#263238" stroke-linecap="round" stroke-linejoin="round"/>
<path d="M354.599 160.77C355.942 163.187 357.138 165.677 358.183 168.228" stroke="#263238" stroke-linecap="round" stroke-linejoin="round"/>
<path d="M297.958 151.789C297.958 151.789 295.399 137.338 296.11 132.342Z" fill="#757575"/>
<path d="M297.958 151.789C297.958 151.789 295.399 137.338 296.11 132.342" stroke="#263238" stroke-linecap="round" stroke-linejoin="round"/>
<path d="M292.841 137.974C292.841 137.974 294.263 145.074 297.459 148.88Z" fill="#757575"/>
<path d="M292.841 137.974C292.841 137.974 294.263 145.074 297.459 148.88" stroke="#263238" stroke-linecap="round" stroke-linejoin="round"/>
<path d="M271.651 139.219C271.651 139.219 275.669 142.442 273.111 150.482Z" fill="#757575"/>
<path d="M271.651 139.219C271.651 139.219 275.669 142.442 273.111 150.482" stroke="#263238" stroke-linecap="round" stroke-linejoin="round"/>
<path d="M325.382 129.746C325.382 129.912 325.331 130.075 325.235 130.214C325.139 130.353 325.003 130.461 324.844 130.524C324.685 130.587 324.51 130.604 324.341 130.57C324.173 130.537 324.018 130.456 323.897 130.337C323.776 130.219 323.694 130.068 323.661 129.904C323.629 129.74 323.647 129.571 323.715 129.417C323.782 129.264 323.894 129.133 324.038 129.041C324.182 128.95 324.351 128.902 324.523 128.904C324.637 128.904 324.749 128.926 324.854 128.968C324.959 129.011 325.054 129.073 325.134 129.151C325.214 129.229 325.277 129.322 325.32 129.424C325.362 129.526 325.383 129.635 325.382 129.746Z" fill="#263238"/>
<path d="M323.11 142.066C323.59 142.066 323.978 141.689 323.978 141.224C323.978 140.759 323.59 140.382 323.11 140.382C322.63 140.382 322.242 140.759 322.242 141.224C322.242 141.689 322.63 142.066 323.11 142.066Z" fill="#263238"/>
<path d="M321.798 167.915C322.278 167.915 322.667 167.538 322.667 167.073C322.667 166.609 322.278 166.232 321.798 166.232C321.319 166.232 320.93 166.609 320.93 167.073C320.93 167.538 321.319 167.915 321.798 167.915Z" fill="#263238"/>
<path d="M209.413 91.1195H220.294L225.744 81.9778L220.294 72.8451H209.413L203.972 81.9778L209.413 91.1195Z" stroke="#263238" stroke-linecap="round" stroke-linejoin="round"/>
<path d="M207.833 111.158L202.393 102.025H191.511" stroke="#263238" stroke-linecap="round" stroke-linejoin="round"/>
<path d="M192.971 81.9779H203.852L209.293 72.8452L203.852 63.7035H192.971L187.53 72.8452L192.971 81.9779Z" stroke="#263238" stroke-linecap="round" stroke-linejoin="round"/>
<path d="M209.413 72.8451H220.294L225.744 63.7033L220.294 54.5706H209.413L203.972 63.7033L209.413 72.8451Z" stroke="#263238" stroke-linecap="round" stroke-linejoin="round"/>
<path d="M207.833 72.8452C207.831 72.5628 207.916 72.2864 208.077 72.0509C208.238 71.8154 208.467 71.6315 208.736 71.5227C209.004 71.4138 209.3 71.3849 209.586 71.4395C209.872 71.4942 210.134 71.6299 210.34 71.8296C210.546 72.0292 210.686 72.2837 210.743 72.5607C210.799 72.8377 210.769 73.1247 210.657 73.3852C210.545 73.6457 210.355 73.8679 210.112 74.0237C209.869 74.1794 209.584 74.2616 209.293 74.2599C208.906 74.2599 208.534 74.1108 208.261 73.8455C207.987 73.5802 207.833 73.2204 207.833 72.8452V72.8452Z" fill="#263238"/>
<path d="M186.57 55.0811C187.376 55.0811 188.029 54.4477 188.029 53.6663C188.029 52.885 187.376 52.2516 186.57 52.2516C185.764 52.2516 185.11 52.885 185.11 53.6663C185.11 54.4477 185.764 55.0811 186.57 55.0811Z" fill="#263238"/>
<path d="M206.374 111.158C206.374 110.878 206.459 110.604 206.62 110.372C206.78 110.139 207.008 109.958 207.275 109.851C207.541 109.744 207.835 109.716 208.118 109.77C208.401 109.825 208.661 109.96 208.865 110.157C209.069 110.355 209.208 110.607 209.265 110.882C209.321 111.156 209.292 111.441 209.182 111.699C209.071 111.958 208.884 112.179 208.644 112.334C208.404 112.49 208.122 112.573 207.833 112.573C207.446 112.573 207.075 112.424 206.801 112.158C206.527 111.893 206.374 111.533 206.374 111.158Z" fill="#263238"/>
<path d="M191.512 103.44C192.318 103.44 192.971 102.806 192.971 102.025C192.971 101.244 192.318 100.61 191.512 100.61C190.705 100.61 190.052 101.244 190.052 102.025C190.052 102.806 190.705 103.44 191.512 103.44Z" fill="#263238"/>
<path d="M236.255 63.9451C236.255 63.6632 236.342 63.3876 236.503 63.1533C236.665 62.919 236.895 62.7366 237.164 62.6291C237.433 62.5216 237.729 62.494 238.014 62.5496C238.299 62.6053 238.561 62.7417 238.766 62.9417C238.971 63.1417 239.11 63.3962 239.165 63.6729C239.221 63.9496 239.191 64.2361 239.078 64.4961C238.965 64.756 238.776 64.9777 238.533 65.1331C238.29 65.2884 238.005 65.3704 237.715 65.3686C237.522 65.3686 237.332 65.3317 237.154 65.2601C236.976 65.1884 236.815 65.0835 236.679 64.9511C236.544 64.8188 236.436 64.6618 236.364 64.4892C236.291 64.3165 236.254 64.1316 236.255 63.9451V63.9451Z" fill="#263238"/>
<path d="M202.282 103.44C203.088 103.44 203.741 102.806 203.741 102.025C203.741 101.244 203.088 100.61 202.282 100.61C201.476 100.61 200.822 101.244 200.822 102.025C200.822 102.806 201.476 103.44 202.282 103.44Z" fill="#263238"/>
<path d="M224.247 63.945C224.247 63.6634 224.333 63.3882 224.495 63.1541C224.656 62.92 224.885 62.7375 225.154 62.6297C225.422 62.522 225.717 62.4938 226.002 62.5487C226.287 62.6036 226.549 62.7392 226.754 62.9383C226.96 63.1374 227.1 63.3911 227.156 63.6673C227.213 63.9434 227.184 64.2297 227.073 64.4898C226.962 64.7499 226.773 64.9723 226.532 65.1287C226.29 65.2852 226.006 65.3687 225.716 65.3687C225.326 65.3687 224.953 65.2187 224.677 64.9517C224.402 64.6847 224.247 64.3226 224.247 63.945V63.945Z" fill="#263238"/>
<path d="M207.833 91.1195C207.831 90.8371 207.916 90.5607 208.077 90.3252C208.238 90.0897 208.467 89.9058 208.736 89.797C209.004 89.6881 209.3 89.6592 209.586 89.7138C209.872 89.7685 210.134 89.9042 210.34 90.1039C210.546 90.3035 210.686 90.558 210.743 90.835C210.799 91.112 210.769 91.399 210.657 91.6595C210.545 91.92 210.355 92.1422 210.112 92.298C209.869 92.4537 209.584 92.5359 209.293 92.5342C208.906 92.5318 208.536 92.382 208.263 92.1172C207.99 91.8524 207.836 91.4939 207.833 91.1195Z" fill="#263238"/>
<path d="M225.744 63.9452H237.724" stroke="#263238" stroke-linecap="round" stroke-linejoin="round"/>
<path d="M209.293 91.1195L202.282 102.025" stroke="#263238" stroke-linecap="round" stroke-linejoin="round"/>
<path d="M192.971 63.7035L186.57 53.6663" stroke="#263238" stroke-linecap="round" stroke-linejoin="round"/>
<path d="M180.427 135.27C181.408 134.414 182.509 133.696 183.697 133.139C183.745 133.426 183.905 133.685 184.144 133.862C184.383 134.038 184.682 134.119 184.981 134.088C185.637 133.99 186.376 133.363 186.828 133.819C187.013 133.999 187.05 134.285 187.244 134.455C187.835 134.983 188.842 133.846 189.507 134.276C189.683 134.392 189.775 134.589 189.96 134.706C190.106 134.767 190.263 134.798 190.422 134.798C190.58 134.798 190.738 134.767 190.883 134.706C192.533 134.341 194.227 134.2 195.918 134.285L203.667 134.339L203.076 134.043" stroke="#263238" stroke-linecap="round" stroke-linejoin="round"/>
<path d="M180.012 141.538C180.076 141.243 180.245 140.98 180.488 140.794C180.732 140.608 181.035 140.51 181.345 140.517C181.656 140.525 181.953 140.637 182.187 140.835C182.421 141.033 182.576 141.303 182.626 141.6C182.818 141.514 182.989 141.389 183.129 141.235C183.269 141.081 183.374 140.9 183.438 140.705C183.937 141.788 185.48 141.878 186.708 141.797L192.186 141.421C193.83 141.305 195.751 141.018 196.49 139.63C197.302 141.067 197.626 142.715 197.414 144.34C197.922 143.17 198.583 142.069 199.381 141.063C199.548 141.636 199.714 142.209 199.871 142.782C203.686 140.195 208.905 141.887 213.523 141.323" stroke="#263238" stroke-linecap="round" stroke-linejoin="round"/>
<path d="M180.501 149.838C180.484 149.673 180.53 149.508 180.63 149.374C180.731 149.24 180.879 149.147 181.046 149.112C181.098 149.275 181.183 149.425 181.297 149.554C181.411 149.683 181.551 149.789 181.709 149.863C181.866 149.938 182.038 149.98 182.213 149.988C182.388 149.996 182.563 149.969 182.727 149.909C183.386 149.641 183.951 149.193 184.353 148.62C184.491 148.728 184.651 148.807 184.822 148.85C184.994 148.894 185.173 148.902 185.348 148.873C185.523 148.844 185.689 148.779 185.836 148.683C185.983 148.587 186.107 148.462 186.2 148.315C186.612 148.962 186.953 149.65 187.216 150.366C187.715 149.13 189.405 148.933 190.782 148.942H201.866" stroke="#263238" stroke-linecap="round" stroke-linejoin="round"/>
<path d="M266.183 52.3859C263.537 52.3237 260.942 53.1002 258.793 54.5975C256.133 56.245 253.602 59.0206 254.267 62.0112C254.932 65.0017 258.572 66.5865 261.777 67.1864C264.533 67.7067 267.338 67.9468 270.145 67.9027C271.227 67.9185 272.306 67.8072 273.36 67.5714C274.425 67.2789 275.459 66.886 276.445 66.3985L283.594 63.1393C284.573 62.6916 285.673 62.1186 285.941 61.0979C286.273 59.8354 285.155 58.6625 284.093 57.9014C280.081 55.1194 275.131 53.9105 270.238 54.5169" stroke="#263238" stroke-linecap="round" stroke-linejoin="round"/>
<path d="M257.694 59.0833C258.115 58.6257 258.658 58.2908 259.264 58.1163C259.144 58.4588 259.144 58.8303 259.264 59.1728C259.431 59.4952 259.939 59.6563 260.188 59.3877C260.437 59.1191 260.493 58.6894 260.77 58.8237L261.103 59.5399C261.555 59.3877 261.906 59.0296 262.35 58.8416C262.855 58.6774 263.392 58.6284 263.92 58.6983C267.886 58.8956 271.861 58.7789 275.808 58.3491" stroke="#263238" stroke-linecap="round" stroke-linejoin="round"/>
<path d="M264.16 62.9332C264.218 62.7503 264.319 62.583 264.455 62.4446C264.591 62.3063 264.759 62.2008 264.945 62.1365C264.733 62.3603 264.991 62.7452 265.305 62.7989C265.624 62.8045 265.94 62.7402 266.229 62.611C266.579 62.5233 266.939 62.4752 267.3 62.4677L274.034 62.0201" stroke="#263238" stroke-linecap="round" stroke-linejoin="round"/>
<path d="M267.033 72.0303C265.085 78.7604 261.045 84.7456 255.464 89.172C249.883 93.5983 243.031 96.251 235.839 96.7692" stroke="#263238" stroke-linecap="round" stroke-linejoin="round"/>
<path d="M235.95 94.8264C234.644 95.6087 233.48 96.5949 232.505 97.7451C233.081 97.6281 233.68 97.6682 234.235 97.861C234.789 98.0538 235.277 98.3918 235.645 98.8374" stroke="#263238" stroke-linecap="round" stroke-linejoin="round"/>
<path d="M264.816 96.9573L265.656 98.7482L266.857 97.3692C267.082 97.5316 267.239 97.7667 267.3 98.0318C267.393 98.2825 267.531 98.5601 267.79 98.6318C268.049 98.7034 268.372 98.3631 268.178 98.1751C268.348 98.2866 268.541 98.3612 268.743 98.3936C268.946 98.4261 269.153 98.4157 269.351 98.3631C269.527 98.3631 269.684 98.2378 269.859 98.193C270.068 98.1485 270.283 98.1305 270.496 98.1393H282.975" stroke="#263238" stroke-linecap="round" stroke-linejoin="round"/>
<path d="M265.398 106.806C265.456 106.663 265.553 106.537 265.676 106.44C265.8 106.343 265.948 106.279 266.105 106.254C266.262 106.228 266.423 106.243 266.573 106.296C266.722 106.349 266.855 106.438 266.959 106.556C267 106.67 267.063 106.776 267.143 106.869C267.255 106.945 267.391 106.978 267.526 106.962C267.661 106.945 267.785 106.88 267.873 106.779C268.076 106.6 268.206 106.359 268.418 106.197C269 105.759 269.831 106.099 270.543 106.287C271.453 106.472 272.388 106.52 273.314 106.43L280.398 106.072" stroke="#263238" stroke-linecap="round" stroke-linejoin="round"/>
<path d="M265.619 114.417C265.855 114.423 266.086 114.352 266.275 114.216C266.465 114.079 266.601 113.885 266.663 113.665C266.78 113.684 266.889 113.737 266.975 113.817C267.06 113.897 267.119 114 267.143 114.112C267.483 113.909 267.772 113.637 267.993 113.316C272.556 113.369 277.125 113.369 281.701 113.316" stroke="#263238" stroke-linecap="round" stroke-linejoin="round"/>
<path d="M265.61 120.102C265.893 120.216 266.209 120.223 266.497 120.124C266.785 120.025 267.025 119.826 267.171 119.565C267.461 119.793 267.662 120.108 267.744 120.461C267.926 120.341 268.131 120.259 268.348 120.221C268.564 120.182 268.786 120.188 269 120.237C269.176 120.237 269.351 120.353 269.527 120.398C269.97 120.508 270.428 120.547 270.884 120.514L286.809 120.29" stroke="#263238" stroke-linecap="round" stroke-linejoin="round"/>
<path d="M222.852 156.302L230.085 155.622C230.155 155.631 230.227 155.622 230.293 155.597C230.36 155.573 230.418 155.532 230.464 155.48C230.51 155.427 230.542 155.364 230.556 155.297C230.571 155.229 230.567 155.159 230.547 155.093V150.616C230.564 150.468 230.525 150.318 230.436 150.196C230.376 150.143 230.306 150.103 230.23 150.076C230.154 150.05 230.073 150.039 229.993 150.043C228.422 149.909 224.885 149.148 223.527 150.178C222.169 151.207 222.862 154.771 222.852 156.302Z" stroke="#263238" stroke-linecap="round" stroke-linejoin="round"/>
<path d="M224.922 152.309C225.014 152.73 225.097 153.15 225.189 153.58C226.285 153.358 227.41 153.301 228.524 153.41" stroke="#263238" stroke-linecap="round" stroke-linejoin="round"/>
<path d="M228.607 158.236C228.539 158.337 228.502 158.454 228.5 158.574C228.497 158.695 228.53 158.813 228.593 158.917C228.656 159.02 228.749 159.104 228.859 159.16C228.969 159.215 229.093 159.239 229.217 159.23C229.706 159.14 230.094 158.505 230.547 158.702" stroke="#263238" stroke-linecap="round" stroke-linejoin="round"/>
<path d="M223.628 147.913C223.72 147.779 223.849 147.675 224.001 147.611C224.152 147.548 224.32 147.529 224.483 147.557C224.645 147.584 224.796 147.657 224.917 147.766C225.037 147.876 225.122 148.017 225.162 148.172L226.898 147.975" stroke="#263238" stroke-linecap="round" stroke-linejoin="round"/>
<path d="M238.038 162.758C240.501 162.758 242.964 162.758 245.427 162.758C247.342 162.782 249.256 162.671 251.154 162.426C251.367 162.415 251.57 162.333 251.727 162.193C251.858 162.011 251.914 161.787 251.884 161.567V150.679C251.884 150.554 240.569 150.205 239.248 151.091C236.588 152.9 238.038 159.973 238.038 162.758Z" stroke="#263238" stroke-linecap="round" stroke-linejoin="round"/>
<path d="M242.047 153.902L243.811 153.947C243.493 155.111 242.992 156.219 242.324 157.233C242.084 157.547 241.797 157.941 241.973 158.29C242.896 158.433 243.977 158.514 244.559 157.824C245.317 156.929 244.652 155.523 245.224 154.52L245.446 156.642L246.213 157.35C246.412 157.566 246.662 157.732 246.942 157.833C247.083 157.881 247.235 157.88 247.375 157.831C247.514 157.782 247.632 157.688 247.709 157.565" stroke="#263238" stroke-linecap="round" stroke-linejoin="round"/>
<path d="M247.182 164.584C247.764 164.378 248.005 165.435 248.605 165.587C249.205 165.739 249.529 164.969 250.037 164.629C250.278 164.474 250.568 164.409 250.855 164.445C251.142 164.481 251.406 164.617 251.598 164.826" stroke="#263238" stroke-linecap="round" stroke-linejoin="round"/>
<path d="M242.416 147.357C242.97 147.492 242.749 148.387 243.164 148.772C243.58 149.157 244.273 148.772 244.744 148.405C245.215 148.038 246.074 147.877 246.25 148.405" stroke="#263238" stroke-linecap="round" stroke-linejoin="round"/>
<path d="M384.563 174.415H163.21V189.565H384.563V174.415Z" fill="#BFBFBF" stroke="#263238" stroke-linecap="round" stroke-linejoin="round"/>
<path d="M343.607 180.379H198.975V183.602H343.607V180.379Z" fill="#263238"/>
<path d="M280.999 182.017C280.999 182.483 280.856 182.938 280.589 183.325C280.322 183.713 279.943 184.014 279.499 184.193C279.055 184.371 278.567 184.417 278.096 184.327C277.624 184.236 277.192 184.011 276.852 183.682C276.512 183.353 276.281 182.933 276.187 182.476C276.093 182.02 276.141 181.546 276.325 181.116C276.509 180.686 276.82 180.318 277.22 180.059C277.619 179.8 278.089 179.662 278.57 179.662C279.214 179.662 279.832 179.91 280.287 180.352C280.743 180.794 280.999 181.392 280.999 182.017V182.017Z" fill="#00796B" fill-opacity="0.5" stroke="#263238" stroke-linecap="round" stroke-linejoin="round"/>
<path d="M377.395 179.089H371.41V184.891H377.395V179.089Z" stroke="#263238" stroke-linecap="round" stroke-linejoin="round"/>
<path d="M367.355 179.089H361.369V184.891H367.355V179.089Z" stroke="#263238" stroke-linecap="round" stroke-linejoin="round"/>
<path d="M180.492 179.026H170.063V184.954H180.492V179.026Z" stroke="#263238" stroke-linecap="round" stroke-linejoin="round"/>
<path d="M169.943 33.6997H209.293" stroke="white" stroke-linecap="round" stroke-linejoin="round"/>
<path d="M378.956 33.5655C378.958 34.0107 378.824 34.4465 378.57 34.8174C378.315 35.1883 377.953 35.4778 377.529 35.649C377.105 35.8202 376.638 35.8655 376.188 35.779C375.737 35.6926 375.323 35.4784 374.999 35.1635C374.674 34.8487 374.453 34.4474 374.364 34.0107C374.274 33.5739 374.321 33.1213 374.498 32.7102C374.674 32.2992 374.973 31.9483 375.356 31.7021C375.738 31.4558 376.188 31.3253 376.647 31.327C377.26 31.327 377.847 31.5629 378.28 31.9827C378.713 32.4025 378.956 32.9718 378.956 33.5655V33.5655Z" stroke="white" stroke-linecap="round" stroke-linejoin="round"/>
<path d="M369.821 33.6998C369.821 34.1425 369.686 34.5753 369.432 34.9434C369.178 35.3115 368.817 35.5984 368.396 35.7678C367.974 35.9373 367.509 35.9816 367.061 35.8952C366.613 35.8088 366.202 35.5957 365.879 35.2826C365.556 34.9695 365.336 34.5707 365.247 34.1365C365.158 33.7022 365.204 33.2522 365.378 32.8431C365.553 32.4341 365.849 32.0845 366.229 31.8386C366.609 31.5926 367.055 31.4613 367.512 31.4613C368.124 31.4613 368.712 31.6971 369.145 32.1169C369.578 32.5367 369.821 33.1061 369.821 33.6998V33.6998Z" stroke="white" stroke-linecap="round" stroke-linejoin="round"/>
<path d="M360.686 33.8429C360.684 34.2853 360.547 34.7172 360.292 35.0841C360.037 35.451 359.676 35.7365 359.254 35.9046C358.832 36.0726 358.368 36.1157 357.92 36.0283C357.473 35.9409 357.063 35.727 356.74 35.4136C356.418 35.1002 356.199 34.7014 356.111 34.2674C356.023 33.8334 356.069 33.3838 356.244 32.9753C356.419 32.5668 356.715 32.2178 357.095 31.9722C357.474 31.7266 357.92 31.5956 358.377 31.5956C358.681 31.5956 358.982 31.6538 359.262 31.7668C359.543 31.8799 359.798 32.0456 360.013 32.2544C360.227 32.4632 360.397 32.711 360.513 32.9836C360.628 33.2562 360.687 33.5482 360.686 33.8429V33.8429Z" stroke="white" stroke-linecap="round" stroke-linejoin="round"/>
<path d="M185.24 329.931H163.367L151.525 326.296L147.83 325.159L146.749 335.966L17.2293 336.199C17.2293 336.199 19.206 331.364 22.4297 324.273C29.3851 308.971 42.1321 283.131 53.281 272.574C62.3332 264.006 84.9452 263.764 84.9452 263.764C87.2536 262.28 89.9621 261.489 92.7319 261.49C96.8885 261.687 128.313 264.991 130.262 265.967C131.618 266.729 132.783 267.775 133.67 269.029C133.67 269.029 144.68 264.31 155.497 268.563C166.313 272.816 185.24 329.931 185.24 329.931Z" fill="#BFBFBF"/>
<path opacity="0.2" d="M151.525 326.296L147.83 325.159L146.749 335.966L17.2293 336.199C17.2293 336.199 19.206 331.364 22.4297 324.273C27.4269 324.156 33.0614 323.906 33.0614 323.906L35.9618 314.71C35.9618 314.71 40.5156 310.045 46.2055 312.794C46.0157 312.098 46.0553 311.363 46.3187 310.69C46.5821 310.017 47.0561 309.441 47.6742 309.043C49.8726 307.628 58.8878 312.167 58.8878 312.167C58.8878 312.167 63.2292 304.109 64.7071 298.835C66.185 293.562 67.1641 306.294 67.1641 306.294C67.1641 306.294 70.8589 300.438 70.8589 298.835C70.8589 297.233 77.6757 314.71 77.6757 314.71C77.6757 314.71 86.691 315.758 89.1295 316.653C91.568 317.549 115.843 318.444 123.657 316.653C131.472 314.862 118.115 325.607 118.115 325.607C118.115 325.607 131.841 330.084 139.6 327.147C147.359 324.21 150.832 321.067 150.832 321.067C150.832 321.067 151.118 323.243 151.525 326.296Z" fill="black" fill-opacity="0.7"/>
<path d="M185.24 329.931H163.367L151.525 326.296L147.83 325.159L146.749 335.966L17.2293 336.199C17.2293 336.199 19.206 331.364 22.4297 324.273C29.3851 308.971 42.1321 283.131 53.281 272.574C62.3332 264.006 84.9452 263.764 84.9452 263.764C87.2536 262.28 89.9621 261.489 92.7319 261.49C96.8885 261.687 128.313 264.991 130.262 265.967C131.618 266.729 132.783 267.775 133.67 269.029C133.67 269.029 144.68 264.31 155.497 268.563C166.313 272.816 185.24 329.931 185.24 329.931Z" stroke="#263238" stroke-linecap="round" stroke-linejoin="round"/>
<path d="M144.394 302.318C142.47 304.948 140.276 307.381 137.845 309.58" stroke="#263238" stroke-linecap="round" stroke-linejoin="round"/>
<path d="M131.444 314.8C122.033 321.538 110.973 325.781 99.3547 327.111" stroke="#263238" stroke-linecap="round" stroke-linejoin="round"/>
<path d="M171.892 311.747C171.892 311.747 175.255 309.723 178.201 310.386C181.148 311.048 183.586 313.869 183.586 313.869C183.586 313.869 208.046 311.908 213.597 312.078C219.148 312.248 231.572 315.776 231.572 315.776C231.572 315.776 237.595 314.594 238.241 314.836C238.888 315.077 236.939 334.946 236.939 334.946H157.501C153.603 334.946 150.712 329.475 147.784 325.177C152.828 308.075 155.408 290.379 155.451 272.592" fill="#BFBFBF"/>
<path opacity="0.2" d="M193.691 334.928H157.52C153.622 334.928 150.731 329.457 147.802 325.159C150.699 315.511 152.759 305.646 153.963 295.666C153.963 295.666 157.806 301.19 155.469 307.592L157.806 301.19C157.806 301.19 160.051 308.049 157.806 313.86C155.561 319.671 153.963 321.336 153.963 321.336C153.963 321.336 156.735 324.846 159.672 323.906C162.609 322.966 165.805 328.66 165.805 328.66C165.805 328.66 172.862 328.92 174.331 328.66C175.005 328.544 184.14 331.597 193.691 334.928Z" fill="black" fill-opacity="0.7"/>
<path d="M171.892 311.747C171.892 311.747 175.255 309.723 178.201 310.386C181.148 311.048 183.586 313.869 183.586 313.869C183.586 313.869 208.046 311.908 213.597 312.078C219.148 312.248 231.572 315.776 231.572 315.776C231.572 315.776 237.595 314.594 238.241 314.836C238.888 315.077 236.939 334.946 236.939 334.946H157.501C153.603 334.946 150.712 329.475 147.784 325.177C152.828 308.075 155.408 290.379 155.451 272.592" stroke="#263238" stroke-linecap="round" stroke-linejoin="round"/>
<path d="M126.484 249.877V269.002C123.982 270.653 121.392 272.174 118.725 273.559C113.339 276.326 106.43 279.066 102.32 277.508C94.8656 274.669 90.0347 263.764 90.0347 263.764C98.0801 257.819 99.05 249.877 100.269 246.098L126.484 249.877Z" fill="white" stroke="#263238" stroke-linecap="round" stroke-linejoin="round"/>
<path d="M86.1367 265.223C86.1367 265.223 92.9628 279.63 101.248 282.235C109.534 284.841 123.565 274.669 123.565 274.669" stroke="#263238" stroke-linecap="round" stroke-linejoin="round"/>
<path d="M48.8657 282.656C48.8657 282.656 61.7974 292.416 63.9681 295.702C66.1388 298.988 63.9681 329.931 63.9681 329.931" stroke="#263238" stroke-linecap="round" stroke-linejoin="round"/>
<path d="M31.2602 314.146C38.8806 309.383 44.2381 314.594 48.8658 315.534C53.4935 316.474 63.728 311.406 71.4039 315.534C79.0797 319.661 79.0797 318.22 79.0797 318.22C79.0797 318.22 87.1159 324.165 82.9685 336.065L17.2016 336.181C17.2016 336.181 12.814 327.093 27.2329 314.128" fill="#BFBFBF"/>
<path d="M31.2602 314.146C38.8806 309.383 44.2381 314.594 48.8658 315.534C53.4935 316.474 63.728 311.406 71.4039 315.534C79.0797 319.661 79.0797 318.22 79.0797 318.22C79.0797 318.22 87.1159 324.165 82.9685 336.065L17.2016 336.181C17.2016 336.181 12.814 327.093 27.2329 314.128" stroke="#263238" stroke-linecap="round" stroke-linejoin="round"/>
<path d="M95.7061 295.728L113.062 326.502L113.607 329.958L110.836 327.568L92.9351 297.018C93.1983 296.548 93.6079 296.17 94.1054 295.939C94.6029 295.707 95.163 295.634 95.7061 295.728V295.728Z" fill="#00796B" fill-opacity="0.5" stroke="#263238" stroke-linecap="round" stroke-linejoin="round"/>
<path d="M79.2275 319.832C80.5382 319.463 81.8847 319.226 83.2455 319.124C84.7142 319.124 93.7479 312.651 96.8146 312.167C99.8812 311.684 105.396 316.116 108.204 316.823C111.012 317.531 110.836 321.076 112.48 322.491C114.125 323.906 111.751 325.499 109.709 323.906C109.855 324.459 109.864 325.037 109.736 325.594C109.607 326.151 109.345 326.671 108.97 327.111C108.97 327.111 109.525 329.045 108.97 329.931H76.4564C76.4564 329.931 75.9668 323.906 79.2275 319.832Z" fill="white" stroke="#263238" stroke-linecap="round" stroke-linejoin="round"/>
<path d="M109.774 323.906L106.846 321.103L99.3547 318.775" stroke="#263238" stroke-linecap="round" stroke-linejoin="round"/>
<path d="M109.044 327.111L104.564 325.159L98.4403 324.04" stroke="#263238" stroke-linecap="round" stroke-linejoin="round"/>
<path d="M98.4403 328.66L104.564 328.929L109.044 329.931" stroke="#263238" stroke-linecap="round" stroke-linejoin="round"/>
<path d="M96.8423 312.167C94.0712 314.522 96.8423 317.002 95.5214 318.775C94.2005 320.548 92.7503 321.076 93.8772 323.906" stroke="#263238" stroke-linecap="round" stroke-linejoin="round"/>
<path d="M136.386 331.427H284.343C284.343 332.692 283.824 333.906 282.901 334.801C281.977 335.696 280.725 336.199 279.419 336.199H148.255C147.741 336.198 147.23 336.12 146.74 335.966L136.201 332.671C136.05 332.627 135.921 332.533 135.837 332.404C135.752 332.276 135.718 332.122 135.74 331.972C135.763 331.821 135.84 331.683 135.959 331.583C136.077 331.483 136.229 331.427 136.386 331.427V331.427Z" fill="#00796B" fill-opacity="0.5"/>
<path opacity="0.2" d="M284.343 331.427C284.341 332.692 283.823 333.906 282.902 334.802L282.754 334.928C281.848 335.745 280.657 336.199 279.419 336.199H148.255C147.741 336.198 147.23 336.12 146.74 335.966L136.201 332.671C136.049 332.627 135.918 332.531 135.834 332.401C135.749 332.27 135.716 332.115 135.741 331.963C135.766 331.811 135.847 331.673 135.969 331.574C136.091 331.475 136.245 331.423 136.404 331.427H284.343Z" fill="black" fill-opacity="0.7"/>
<path opacity="0.2" d="M284.343 331.427C284.341 332.692 283.823 333.906 282.902 334.802L282.754 334.928H198.097C197.139 334.928 196.219 334.559 195.54 333.903C194.862 333.247 194.479 332.356 194.477 331.427H284.343Z" fill="black" fill-opacity="0.7"/>
<path d="M136.386 331.427H284.343C284.343 332.692 283.824 333.906 282.901 334.801C281.977 335.696 280.725 336.199 279.419 336.199H148.255C147.741 336.198 147.23 336.12 146.74 335.966L136.201 332.671C136.05 332.627 135.921 332.533 135.837 332.404C135.752 332.276 135.718 332.122 135.74 331.972C135.763 331.821 135.84 331.683 135.959 331.583C136.077 331.483 136.229 331.427 136.386 331.427V331.427Z" stroke="#263238" stroke-linecap="round" stroke-linejoin="round"/>
<path d="M194.477 331.427C194.479 332.356 194.862 333.246 195.54 333.903C196.219 334.559 197.139 334.928 198.097 334.928H212.147" stroke="#263238" stroke-linecap="round" stroke-linejoin="round"/>
<path d="M310.825 272.556V272.673L293.607 330.737C293.351 331.483 292.866 332.135 292.217 332.607C291.569 333.079 290.787 333.348 289.977 333.378H200.287C199.947 333.405 199.606 333.348 199.295 333.213C198.984 333.078 198.713 332.869 198.507 332.606C198.301 332.343 198.167 332.034 198.116 331.707C198.065 331.381 198.1 331.047 198.218 330.737L215.417 272.673C215.672 271.926 216.157 271.274 216.805 270.802C217.454 270.329 218.236 270.061 219.047 270.031H308.737C309.066 270.003 309.398 270.054 309.701 270.18C310.005 270.305 310.273 270.502 310.479 270.752C310.686 271.002 310.825 271.297 310.886 271.612C310.946 271.927 310.925 272.251 310.825 272.556Z" fill="#00796B" fill-opacity="0.5"/>
<path opacity="0.4" d="M310.825 272.556V272.673L293.607 330.737C293.351 331.483 292.866 332.135 292.217 332.607C291.569 333.079 290.787 333.348 289.977 333.379H200.878V333.262L218.068 275.198C218.324 274.452 218.809 273.8 219.458 273.328C220.106 272.856 220.888 272.587 221.698 272.556H310.825Z" fill="white"/>
<path d="M310.825 272.556V272.673L293.607 330.737C293.351 331.483 292.866 332.135 292.217 332.607C291.569 333.079 290.787 333.348 289.977 333.378H200.287C199.947 333.405 199.606 333.348 199.295 333.213C198.984 333.078 198.713 332.869 198.507 332.606C198.301 332.343 198.167 332.034 198.116 331.707C198.065 331.381 198.1 331.047 198.218 330.737L215.417 272.673C215.672 271.926 216.157 271.274 216.805 270.802C217.454 270.329 218.236 270.061 219.047 270.031H308.737C309.066 270.003 309.398 270.054 309.701 270.18C310.005 270.305 310.273 270.502 310.479 270.752C310.686 271.002 310.825 271.297 310.886 271.612C310.946 271.927 310.925 272.251 310.825 272.556Z" stroke="#263238" stroke-linecap="round" stroke-linejoin="round"/>
<path d="M260.973 302.775C260.209 304.299 259.032 305.593 257.568 306.519C256.103 307.445 254.407 307.967 252.66 308.031C248.891 308.031 246.665 305.201 247.7 301.709C248.318 299.923 249.483 298.36 251.038 297.23C252.594 296.099 254.467 295.454 256.41 295.379H256.576C256.402 295.724 256.26 296.084 256.152 296.453C255.089 299.919 257.26 302.721 260.973 302.775Z" fill="white" stroke="#263238" stroke-linecap="round" stroke-linejoin="round"/>
<path d="M201.34 330.531L218.123 273.855C218.273 273.42 218.555 273.04 218.933 272.765C219.311 272.49 219.766 272.333 220.238 272.315H307.176" stroke="#263238" stroke-linecap="round" stroke-linejoin="round"/>
<path d="M159.672 336.199H35.8971L37.3935 333.173C37.3935 333.173 49.0874 334.229 58.3521 331.427C62.444 330.191 68.7436 329.636 75.0617 329.708C79.0428 329.761 88.7323 329.797 94.7455 329.77C96.8885 329.77 98.5696 329.77 99.364 329.716C99.6688 329.716 99.9736 329.716 100.288 329.716C102.003 329.696 103.715 329.852 105.396 330.182C107.018 330.004 108.65 329.926 110.282 329.949C113.136 329.949 125.412 329.905 128.756 329.949C133.162 330.003 138.251 330.845 143.082 331.489L143.212 331.445V331.507C149.049 332.295 154.518 332.832 157.991 331.445L159.672 336.199Z" fill="white"/>
<path opacity="0.4" d="M159.672 336.199H63.728L65.677 332.949C65.677 332.949 70.9143 335.912 76.0315 333.844C81.1488 331.776 86.303 330.648 94.7456 329.752C96.5866 329.562 98.442 329.538 100.288 329.681C103.963 329.954 107.576 330.75 111.012 332.044C111.012 332.044 116.046 329.913 128.756 329.913C133.162 329.967 138.251 330.809 143.082 331.454L143.212 331.409V331.471C149.049 332.259 154.518 332.797 157.991 331.409L159.672 336.199Z" fill="#00796B" fill-opacity="0.5"/>
<path d="M65.6769 332.949L37.4305 333.173L35.9341 336.199H63.728L65.6769 332.949Z" fill="#00796B" fill-opacity="0.5"/>
<path d="M64.5223 334.865L65.677 332.949C68.1743 334.003 70.8693 334.546 73.593 334.543C77.7311 334.427 84.2709 329.457 96.8423 329.699" stroke="#263238" stroke-linecap="round" stroke-linejoin="round"/>
<path d="M105.368 330.164C107.687 330.988 110.984 332.063 110.984 332.063C110.984 332.063 115.252 329.681 124.627 329.932" stroke="#263238" stroke-linecap="round" stroke-linejoin="round"/>
<path d="M65.6769 332.949C65.6769 332.949 51.0641 333.2 45.2172 333.325" stroke="#263238" stroke-linecap="round" stroke-linejoin="round"/>
<path d="M109.035 336.199C109.115 335.616 109.381 335.071 109.797 334.642C110.213 334.213 110.758 333.921 111.354 333.808C113.423 333.477 114.762 335.957 114.762 335.957" stroke="#263238" stroke-linecap="round" stroke-linejoin="round"/>
<path d="M110.984 332.062L111.354 333.808" stroke="#263238" stroke-linecap="round" stroke-linejoin="round"/>
<path d="M113.062 333.808C113.062 333.808 119.639 330.898 125.994 331.427" stroke="#263238" stroke-linecap="round" stroke-linejoin="round"/>
<path d="M110.356 334.158C109.774 333.719 99.8998 330.764 89.7946 332.949" stroke="#263238" stroke-linecap="round" stroke-linejoin="round"/>
<path d="M109.035 335.366C109.035 335.366 100.722 333.835 93.4893 334.901" stroke="#263238" stroke-linecap="round" stroke-linejoin="round"/>
<path d="M113.986 334.919C119.504 333.427 125.279 333.049 130.954 333.808C136.543 334.614 142.19 334.979 147.839 334.901" stroke="#263238" stroke-linecap="round" stroke-linejoin="round"/>
<path d="M159.672 336.199H35.8971L37.3935 333.173C37.3935 333.173 49.0874 334.229 58.3521 331.427C62.444 330.191 68.7436 329.636 75.0617 329.708C79.0428 329.761 88.7323 329.797 94.7455 329.77C96.8885 329.77 98.5696 329.77 99.364 329.716C99.6688 329.716 99.9736 329.716 100.288 329.716C102.003 329.696 103.715 329.852 105.396 330.182C107.018 330.004 108.65 329.926 110.282 329.949C113.136 329.949 125.412 329.905 128.756 329.949C133.162 330.003 138.251 330.845 143.082 331.489L143.212 331.445V331.507C149.049 332.295 154.518 332.832 157.991 331.445L159.672 336.199Z" stroke="#263238" stroke-linecap="round" stroke-linejoin="round"/>
<path d="M126.484 265.823V269.002C123.982 270.653 121.392 272.174 118.725 273.559C112.804 268.285 111.963 258.266 111.963 258.266L126.484 265.823Z" fill="#263238"/>
<path d="M101.248 247.513C94.2837 237.53 95.7062 218.861 104.657 208.672C117.81 193.791 152.135 204.661 152.107 225.684C152.08 228.606 151.82 231.522 151.331 234.405C150.878 237.181 148.394 239.983 147.636 242.75C146.879 245.516 147.184 249.913 146.879 252.599C146.195 258.714 137.466 270.846 135.102 272.162C131.795 273.953 113.921 269.091 110.023 257.98" fill="white"/>
<path d="M101.248 247.513C94.2837 237.53 95.7062 218.861 104.657 208.672C117.81 193.791 152.135 204.661 152.107 225.684C152.08 228.606 151.82 231.522 151.331 234.405C150.878 237.181 148.394 239.983 147.636 242.75C146.879 245.516 147.184 249.913 146.879 252.599C146.195 258.714 137.466 270.846 135.102 272.162C131.795 273.953 113.921 269.091 110.023 257.98" stroke="#263238" stroke-linecap="round" stroke-linejoin="round"/>
<path d="M125.606 235.175C125.606 235.175 130.474 233.456 134.843 235.175" stroke="#263238" stroke-linecap="round" stroke-linejoin="round"/>
<path d="M144.81 235.175C144.81 235.175 148.357 233.456 150.731 235.175" stroke="#263238" stroke-linecap="round" stroke-linejoin="round"/>
<path d="M130.16 243.197C129.901 244.406 129.051 245.266 128.313 245.113C127.574 244.961 127.084 243.842 127.343 242.624C127.601 241.407 128.451 240.556 129.236 240.717C130.021 240.878 130.419 242.007 130.16 243.197Z" fill="#263238"/>
<path d="M145.826 243.197C145.567 244.406 144.717 245.266 143.978 245.113C143.239 244.961 142.75 243.842 143.008 242.624C143.267 241.407 144.108 240.556 144.902 240.717C145.696 240.878 146.084 242.007 145.826 243.197Z" fill="#263238"/>
<path d="M143.267 237.01C143.267 237.01 140.949 240.905 140.708 244.173C140.468 247.441 144.403 254.21 143.267 256.332C142.131 258.454 137.3 258.347 135.711 257.049" fill="white"/>
<path d="M143.267 237.01C143.267 237.01 140.949 240.905 140.708 244.173C140.468 247.441 144.403 254.21 143.267 256.332C142.131 258.454 137.3 258.347 135.711 257.049" stroke="#263238" stroke-linecap="round" stroke-linejoin="round"/>
<path d="M136.57 261.328C133.378 261.766 130.124 261.316 127.186 260.03" stroke="#263238" stroke-linecap="round" stroke-linejoin="round"/>
<path d="M108.231 238.309C108.231 238.309 110.504 236.178 113.182 237.01C115.861 237.843 116.351 244.917 116.351 244.917L118.3 242.902C118.3 242.902 117.57 238.9 120.489 233.286C123.408 227.672 121.948 221.064 121.948 221.064C121.948 221.064 126.982 222.711 128.728 226.49C128.728 226.49 130.631 222.479 128.728 219.408C128.728 219.408 136.57 221.297 138.519 226.964C138.519 226.964 140.062 222.711 139.535 220.589C139.535 220.589 144.847 222.237 146.796 227.197C146.796 227.197 148.569 223.419 147.802 220.348C147.802 220.348 149.945 222.138 150.767 227.439C152.368 224.207 152.838 220.558 152.107 217.044C152.107 217.044 154.878 220.115 155.321 222.711C155.321 222.711 157.575 215.155 144.394 205.001C131.213 194.848 108.647 197.149 105.137 205.001C105.137 205.001 106.301 199.217 108.647 197.149C108.647 197.149 102.181 199.942 102.32 205.708C102.32 205.708 96.6114 205.001 93.6926 208.547C95.4815 208.416 97.2803 208.494 99.05 208.78C99.05 208.78 91.254 213.256 91.7436 223.893C92.2331 234.53 99.05 249.859 99.05 249.859L104.389 248.346C104.389 248.346 105.239 241.111 108.231 238.309Z" fill="#263238"/>
<path d="M114.152 240.905C114.152 240.905 110.014 233.823 107.825 233.348C105.636 232.874 101.488 235.712 102.458 239.49C103.428 243.269 104.167 249.644 105.386 250.351C106.606 251.059 108.555 255.312 110.504 254.13C110.76 254.002 110.982 253.817 111.152 253.591C111.321 253.365 111.434 253.104 111.481 252.828C111.527 252.552 111.507 252.269 111.42 252.002C111.334 251.736 111.185 251.492 110.984 251.291" fill="white"/>
<path d="M114.152 240.905C114.152 240.905 110.014 233.823 107.825 233.348C105.636 232.874 101.488 235.712 102.458 239.49C103.428 243.269 104.167 249.644 105.386 250.351C106.606 251.059 108.555 255.312 110.504 254.13C110.76 254.002 110.982 253.817 111.152 253.591C111.321 253.365 111.434 253.104 111.481 252.828C111.527 252.552 111.507 252.269 111.42 252.002C111.334 251.736 111.185 251.492 110.984 251.291" stroke="#263238" stroke-linecap="round" stroke-linejoin="round"/>
<path d="M160.439 295.666C160.02 297.411 159.483 299.128 158.831 300.805" stroke="#263238" stroke-linecap="round" stroke-linejoin="round"/>
<path d="M157.344 304.225C155.872 307.479 153.714 310.398 151.008 312.794" stroke="#263238" stroke-linecap="round" stroke-linejoin="round"/>
<path d="M183.605 313.868C182.339 313.707 179.762 315.256 177.398 317.253" stroke="#263238" stroke-linecap="round" stroke-linejoin="round"/>
<path d="M175.661 318.838C173.814 320.691 172.382 322.652 172.382 323.906" stroke="#263238" stroke-linecap="round" stroke-linejoin="round"/>
<path d="M41.3561 309.042C41.3561 309.042 46.6119 310.457 46.6581 314.827" stroke="#263238" stroke-linecap="round" stroke-linejoin="round"/>
<path d="M61.0493 285.19C61.9217 286.136 62.7155 287.148 63.4232 288.216" stroke="#263238" stroke-linecap="round" stroke-linejoin="round"/>
<path d="M65.5014 291.905C66.5352 294.081 67.092 296.44 67.1364 298.835C67.1364 306.204 64.9472 310.475 64.9472 310.475" stroke="#263238" stroke-linecap="round" stroke-linejoin="round"/>
<path d="M92.9628 277.964C94.3564 279.22 95.848 280.37 97.4243 281.403" stroke="#263238" stroke-linecap="round" stroke-linejoin="round"/>
<path d="M102.061 284.089C106.781 286.399 112.887 288.136 119.223 286.605" stroke="#263238" stroke-linecap="round" stroke-linejoin="round"/>
<g opacity="0.2">
<path opacity="0.2" d="M111.963 205.377C113.613 205.133 115.282 205.028 116.951 205.064" stroke="white" stroke-linecap="round" stroke-linejoin="round"/>
<path opacity="0.2" d="M119.38 205.189C123.897 205.601 129.458 207.132 132.912 211.752" stroke="white" stroke-linecap="round" stroke-linejoin="round"/>
<path opacity="0.2" d="M122.927 201.787C122.927 201.787 131.398 201.876 137.466 205.986" stroke="white" stroke-linecap="round" stroke-linejoin="round"/>
<path opacity="0.2" d="M139.849 207.983C140.936 209.083 141.806 210.367 142.417 211.77" stroke="white" stroke-linecap="round" stroke-linejoin="round"/>
<path opacity="0.2" d="M109.774 208.878C109.774 208.878 118.087 211.716 120.978 216.793" stroke="white" stroke-linecap="round" stroke-linejoin="round"/>
<path opacity="0.2" d="M105.747 211.752C107.548 214.172 108.844 216.909 109.562 219.81" stroke="white" stroke-linecap="round" stroke-linejoin="round"/>
<path opacity="0.2" d="M110.079 223.795C110.09 224.864 109.988 225.933 109.774 226.982" stroke="white" stroke-linecap="round" stroke-linejoin="round"/>
<path opacity="0.2" d="M100.149 215.056C99.7212 216.109 99.3663 217.189 99.0869 218.288" stroke="white" stroke-linecap="round" stroke-linejoin="round"/>
<path opacity="0.2" d="M98.431 221.413C97.946 224.205 97.9086 227.053 98.3202 229.856" stroke="white" stroke-linecap="round" stroke-linejoin="round"/>
</g>
<path d="M209.163 352.118H325.733V336.199H1V352.118H66.6561" fill="white"/>
<path d="M209.163 352.118H325.733V336.199H1V352.118H66.6561" stroke="#263238" stroke-linecap="round" stroke-linejoin="round"/>
<path d="M200.795 352.119H184.242" stroke="#263238" stroke-linecap="round" stroke-linejoin="round"/>
</svg>
