<svg width="400" height="289" viewBox="0 0 400 289" fill="none" xmlns="http://www.w3.org/2000/svg">
<path d="M400 253.888H0V254.082H400V253.888Z" fill="#E0E0E0"/>
<path d="M339.288 264.768H330.8V264.962H339.288V264.768Z" fill="#E0E0E0"/>
<path d="M324.928 264.86H290.408V265.055H324.928V264.86Z" fill="#E0E0E0"/>
<path d="M247.736 263.015H189.48V263.21H247.736V263.015Z" fill="#E0E0E0"/>
<path d="M155.968 266.38H137.48V266.575H155.968V266.38Z" fill="#E0E0E0"/>
<path d="M94.3601 263.108H68.9041V263.303H94.3601V263.108Z" fill="#E0E0E0"/>
<path d="M122.592 263.108H98.8V263.303H122.592V263.108Z" fill="#E0E0E0"/>
<path d="M76.528 259.719H52.2319V259.914H76.528V259.719Z" fill="#E0E0E0"/>
<path d="M189.6 219.302H35.128C33.9179 219.3 32.758 218.832 31.9031 218.002C31.0482 217.172 30.568 216.047 30.568 214.874V4.38914C30.5785 3.22286 31.0633 2.1077 31.9171 1.28589C32.7709 0.464084 33.9248 0.0019979 35.128 0H189.6C190.811 0 191.973 0.466511 192.83 1.29691C193.687 2.1273 194.168 3.25356 194.168 4.42791V214.874C194.168 216.048 193.687 217.175 192.83 218.005C191.973 218.835 190.811 219.302 189.6 219.302V219.302ZM35.128 0.155094C33.9709 0.157148 32.862 0.604139 32.0445 1.39795C31.2271 2.19177 30.768 3.26754 30.768 4.38914V214.874C30.768 215.996 31.2271 217.071 32.0445 217.865C32.862 218.659 33.9709 219.106 35.128 219.108H189.6C190.758 219.106 191.868 218.659 192.686 217.866C193.505 217.072 193.966 215.996 193.968 214.874V4.38914C193.966 3.26683 193.505 2.19107 192.686 1.39748C191.868 0.603887 190.758 0.157144 189.6 0.155094H35.128Z" fill="#E0E0E0"/>
<path d="M362.648 219.302H208.168C206.957 219.3 205.796 218.833 204.94 218.003C204.084 217.173 203.602 216.048 203.6 214.874V4.38914C203.613 3.22215 204.099 2.107 204.954 1.28541C205.809 0.463813 206.964 0.00197611 208.168 0H362.648C363.85 0.00403591 365.002 0.467024 365.854 1.28861C366.706 2.1102 367.189 3.2242 367.2 4.38914V214.874C367.2 216.046 366.721 217.17 365.868 218C365.014 218.829 363.857 219.298 362.648 219.302V219.302ZM208.168 0.155094C207.01 0.157144 205.9 0.603887 205.082 1.39748C204.263 2.19107 203.802 3.26683 203.8 4.38914V214.874C203.802 215.996 204.263 217.072 205.082 217.866C205.9 218.659 207.01 219.106 208.168 219.108H362.648C363.806 219.106 364.916 218.659 365.734 217.866C366.553 217.072 367.014 215.996 367.016 214.874V4.38914C367.014 3.26683 366.553 2.19107 365.734 1.39748C364.916 0.603887 363.806 0.157144 362.648 0.155094H208.168Z" fill="#E0E0E0"/>
<path d="M344.384 15.8739H54.016C50.6935 15.8739 48 18.4848 48 21.7054V233.02C48 236.241 50.6935 238.851 54.016 238.851H344.384C347.707 238.851 350.4 236.241 350.4 233.02V21.7054C350.4 18.4848 347.707 15.8739 344.384 15.8739Z" fill="#E0E0E0"/>
<path d="M345.984 15.8739H55.616C52.2934 15.8739 49.6 18.4848 49.6 21.7054V233.02C49.6 236.241 52.2934 238.851 55.616 238.851H345.984C349.307 238.851 352 236.241 352 233.02V21.7054C352 18.4848 349.307 15.8739 345.984 15.8739Z" fill="#EBEBEB"/>
<path d="M49.6 30.9489V233.02C49.6063 234.564 50.2424 236.043 51.3695 237.134C52.4966 238.225 54.0231 238.84 55.616 238.844H346.016C347.61 238.84 349.138 238.224 350.265 237.131C351.393 236.039 352.028 234.558 352.032 233.012V30.9489H49.6Z" fill="#E0E0E0"/>
<path d="M350.888 38.7036H50.712V231.097H350.888V38.7036Z" fill="#FAFAFA"/>
<path d="M340.272 213.494H61.3279C61.3018 213.492 61.2773 213.48 61.2595 213.462C61.2417 213.443 61.2319 213.418 61.2319 213.393V51.1809C61.2319 51.1687 61.2344 51.1566 61.2392 51.1453C61.2441 51.134 61.2511 51.1238 61.2601 51.1151C61.269 51.1065 61.2795 51.0997 61.2912 51.095C61.3028 51.0903 61.3153 51.0879 61.3279 51.0879H340.272C340.297 51.0879 340.322 51.0977 340.34 51.1151C340.358 51.1326 340.368 51.1563 340.368 51.1809V213.393C340.369 213.406 340.367 213.419 340.363 213.431C340.359 213.443 340.352 213.454 340.343 213.464C340.334 213.473 340.323 213.481 340.311 213.486C340.298 213.491 340.285 213.494 340.272 213.494V213.494ZM61.4319 213.3H340.168V51.2818H61.4319V213.3Z" fill="#E0E0E0"/>
<path d="M62.7999 26.9476C62.0879 26.9476 61.3919 26.743 60.7999 26.3595C60.2079 25.9761 59.7465 25.431 59.474 24.7934C59.2015 24.1557 59.1302 23.4541 59.2691 22.7771C59.408 22.1002 59.7509 21.4784 60.2544 20.9904C60.7578 20.5023 61.3993 20.17 62.0976 20.0353C62.7959 19.9007 63.5198 19.9698 64.1776 20.2339C64.8354 20.498 65.3977 20.9453 65.7932 21.5192C66.1888 22.0931 66.3999 22.7678 66.3999 23.4579C66.3978 24.3828 66.0179 25.2693 65.3432 25.9233C64.6685 26.5773 63.7541 26.9456 62.7999 26.9476V26.9476ZM62.7999 20.7437C62.2462 20.7437 61.7048 20.9029 61.2444 21.2012C60.7839 21.4994 60.425 21.9233 60.2131 22.4193C60.0012 22.9152 59.9457 23.461 60.0538 23.9875C60.1618 24.514 60.4285 24.9976 60.82 25.3772C61.2116 25.7568 61.7105 26.0153 62.2537 26.12C62.7968 26.2247 63.3598 26.171 63.8715 25.9655C64.3831 25.7601 64.8204 25.4122 65.128 24.9659C65.4357 24.5195 65.5999 23.9948 65.5999 23.4579C65.5999 22.7381 65.3049 22.0477 64.7798 21.5387C64.2547 21.0297 63.5425 20.7437 62.7999 20.7437Z" fill="#FAFAFA"/>
<path d="M74.136 26.9476C73.424 26.9476 72.728 26.743 72.136 26.3595C71.5439 25.9761 71.0825 25.431 70.81 24.7934C70.5376 24.1557 70.4663 23.4541 70.6052 22.7771C70.7441 22.1002 71.087 21.4784 71.5904 20.9904C72.0939 20.5023 72.7354 20.17 73.4337 20.0353C74.132 19.9007 74.8559 19.9698 75.5137 20.2339C76.1715 20.498 76.7337 20.9453 77.1293 21.5192C77.5249 22.0931 77.736 22.7678 77.736 23.4579C77.7339 24.3828 77.3539 25.2693 76.6793 25.9233C76.0046 26.5773 75.0901 26.9456 74.136 26.9476V26.9476ZM74.136 20.7437C73.5822 20.7437 73.0409 20.9029 72.5804 21.2012C72.12 21.4994 71.7611 21.9233 71.5492 22.4193C71.3372 22.9152 71.2818 23.461 71.3898 23.9875C71.4979 24.514 71.7645 24.9976 72.1561 25.3772C72.5477 25.7568 73.0466 26.0153 73.5898 26.12C74.1329 26.2247 74.6959 26.171 75.2075 25.9655C75.7192 25.7601 76.1565 25.4122 76.4641 24.9659C76.7718 24.5195 76.936 23.9948 76.936 23.4579C76.936 22.7381 76.641 22.0477 76.1159 21.5387C75.5908 21.0297 74.8786 20.7437 74.136 20.7437Z" fill="#FAFAFA"/>
<path d="M85.48 26.9476C84.768 26.9476 84.072 26.743 83.48 26.3595C82.8879 25.9761 82.4265 25.431 82.154 24.7934C81.8816 24.1557 81.8103 23.4541 81.9492 22.7771C82.0881 22.1002 82.431 21.4784 82.9344 20.9904C83.4379 20.5023 84.0794 20.17 84.7777 20.0353C85.476 19.9007 86.1999 19.9698 86.8577 20.2339C87.5155 20.498 88.0777 20.9453 88.4733 21.5192C88.8689 22.0931 89.08 22.7678 89.08 23.4579C89.0779 24.3828 88.6979 25.2693 88.0233 25.9233C87.3486 26.5773 86.4341 26.9456 85.48 26.9476V26.9476ZM85.48 20.7437C84.9262 20.7437 84.3849 20.9029 83.9244 21.2012C83.464 21.4994 83.1051 21.9233 82.8931 22.4193C82.6812 22.9152 82.6258 23.461 82.7338 23.9875C82.8418 24.514 83.1085 24.9976 83.5001 25.3772C83.8917 25.7568 84.3906 26.0153 84.9338 26.12C85.4769 26.2247 86.0399 26.171 86.5515 25.9655C87.0632 25.7601 87.5005 25.4122 87.8081 24.9659C88.1158 24.5195 88.28 23.9948 88.28 23.4579C88.28 22.7381 87.985 22.0477 87.4599 21.5387C86.9348 21.0297 86.2226 20.7437 85.48 20.7437Z" fill="#FAFAFA"/>
<path d="M352 30.561H49.6V31.3365H352V30.561Z" fill="#E0E0E0"/>
<path d="M214.872 57.8187H76.536V194.487H214.872V57.8187Z" fill="#EBEBEB"/>
<path d="M333.424 57.8187H242.088V102.276H333.424V57.8187Z" fill="#EBEBEB"/>
<path d="M259.2 84.526C264.944 84.526 269.6 80.0125 269.6 74.4449C269.6 68.8772 264.944 64.3638 259.2 64.3638C253.456 64.3638 248.8 68.8772 248.8 74.4449C248.8 80.0125 253.456 84.526 259.2 84.526Z" fill="#FAFAFA"/>
<path d="M324.264 64.3638H279.2V68.4971H324.264V64.3638Z" fill="#FAFAFA"/>
<path d="M308.448 71.9479H279.2V76.0811H308.448V71.9479Z" fill="#FAFAFA"/>
<path d="M333.424 118.902H242.088V231.097H333.424V118.902Z" fill="#EBEBEB"/>
<path d="M285.104 127.363H246.144V165.128H285.104V127.363Z" fill="#FAFAFA"/>
<path d="M285.408 169.928H246.448V207.693H285.408V169.928Z" fill="#FAFAFA"/>
<path d="M329.376 127.363H290.416V147.393H329.376V127.363Z" fill="#FAFAFA"/>
<path d="M329.376 152.201H290.416V189.966H329.376V152.201Z" fill="#FAFAFA"/>
<path d="M285.408 212.214H246.448V231.097H285.408V212.214Z" fill="#FAFAFA"/>
<path d="M329.376 194.487H290.416V231.097H329.376V194.487Z" fill="#FAFAFA"/>
<path d="M200 288.908C285.666 288.908 355.112 284.978 355.112 280.13C355.112 275.281 285.666 271.351 200 271.351C114.334 271.351 44.8879 275.281 44.8879 280.13C44.8879 284.978 114.334 288.908 200 288.908Z" fill="#F5F5F5"/>
<path d="M217.016 235.889H71.496C67.5461 235.889 64.344 238.993 64.344 242.822V267.986C64.344 271.814 67.5461 274.918 71.496 274.918H217.016C220.966 274.918 224.168 271.814 224.168 267.986V242.822C224.168 238.993 220.966 235.889 217.016 235.889Z" fill="#00796B" fill-opacity="0.8"/>
<path d="M218.704 237.526H73.184C69.234 237.526 66.032 240.629 66.032 244.458V269.622C66.032 273.451 69.234 276.555 73.184 276.555H218.704C222.654 276.555 225.856 273.451 225.856 269.622V244.458C225.856 240.629 222.654 237.526 218.704 237.526Z" fill="#00796B" fill-opacity="0.8"/>
<path opacity="0.6" d="M218.704 237.526H73.184C69.234 237.526 66.032 240.629 66.032 244.458V269.622C66.032 273.451 69.234 276.555 73.184 276.555H218.704C222.654 276.555 225.856 273.451 225.856 269.622V244.458C225.856 240.629 222.654 237.526 218.704 237.526Z" fill="#FAFAFA"/>
<path d="M220.392 239.162H74.872C70.922 239.162 67.72 242.266 67.72 246.094V271.266C67.72 275.095 70.922 278.199 74.872 278.199H220.392C224.342 278.199 227.544 275.095 227.544 271.266V246.094C227.544 242.266 224.342 239.162 220.392 239.162Z" fill="#00796B" fill-opacity="0.8"/>
<path opacity="0.8" d="M220.392 239.162H74.872C70.922 239.162 67.72 242.266 67.72 246.094V271.266C67.72 275.095 70.922 278.199 74.872 278.199H220.392C224.342 278.199 227.544 275.095 227.544 271.266V246.094C227.544 242.266 224.342 239.162 220.392 239.162Z" fill="#FAFAFA"/>
<path d="M188.472 245.761H110.784C109.94 245.761 109.256 246.424 109.256 247.242V250.189C109.256 251.007 109.94 251.67 110.784 251.67H188.472C189.316 251.67 190 251.007 190 250.189V247.242C190 246.424 189.316 245.761 188.472 245.761Z" fill="#00796B" fill-opacity="0.8"/>
<path d="M145.584 255.726H110.784C109.94 255.726 109.256 256.389 109.256 257.207V260.154C109.256 260.972 109.94 261.635 110.784 261.635H145.584C146.428 261.635 147.112 260.972 147.112 260.154V257.207C147.112 256.389 146.428 255.726 145.584 255.726Z" fill="#00796B" fill-opacity="0.8"/>
<path d="M179.184 255.726H152.472C151.628 255.726 150.944 256.389 150.944 257.207V260.154C150.944 260.972 151.628 261.635 152.472 261.635H179.184C180.028 261.635 180.712 260.972 180.712 260.154V257.207C180.712 256.389 180.028 255.726 179.184 255.726Z" fill="#00796B" fill-opacity="0.8"/>
<path d="M204 265.69H110.088C109.628 265.69 109.256 266.051 109.256 266.497V267.11C109.256 267.555 109.628 267.916 110.088 267.916H204C204.459 267.916 204.832 267.555 204.832 267.11V266.497C204.832 266.051 204.459 265.69 204 265.69Z" fill="#00796B" fill-opacity="0.8"/>
<path opacity="0.5" d="M204 265.69H110.088C109.628 265.69 109.256 266.051 109.256 266.497V267.11C109.256 267.555 109.628 267.916 110.088 267.916H204C204.459 267.916 204.832 267.555 204.832 267.11V266.497C204.832 266.051 204.459 265.69 204 265.69Z" fill="#FAFAFA"/>
<path d="M101.091 261.914C102.925 254.443 98.1648 246.946 90.4582 245.168C82.7516 243.389 75.0169 248.004 73.1824 255.474C71.3478 262.944 76.108 270.442 83.8147 272.22C91.5213 273.998 99.256 269.384 101.091 261.914Z" fill="#00796B" fill-opacity="0.8"/>
<path d="M98.976 258.68C98.976 260.95 98.2816 263.169 96.9806 265.056C95.6796 266.944 93.8305 268.415 91.667 269.283C89.5035 270.152 87.1229 270.379 84.8262 269.937C82.5294 269.494 80.4197 268.401 78.7639 266.796C77.108 265.191 75.9804 263.146 75.5235 260.919C75.0667 258.693 75.3011 256.385 76.1973 254.288C77.0934 252.191 78.611 250.399 80.5581 249.138C82.5052 247.876 84.7943 247.203 87.136 247.203C88.6947 247.19 90.2406 247.478 91.6834 248.05C93.1261 248.622 94.4369 249.466 95.5391 250.535C96.6413 251.603 97.5129 252.874 98.103 254.272C98.6931 255.671 98.9899 257.169 98.976 258.68Z" fill="#FAFAFA"/>
<path d="M97.544 264.147C96.5264 265.96 95.0233 267.473 93.1931 268.528C91.3628 269.582 89.2731 270.139 87.144 270.139C85.0149 270.139 82.9252 269.582 81.095 268.528C79.2647 267.473 77.7617 265.96 76.744 264.147C79.8244 262.158 83.4429 261.097 87.144 261.097C90.8452 261.097 94.4637 262.158 97.544 264.147Z" fill="#00796B" fill-opacity="0.8"/>
<path opacity="0.7" d="M97.544 264.147C96.5264 265.96 95.0233 267.473 93.1931 268.528C91.3628 269.582 89.2731 270.139 87.144 270.139C85.0149 270.139 82.9252 269.582 81.095 268.528C79.2647 267.473 77.7617 265.96 76.744 264.147C79.8244 262.158 83.4429 261.097 87.144 261.097C90.8452 261.097 94.4637 262.158 97.544 264.147Z" fill="#FAFAFA"/>
<path d="M87.136 259.867C90.0477 259.867 92.408 257.579 92.408 254.756C92.408 251.934 90.0477 249.646 87.136 249.646C84.2244 249.646 81.864 251.934 81.864 254.756C81.864 257.579 84.2244 259.867 87.136 259.867Z" fill="#00796B" fill-opacity="0.8"/>
<path opacity="0.7" d="M87.136 259.867C90.0477 259.867 92.408 257.579 92.408 254.756C92.408 251.934 90.0477 249.646 87.136 249.646C84.2244 249.646 81.864 251.934 81.864 254.756C81.864 257.579 84.2244 259.867 87.136 259.867Z" fill="#FAFAFA"/>
<path d="M217.016 190.726H71.496C67.5461 190.726 64.344 193.83 64.344 197.659V222.823C64.344 226.651 67.5461 229.755 71.496 229.755H217.016C220.966 229.755 224.168 226.651 224.168 222.823V197.659C224.168 193.83 220.966 190.726 217.016 190.726Z" fill="#00796B" fill-opacity="0.8"/>
<path d="M218.704 192.362H73.184C69.234 192.362 66.032 195.466 66.032 199.295V224.467C66.032 228.295 69.234 231.399 73.184 231.399H218.704C222.654 231.399 225.856 228.295 225.856 224.467V199.295C225.856 195.466 222.654 192.362 218.704 192.362Z" fill="#00796B" fill-opacity="0.8"/>
<path opacity="0.6" d="M218.704 192.362H73.184C69.234 192.362 66.032 195.466 66.032 199.295V224.467C66.032 228.295 69.234 231.399 73.184 231.399H218.704C222.654 231.399 225.856 228.295 225.856 224.467V199.295C225.856 195.466 222.654 192.362 218.704 192.362Z" fill="#FAFAFA"/>
<path d="M220.392 193.999H74.872C70.922 193.999 67.72 197.102 67.72 200.931V226.095C67.72 229.924 70.922 233.028 74.872 233.028H220.392C224.342 233.028 227.544 229.924 227.544 226.095V200.931C227.544 197.102 224.342 193.999 220.392 193.999Z" fill="#00796B" fill-opacity="0.8"/>
<path opacity="0.8" d="M220.392 193.999H74.872C70.922 193.999 67.72 197.102 67.72 200.931V226.095C67.72 229.924 70.922 233.028 74.872 233.028H220.392C224.342 233.028 227.544 229.924 227.544 226.095V200.931C227.544 197.102 224.342 193.999 220.392 193.999Z" fill="#FAFAFA"/>
<path d="M133.936 200.598H110.784C109.94 200.598 109.256 201.261 109.256 202.079V205.026C109.256 205.844 109.94 206.507 110.784 206.507H133.936C134.78 206.507 135.464 205.844 135.464 205.026V202.079C135.464 201.261 134.78 200.598 133.936 200.598Z" fill="#00796B" fill-opacity="0.8"/>
<path d="M158.272 200.598H140.392C139.548 200.598 138.864 201.261 138.864 202.079V205.026C138.864 205.844 139.548 206.507 140.392 206.507H158.272C159.116 206.507 159.8 205.844 159.8 205.026V202.079C159.8 201.261 159.116 200.598 158.272 200.598Z" fill="#00796B" fill-opacity="0.8"/>
<path d="M192.072 210.562H110.784C109.94 210.562 109.256 211.226 109.256 212.044V214.99C109.256 215.808 109.94 216.471 110.784 216.471H192.072C192.916 216.471 193.6 215.808 193.6 214.99V212.044C193.6 211.226 192.916 210.562 192.072 210.562Z" fill="#00796B" fill-opacity="0.8"/>
<path d="M166.768 220.527H110.088C109.628 220.527 109.256 220.888 109.256 221.334V221.946C109.256 222.392 109.628 222.753 110.088 222.753H166.768C167.227 222.753 167.6 222.392 167.6 221.946V221.334C167.6 220.888 167.227 220.527 166.768 220.527Z" fill="#00796B" fill-opacity="0.8"/>
<path opacity="0.5" d="M166.768 220.527H110.088C109.628 220.527 109.256 220.888 109.256 221.334V221.946C109.256 222.392 109.628 222.753 110.088 222.753H166.768C167.227 222.753 167.6 222.392 167.6 221.946V221.334C167.6 220.888 167.227 220.527 166.768 220.527Z" fill="#FAFAFA"/>
<path d="M101.093 216.753C102.927 209.282 98.1672 201.785 90.4606 200.007C82.754 198.228 75.0193 202.843 73.1848 210.313C71.3502 217.783 76.1105 225.281 83.8171 227.059C91.5237 228.837 99.2584 224.223 101.093 216.753Z" fill="#00796B" fill-opacity="0.8"/>
<path d="M98.976 213.517C98.976 215.787 98.2816 218.006 96.9806 219.893C95.6796 221.781 93.8305 223.252 91.667 224.12C89.5035 224.989 87.1229 225.216 84.8262 224.773C82.5294 224.331 80.4197 223.238 78.7639 221.632C77.108 220.027 75.9804 217.982 75.5235 215.756C75.0667 213.53 75.3011 211.222 76.1973 209.125C77.0934 207.028 78.611 205.235 80.5581 203.974C82.5052 202.713 84.7943 202.04 87.136 202.04C88.6947 202.027 90.2406 202.314 91.6834 202.886C93.1261 203.458 94.4369 204.303 95.5391 205.372C96.6413 206.44 97.5129 207.711 98.103 209.109C98.6931 210.508 98.9899 212.006 98.976 213.517V213.517Z" fill="#FAFAFA"/>
<path d="M97.544 218.984C96.5264 220.797 95.0233 222.31 93.1931 223.364C91.3628 224.419 89.2731 224.975 87.144 224.975C85.0149 224.975 82.9252 224.419 81.095 223.364C79.2647 222.31 77.7617 220.797 76.744 218.984C79.8244 216.995 83.4429 215.934 87.144 215.934C90.8452 215.934 94.4637 216.995 97.544 218.984Z" fill="#00796B" fill-opacity="0.8"/>
<path opacity="0.7" d="M97.544 218.984C96.5264 220.797 95.0233 222.31 93.1931 223.364C91.3628 224.419 89.2731 224.975 87.144 224.975C85.0149 224.975 82.9252 224.419 81.095 223.364C79.2647 222.31 77.7617 220.797 76.744 218.984C79.8244 216.995 83.4429 215.934 87.144 215.934C90.8452 215.934 94.4637 216.995 97.544 218.984Z" fill="#FAFAFA"/>
<path d="M87.136 214.703C90.0477 214.703 92.408 212.415 92.408 209.593C92.408 206.771 90.0477 204.483 87.136 204.483C84.2244 204.483 81.864 206.771 81.864 209.593C81.864 212.415 84.2244 214.703 87.136 214.703Z" fill="#00796B" fill-opacity="0.8"/>
<path opacity="0.7" d="M87.136 214.703C90.0477 214.703 92.408 212.415 92.408 209.593C92.408 206.771 90.0477 204.483 87.136 204.483C84.2244 204.483 81.864 206.771 81.864 209.593C81.864 212.415 84.2244 214.703 87.136 214.703Z" fill="#FAFAFA"/>
<path d="M217.016 145.563H71.496C67.5461 145.563 64.344 148.667 64.344 152.496V177.667C64.344 181.496 67.5461 184.6 71.496 184.6H217.016C220.966 184.6 224.168 181.496 224.168 177.667V152.496C224.168 148.667 220.966 145.563 217.016 145.563Z" fill="#00796B" fill-opacity="0.8"/>
<path d="M218.704 147.199H73.184C69.234 147.199 66.032 150.303 66.032 154.132V179.296C66.032 183.125 69.234 186.228 73.184 186.228H218.704C222.654 186.228 225.856 183.125 225.856 179.296V154.132C225.856 150.303 222.654 147.199 218.704 147.199Z" fill="#00796B" fill-opacity="0.8"/>
<path opacity="0.6" d="M218.704 147.199H73.184C69.234 147.199 66.032 150.303 66.032 154.132V179.296C66.032 183.125 69.234 186.228 73.184 186.228H218.704C222.654 186.228 225.856 183.125 225.856 179.296V154.132C225.856 150.303 222.654 147.199 218.704 147.199Z" fill="#FAFAFA"/>
<path d="M220.392 148.835H74.872C70.922 148.835 67.72 151.939 67.72 155.768V180.94C67.72 184.768 70.922 187.872 74.872 187.872H220.392C224.342 187.872 227.544 184.768 227.544 180.94V155.768C227.544 151.939 224.342 148.835 220.392 148.835Z" fill="#00796B" fill-opacity="0.8"/>
<path opacity="0.8" d="M220.392 148.835H74.872C70.922 148.835 67.72 151.939 67.72 155.768V180.94C67.72 184.768 70.922 187.872 74.872 187.872H220.392C224.342 187.872 227.544 184.768 227.544 180.94V155.768C227.544 151.939 224.342 148.835 220.392 148.835Z" fill="#FAFAFA"/>
<path d="M187.896 155.435H110.784C109.94 155.435 109.256 156.098 109.256 156.916V159.862C109.256 160.68 109.94 161.344 110.784 161.344H187.896C188.74 161.344 189.424 160.68 189.424 159.862V156.916C189.424 156.098 188.74 155.435 187.896 155.435Z" fill="#00796B" fill-opacity="0.8"/>
<path d="M161.936 165.399H110.784C109.94 165.399 109.256 166.062 109.256 166.88V169.827C109.256 170.645 109.94 171.308 110.784 171.308H161.936C162.78 171.308 163.464 170.645 163.464 169.827V166.88C163.464 166.062 162.78 165.399 161.936 165.399Z" fill="#00796B" fill-opacity="0.8"/>
<path d="M174.272 165.399H169.52C168.676 165.399 167.992 166.062 167.992 166.88V169.827C167.992 170.645 168.676 171.308 169.52 171.308H174.272C175.116 171.308 175.8 170.645 175.8 169.827V166.88C175.8 166.062 175.116 165.399 174.272 165.399Z" fill="#00796B" fill-opacity="0.8"/>
<path d="M151.344 175.364H110.088C109.628 175.364 109.256 175.725 109.256 176.17V176.783C109.256 177.229 109.628 177.59 110.088 177.59H151.344C151.803 177.59 152.176 177.229 152.176 176.783V176.17C152.176 175.725 151.803 175.364 151.344 175.364Z" fill="#00796B" fill-opacity="0.8"/>
<path opacity="0.5" d="M151.344 175.364H110.088C109.628 175.364 109.256 175.725 109.256 176.17V176.783C109.256 177.229 109.628 177.59 110.088 177.59H151.344C151.803 177.59 152.176 177.229 152.176 176.783V176.17C152.176 175.725 151.803 175.364 151.344 175.364Z" fill="#FAFAFA"/>
<path d="M204.68 175.364H157.376C156.917 175.364 156.544 175.725 156.544 176.17V176.783C156.544 177.229 156.917 177.59 157.376 177.59H204.68C205.14 177.59 205.512 177.229 205.512 176.783V176.17C205.512 175.725 205.14 175.364 204.68 175.364Z" fill="#00796B" fill-opacity="0.8"/>
<path opacity="0.5" d="M204.68 175.364H157.376C156.917 175.364 156.544 175.725 156.544 176.17V176.783C156.544 177.229 156.917 177.59 157.376 177.59H204.68C205.14 177.59 205.512 177.229 205.512 176.783V176.17C205.512 175.725 205.14 175.364 204.68 175.364Z" fill="#FAFAFA"/>
<path d="M97.2803 178.182C102.882 172.752 102.882 163.949 97.2803 158.519C91.6786 153.089 82.5965 153.089 76.9948 158.519C71.3931 163.949 71.3931 172.752 76.9948 178.182C82.5965 183.612 91.6786 183.612 97.2803 178.182Z" fill="#00796B" fill-opacity="0.8"/>
<path d="M98.976 168.354C98.976 170.624 98.2816 172.843 96.9806 174.73C95.6796 176.617 93.8305 178.088 91.667 178.957C89.5035 179.826 87.1229 180.053 84.8262 179.61C82.5294 179.167 80.4197 178.074 78.7639 176.469C77.108 174.864 75.9804 172.819 75.5235 170.593C75.0667 168.367 75.3011 166.059 76.1973 163.962C77.0934 161.865 78.611 160.072 80.5581 158.811C82.5052 157.55 84.7943 156.877 87.136 156.877C88.6947 156.863 90.2406 157.151 91.6834 157.723C93.1261 158.295 94.4369 159.14 95.5391 160.208C96.6413 161.277 97.5129 162.547 98.103 163.946C98.6931 165.344 98.9899 166.843 98.976 168.354V168.354Z" fill="#FAFAFA"/>
<path d="M97.544 173.821C96.5264 175.634 95.0233 177.147 93.1931 178.201C91.3628 179.256 89.2731 179.812 87.144 179.812C85.0149 179.812 82.9252 179.256 81.095 178.201C79.2647 177.147 77.7617 175.634 76.744 173.821C79.8244 171.832 83.4429 170.771 87.144 170.771C90.8452 170.771 94.4637 171.832 97.544 173.821Z" fill="#00796B" fill-opacity="0.8"/>
<path opacity="0.7" d="M97.544 173.821C96.5264 175.634 95.0233 177.147 93.1931 178.201C91.3628 179.256 89.2731 179.812 87.144 179.812C85.0149 179.812 82.9252 179.256 81.095 178.201C79.2647 177.147 77.7617 175.634 76.744 173.821C79.8244 171.832 83.4429 170.771 87.144 170.771C90.8452 170.771 94.4637 171.832 97.544 173.821Z" fill="#FAFAFA"/>
<path d="M92.408 164.399C92.4064 165.409 92.0959 166.397 91.5156 167.236C90.9354 168.075 90.1114 168.729 89.148 169.115C88.1845 169.5 87.1247 169.6 86.1026 169.402C85.0805 169.204 84.1418 168.717 83.4053 168.002C82.6688 167.287 82.1675 166.376 81.9647 165.385C81.762 164.394 81.8668 163.367 82.2661 162.434C82.6653 161.5 83.3411 160.703 84.2079 160.141C85.0747 159.58 86.0936 159.281 87.136 159.281C87.829 159.281 88.5152 159.413 89.1554 159.671C89.7955 159.928 90.3771 160.305 90.8667 160.78C91.3564 161.256 91.7445 161.82 92.009 162.441C92.2735 163.062 92.4091 163.727 92.408 164.399V164.399Z" fill="#00796B" fill-opacity="0.8"/>
<path opacity="0.7" d="M92.408 164.399C92.4064 165.409 92.0959 166.397 91.5156 167.236C90.9354 168.075 90.1114 168.729 89.148 169.115C88.1845 169.5 87.1247 169.6 86.1026 169.402C85.0805 169.204 84.1418 168.717 83.4053 168.002C82.6688 167.287 82.1675 166.376 81.9647 165.385C81.762 164.394 81.8668 163.367 82.2661 162.434C82.6653 161.5 83.3411 160.703 84.2079 160.141C85.0747 159.58 86.0936 159.281 87.136 159.281C87.829 159.281 88.5152 159.413 89.1554 159.671C89.7955 159.928 90.3771 160.305 90.8667 160.78C91.3564 161.256 91.7445 161.82 92.009 162.441C92.2735 163.062 92.4091 163.727 92.408 164.399V164.399Z" fill="#FAFAFA"/>
<path d="M104.272 52.5223H100.624V53.2979H104.272V52.5223Z" fill="#00796B" fill-opacity="0.8"/>
<path d="M94.848 52.5223H86.224V53.2979H94.848V52.5223Z" fill="#00796B" fill-opacity="0.8"/>
<path d="M217.016 55.2365H71.496C67.5461 55.2365 64.344 58.3403 64.344 62.1691V87.3409C64.344 91.1697 67.5461 94.2736 71.496 94.2736H217.016C220.966 94.2736 224.168 91.1697 224.168 87.3409V62.1691C224.168 58.3403 220.966 55.2365 217.016 55.2365Z" fill="#00796B" fill-opacity="0.8"/>
<path d="M218.704 56.8727H73.184C69.234 56.8727 66.032 59.9765 66.032 63.8054V88.977C66.032 92.8058 69.234 95.9097 73.184 95.9097H218.704C222.654 95.9097 225.856 92.8058 225.856 88.977V63.8054C225.856 59.9765 222.654 56.8727 218.704 56.8727Z" fill="#00796B" fill-opacity="0.8"/>
<path opacity="0.6" d="M218.704 56.8727H73.184C69.234 56.8727 66.032 59.9765 66.032 63.8054V88.977C66.032 92.8058 69.234 95.9097 73.184 95.9097H218.704C222.654 95.9097 225.856 92.8058 225.856 88.977V63.8054C225.856 59.9765 222.654 56.8727 218.704 56.8727Z" fill="#FAFAFA"/>
<path d="M220.392 58.509H74.872C70.922 58.509 67.72 61.6129 67.72 65.4417V90.6133C67.72 94.4421 70.922 97.5459 74.872 97.5459H220.392C224.342 97.5459 227.544 94.4421 227.544 90.6133V65.4417C227.544 61.6129 224.342 58.509 220.392 58.509Z" fill="#00796B" fill-opacity="0.8"/>
<path opacity="0.8" d="M220.392 58.509H74.872C70.922 58.509 67.72 61.6129 67.72 65.4417V90.6133C67.72 94.4421 70.922 97.5459 74.872 97.5459H220.392C224.342 97.5459 227.544 94.4421 227.544 90.6133V65.4417C227.544 61.6129 224.342 58.509 220.392 58.509Z" fill="#FAFAFA"/>
<path d="M181.536 65.1082H110.784C109.94 65.1082 109.256 65.7713 109.256 66.5893V69.5362C109.256 70.3542 109.94 71.0173 110.784 71.0173H181.536C182.38 71.0173 183.064 70.3542 183.064 69.5362V66.5893C183.064 65.7713 182.38 65.1082 181.536 65.1082Z" fill="#00796B" fill-opacity="0.8"/>
<path d="M205.936 75.073H110.784C109.94 75.073 109.256 75.7361 109.256 76.5541V79.5007C109.256 80.3187 109.94 80.9818 110.784 80.9818H205.936C206.78 80.9818 207.464 80.3187 207.464 79.5007V76.5541C207.464 75.7361 206.78 75.073 205.936 75.073Z" fill="#00796B" fill-opacity="0.8"/>
<path d="M136.056 85.0378H110.088C109.628 85.0378 109.256 85.3989 109.256 85.8443V86.4569C109.256 86.9023 109.628 87.2633 110.088 87.2633H136.056C136.515 87.2633 136.888 86.9023 136.888 86.4569V85.8443C136.888 85.3989 136.515 85.0378 136.056 85.0378Z" fill="#00796B" fill-opacity="0.8"/>
<path opacity="0.5" d="M136.056 85.0378H110.088C109.628 85.0378 109.256 85.3989 109.256 85.8443V86.4569C109.256 86.9023 109.628 87.2633 110.088 87.2633H136.056C136.515 87.2633 136.888 86.9023 136.888 86.4569V85.8443C136.888 85.3989 136.515 85.0378 136.056 85.0378Z" fill="#FAFAFA"/>
<path d="M101.093 81.2545C102.927 73.7841 98.1669 66.2867 90.4603 64.5084C82.7536 62.7301 75.019 67.3443 73.1844 74.8147C71.3499 82.285 76.1101 89.7824 83.8167 91.5607C91.5234 93.3391 99.258 88.7248 101.093 81.2545Z" fill="#00796B" fill-opacity="0.8"/>
<path d="M98.976 78.0275C98.976 80.2974 98.2816 82.5163 96.9806 84.4037C95.6796 86.2911 93.8305 87.7621 91.667 88.6308C89.5035 89.4994 87.1229 89.7267 84.8262 89.2839C82.5294 88.841 80.4197 87.748 78.7639 86.1429C77.108 84.5378 75.9804 82.4928 75.5235 80.2665C75.0667 78.0402 75.3011 75.7326 76.1973 73.6354C77.0934 71.5383 78.611 69.7459 80.5581 68.4848C82.5052 67.2237 84.7943 66.5505 87.136 66.5505C88.693 66.5434 90.2359 66.8353 91.6758 67.4095C93.1156 67.9838 94.4238 68.8289 95.5247 69.896C96.6256 70.9632 97.4975 72.2312 98.0899 73.6269C98.6823 75.0226 98.9834 76.5183 98.976 78.0275V78.0275Z" fill="#FAFAFA"/>
<path d="M97.544 83.4945C96.5264 85.3073 95.0233 86.8205 93.1931 87.8749C91.3628 88.9293 89.2731 89.4858 87.144 89.4858C85.0149 89.4858 82.9252 88.9293 81.095 87.8749C79.2647 86.8205 77.7617 85.3073 76.744 83.4945C79.8244 81.5056 83.4429 80.4443 87.144 80.4443C90.8452 80.4443 94.4637 81.5056 97.544 83.4945V83.4945Z" fill="#00796B" fill-opacity="0.8"/>
<path opacity="0.7" d="M97.544 83.4945C96.5264 85.3073 95.0233 86.8205 93.1931 87.8749C91.3628 88.9293 89.2731 89.4858 87.144 89.4858C85.0149 89.4858 82.9252 88.9293 81.095 87.8749C79.2647 86.8205 77.7617 85.3073 76.744 83.4945C79.8244 81.5056 83.4429 80.4443 87.144 80.4443C90.8452 80.4443 94.4637 81.5056 97.544 83.4945V83.4945Z" fill="#FAFAFA"/>
<path d="M87.136 79.2062C90.0477 79.2062 92.408 76.9182 92.408 74.0958C92.408 71.2735 90.0477 68.9855 87.136 68.9855C84.2244 68.9855 81.864 71.2735 81.864 74.0958C81.864 76.9182 84.2244 79.2062 87.136 79.2062Z" fill="#00796B" fill-opacity="0.8"/>
<path opacity="0.7" d="M87.136 79.2062C90.0477 79.2062 92.408 76.9182 92.408 74.0958C92.408 71.2735 90.0477 68.9855 87.136 68.9855C84.2244 68.9855 81.864 71.2735 81.864 74.0958C81.864 76.9182 84.2244 79.2062 87.136 79.2062Z" fill="#FAFAFA"/>
<path d="M319.304 159.831L314.056 162.476L319.936 166.904C319.936 166.904 323.888 163.693 322.336 161.475L319.304 159.831Z" fill="#E4897B"/>
<path d="M311.056 167.865L316.072 171.246L319.936 166.904L314.056 162.476L311.056 167.865Z" fill="#E4897B"/>
<path d="M321.336 115.855C322.056 116.77 322.672 117.592 323.296 118.484C323.92 119.375 324.512 120.236 325.104 121.12C326.272 122.904 327.384 124.734 328.408 126.61C329.458 128.507 330.409 130.453 331.256 132.442L331.888 133.993L332.456 135.544C332.656 136.056 332.808 136.598 332.976 137.134L333.224 137.909L333.28 138.111L333.376 138.444C333.437 138.684 333.485 138.928 333.52 139.173C333.706 140.642 333.597 142.133 333.2 143.562C332.905 144.708 332.528 145.832 332.072 146.928C331.226 148.936 330.243 150.886 329.128 152.767C326.991 156.407 324.56 159.876 321.856 163.143L318.176 160.816C319.944 157.241 321.672 153.558 323.184 149.96C323.925 148.203 324.568 146.409 325.112 144.586C325.363 143.768 325.553 142.933 325.68 142.089C325.784 141.54 325.784 140.978 325.68 140.429C325.68 140.429 325.68 140.429 325.68 140.429C325.68 140.429 325.68 140.476 325.68 140.429L325.616 140.274L325.352 139.631C325.184 139.204 325.024 138.785 324.816 138.359L324.24 137.087L323.608 135.808C322.733 134.117 321.795 132.437 320.792 130.767C319.776 129.107 318.728 127.448 317.592 125.819C316.456 124.191 315.328 122.539 314.256 121.043L321.336 115.855Z" fill="#E4897B"/>
<path d="M332.264 127.758L319.088 136.715C319.088 136.715 318.288 135.04 317.176 132.597C316.272 130.651 315.144 128.223 314.024 125.773C313.568 124.78 313.12 123.788 312.68 122.818C309.632 116.087 313.192 111.241 319.448 112.14C324.96 112.939 332.264 127.758 332.264 127.758Z" fill="#263238"/>
<path d="M317.808 118.437C318.064 120.841 318.088 128.278 317.176 132.597C316.272 130.651 315.144 128.223 314.024 125.773L317.808 118.437Z" fill="#00796B" fill-opacity="0.8"/>
<path opacity="0.8" d="M317.808 118.437C318.064 120.841 318.088 128.278 317.176 132.597C316.272 130.651 315.144 128.223 314.024 125.773L317.808 118.437Z" fill="#00796B" fill-opacity="0.8"/>
<g opacity="0.8">
<path opacity="0.8" d="M317.808 118.437C318.064 120.841 318.088 128.278 317.176 132.597C316.272 130.651 315.144 128.223 314.024 125.773L317.808 118.437Z" fill="black"/>
<path opacity="0.8" d="M317.808 118.437C318.064 120.841 318.088 128.278 317.176 132.597C316.272 130.651 315.144 128.223 314.024 125.773L317.808 118.437Z" fill="black"/>
</g>
<path d="M337.52 179.42L196.896 143.159C195.07 142.675 193.513 141.514 192.564 139.926C191.615 138.338 191.349 136.452 191.824 134.675L198.496 110.357C199 108.591 200.2 107.088 201.838 106.172C203.475 105.257 205.419 105.002 207.248 105.463L347.872 141.717C349.7 142.2 351.258 143.363 352.207 144.952C353.157 146.542 353.421 148.43 352.944 150.208L346.272 174.48C345.778 176.255 344.582 177.769 342.943 178.694C341.305 179.619 339.356 179.879 337.52 179.42V179.42Z" fill="#00796B" fill-opacity="0.8"/>
<path opacity="0.8" d="M337.52 179.42L196.896 143.159C195.07 142.675 193.513 141.514 192.564 139.926C191.615 138.338 191.349 136.452 191.824 134.675L198.496 110.357C199 108.591 200.2 107.088 201.838 106.172C203.475 105.257 205.419 105.002 207.248 105.463L347.872 141.717C349.7 142.2 351.258 143.363 352.207 144.952C353.157 146.542 353.421 148.43 352.944 150.208L346.272 174.48C345.778 176.255 344.582 177.769 342.943 178.694C341.305 179.619 339.356 179.879 337.52 179.42V179.42Z" fill="#FAFAFA"/>
<path d="M338.712 181.459L198.096 145.16C196.268 144.678 194.71 143.517 193.759 141.929C192.808 140.341 192.541 138.454 193.016 136.676L199.696 112.365C200.193 110.593 201.391 109.083 203.029 108.161C204.667 107.24 206.614 106.981 208.448 107.441L349.064 143.702C350.892 144.184 352.45 145.345 353.401 146.933C354.352 148.521 354.619 150.408 354.144 152.185L347.472 176.504C346.982 178.283 345.786 179.802 344.145 180.731C342.504 181.659 340.551 181.921 338.712 181.459V181.459Z" fill="#00796B" fill-opacity="0.8"/>
<path opacity="0.4" d="M338.712 181.459L198.096 145.16C196.268 144.678 194.71 143.517 193.759 141.929C192.808 140.341 192.541 138.454 193.016 136.676L199.696 112.365C200.193 110.593 201.391 109.083 203.029 108.161C204.667 107.24 206.614 106.981 208.448 107.441L349.064 143.702C350.892 144.184 352.45 145.345 353.401 146.933C354.352 148.521 354.619 150.408 354.144 152.185L347.472 176.504C346.982 178.283 345.786 179.802 344.145 180.731C342.504 181.659 340.551 181.921 338.712 181.459V181.459Z" fill="#FAFAFA"/>
<path d="M339.912 183.429L199.296 147.168C197.468 146.686 195.91 145.525 194.959 143.937C194.008 142.349 193.741 140.462 194.216 138.685L200.888 114.366C201.387 112.594 202.586 111.084 204.226 110.164C205.866 109.243 207.814 108.987 209.648 109.449L350.264 145.702C352.102 146.184 353.669 147.352 354.621 148.951C355.573 150.549 355.833 152.449 355.344 154.233L348.664 178.543C348.158 180.308 346.957 181.809 345.32 182.723C343.683 183.637 341.74 183.891 339.912 183.429V183.429Z" fill="#00796B" fill-opacity="0.8"/>
<path opacity="0.2" d="M339.912 183.429L199.296 147.168C197.468 146.686 195.91 145.525 194.959 143.937C194.008 142.349 193.741 140.462 194.216 138.685L200.888 114.366C201.387 112.594 202.586 111.084 204.226 110.164C205.866 109.243 207.814 108.987 209.648 109.449L350.264 145.702C352.102 146.184 353.669 147.352 354.621 148.951C355.573 150.549 355.833 152.449 355.344 154.233L348.664 178.543C348.158 180.308 346.957 181.809 345.32 182.723C343.683 183.637 341.74 183.891 339.912 183.429V183.429Z" fill="black"/>
<path d="M331.99 147.848L242.581 124.788C241.766 124.577 240.929 125.048 240.712 125.838L239.93 128.686C239.713 129.476 240.198 130.288 241.014 130.498L330.423 153.559C331.238 153.769 332.075 153.299 332.292 152.508L333.074 149.661C333.291 148.87 332.806 148.059 331.99 147.848Z" fill="#00796B" fill-opacity="0.8"/>
<path opacity="0.7" d="M331.99 147.848L242.581 124.788C241.766 124.577 240.929 125.048 240.712 125.838L239.93 128.686C239.713 129.476 240.198 130.288 241.014 130.498L330.423 153.559C331.238 153.769 332.075 153.299 332.292 152.508L333.074 149.661C333.291 148.87 332.806 148.059 331.99 147.848Z" fill="#FAFAFA"/>
<path d="M296.418 148.978L239.943 134.412C239.128 134.202 238.291 134.672 238.074 135.462L237.292 138.31C237.075 139.101 237.56 139.912 238.376 140.122L294.851 154.688C295.666 154.899 296.503 154.428 296.72 153.638L297.502 150.79C297.719 150 297.234 149.188 296.418 148.978Z" fill="#00796B" fill-opacity="0.8"/>
<path opacity="0.7" d="M296.418 148.978L239.943 134.412C239.128 134.202 238.291 134.672 238.074 135.462L237.292 138.31C237.075 139.101 237.56 139.912 238.376 140.122L294.851 154.688C295.666 154.899 296.503 154.428 296.72 153.638L297.502 150.79C297.719 150 297.234 149.188 296.418 148.978Z" fill="#FAFAFA"/>
<path d="M319.032 165.117L236.627 143.863C236.183 143.749 235.727 144.005 235.609 144.435L235.447 145.027C235.328 145.458 235.593 145.9 236.037 146.014L318.442 167.268C318.886 167.383 319.341 167.127 319.459 166.696L319.622 166.104C319.74 165.674 319.476 165.232 319.032 165.117Z" fill="#FAFAFA"/>
<path d="M227.527 138.731C232.042 132.434 230.437 123.781 223.941 119.404C217.445 115.027 208.518 116.584 204.003 122.88C199.487 129.177 201.093 137.83 207.589 142.207C214.085 146.584 223.011 145.028 227.527 138.731Z" fill="#00796B" fill-opacity="0.8"/>
<path d="M227.76 134.311C227.158 136.504 225.898 138.475 224.14 139.975C222.382 141.474 220.205 142.435 217.884 142.735C215.563 143.035 213.203 142.661 211.101 141.661C208.999 140.661 207.25 139.079 206.075 137.115C204.901 135.152 204.353 132.895 204.502 130.63C204.651 128.364 205.489 126.193 206.911 124.39C208.333 122.586 210.275 121.232 212.491 120.498C214.706 119.764 217.097 119.684 219.36 120.267C220.868 120.646 222.283 121.312 223.524 122.225C224.765 123.138 225.806 124.281 226.587 125.588C227.369 126.894 227.875 128.338 228.076 129.835C228.277 131.333 228.17 132.854 227.76 134.311Z" fill="#FAFAFA"/>
<path d="M224.928 139.235C223.466 140.743 221.61 141.839 219.557 142.407C217.504 142.976 215.33 142.995 213.267 142.463C211.204 141.931 209.327 140.868 207.837 139.387C206.346 137.905 205.297 136.06 204.8 134.047C208.308 132.891 212.09 132.767 215.67 133.69C219.25 134.614 222.468 136.543 224.92 139.235H224.928Z" fill="#00796B" fill-opacity="0.8"/>
<path opacity="0.7" d="M224.928 139.235C223.466 140.743 221.61 141.839 219.557 142.407C217.504 142.976 215.33 142.995 213.267 142.463C211.204 141.931 209.327 140.868 207.837 139.387C206.346 137.905 205.297 136.06 204.8 134.047C208.308 132.891 212.09 132.767 215.67 133.69C219.25 134.614 222.468 136.543 224.92 139.235H224.928Z" fill="#FAFAFA"/>
<path d="M222.456 128.882C222.187 129.859 221.626 130.736 220.843 131.403C220.06 132.07 219.091 132.497 218.058 132.63C217.025 132.763 215.974 132.597 215.039 132.152C214.103 131.706 213.325 131.002 212.802 130.128C212.279 129.254 212.035 128.25 212.101 127.241C212.167 126.233 212.54 125.266 213.172 124.463C213.804 123.66 214.668 123.057 215.654 122.73C216.64 122.403 217.704 122.366 218.712 122.625C219.382 122.797 220.011 123.095 220.562 123.503C221.113 123.91 221.575 124.42 221.923 125.001C222.271 125.582 222.497 126.224 222.588 126.89C222.68 127.556 222.635 128.233 222.456 128.882V128.882Z" fill="#00796B" fill-opacity="0.8"/>
<path opacity="0.7" d="M222.456 128.882C222.187 129.859 221.626 130.736 220.843 131.403C220.06 132.07 219.091 132.497 218.058 132.63C217.025 132.763 215.974 132.597 215.039 132.152C214.103 131.706 213.325 131.002 212.802 130.128C212.279 129.254 212.035 128.25 212.101 127.241C212.167 126.233 212.54 125.266 213.172 124.463C213.804 123.66 214.668 123.057 215.654 122.73C216.64 122.403 217.704 122.366 218.712 122.625C219.382 122.797 220.011 123.095 220.562 123.503C221.113 123.91 221.575 124.42 221.923 125.001C222.271 125.582 222.497 126.224 222.588 126.89C222.68 127.556 222.635 128.233 222.456 128.882V128.882Z" fill="#FAFAFA"/>
<path d="M311.152 95.4755C309.656 99.4303 307.592 106.782 310.088 109.961C310.088 109.961 308.256 113.924 300.432 112.706C291.824 111.365 297 107.929 297 107.929C301.88 107.573 302.312 104.176 302.024 100.873L311.152 95.4755Z" fill="#E4897B"/>
<path d="M295.2 109.248C295.64 108.527 295.248 105.712 295.248 105.712C295.248 105.712 307.696 104.82 312.048 106.603C314.376 107.557 312.048 111.574 312.048 111.574L295.2 109.248Z" fill="#00796B" fill-opacity="0.8"/>
<path opacity="0.1" d="M295.2 109.248C295.64 108.527 295.248 105.712 295.248 105.712C295.248 105.712 307.696 104.82 312.048 106.603C314.376 107.557 312.048 111.574 312.048 111.574L295.2 109.248Z" fill="black"/>
<path d="M296.8 88.5272C296.72 88.977 296.416 89.3027 296.112 89.2562C295.808 89.2097 295.624 88.8064 295.696 88.3566C295.768 87.9068 296.08 87.5811 296.384 87.6276C296.688 87.6741 296.848 88.0774 296.8 88.5272Z" fill="#263238"/>
<path d="M296.744 88.7522C295.964 90.0408 295.003 91.2178 293.888 92.2494C294.166 92.5238 294.503 92.7355 294.875 92.8695C295.247 93.0036 295.645 93.0566 296.04 93.0249L296.744 88.7522Z" fill="#DE5753"/>
<path d="M298.672 87.1314C298.621 87.1338 298.571 87.1219 298.527 87.0971C298.483 87.0724 298.447 87.0358 298.424 86.9918C298.271 86.6899 298.046 86.4276 297.768 86.2267C297.49 86.0258 297.166 85.892 296.824 85.8364C296.759 85.8214 296.701 85.7841 296.661 85.7313C296.622 85.6785 296.604 85.6137 296.609 85.5488C296.615 85.4839 296.645 85.4232 296.693 85.3777C296.741 85.3323 296.805 85.3052 296.872 85.3014C297.305 85.3657 297.716 85.5295 298.071 85.779C298.426 86.0285 298.714 86.3566 298.912 86.736C298.946 86.7988 298.954 86.8722 298.933 86.9404C298.912 87.0085 298.864 87.066 298.8 87.1004C298.761 87.1214 298.717 87.1321 298.672 87.1314V87.1314Z" fill="#263238"/>
<path d="M260.472 266.939L254.696 266.187L254.968 253.019L260.744 253.771L260.472 266.939Z" fill="#E4897B"/>
<path d="M303.592 273.127H297.76L293.224 260.037H299.048L303.592 273.127Z" fill="#E4897B"/>
<path d="M296.984 272.468H304.096C304.211 272.47 304.323 272.509 304.413 272.58C304.502 272.65 304.565 272.747 304.592 272.856L305.744 277.881C305.771 278.003 305.768 278.129 305.737 278.251C305.706 278.372 305.648 278.485 305.565 278.581C305.483 278.677 305.379 278.754 305.262 278.806C305.145 278.858 305.017 278.884 304.888 278.881C302.6 278.842 300.936 278.718 298.056 278.718C296.28 278.718 292.632 278.896 290.184 278.896C287.736 278.896 287.416 276.57 288.416 276.338C292.912 275.384 294.6 274.073 296.04 272.817C296.3 272.592 296.636 272.468 296.984 272.468V272.468Z" fill="#263238"/>
<path d="M254.496 264.907L260.808 265.729C260.922 265.745 261.027 265.798 261.106 265.88C261.185 265.962 261.232 266.067 261.24 266.179L261.688 271.305C261.699 271.428 261.681 271.553 261.635 271.669C261.59 271.785 261.518 271.889 261.425 271.974C261.332 272.059 261.22 272.122 261.098 272.16C260.976 272.197 260.847 272.207 260.72 272.189C258.448 271.848 255.184 271.289 252.32 270.917C248.976 270.475 246.72 270.235 242.824 269.723C240.424 269.413 240.12 267.001 241.144 266.916C245.792 266.551 248.816 266.978 253.04 265.155C253.492 264.944 253.996 264.858 254.496 264.907V264.907Z" fill="#263238"/>
<path d="M254.968 253.019L254.824 259.812L260.608 260.565L260.744 253.779L254.968 253.019Z" fill="#CE6F64"/>
<path d="M299.056 260.045H293.224L295.568 266.792H301.4L299.056 260.045Z" fill="#CE6F64"/>
<path d="M288 108.496C288 108.496 278.824 124.509 280.92 156.846L311.808 160.886C312.664 156.319 312.808 133.504 320.4 112.443C317.074 111.354 313.677 110.479 310.232 109.822C305.894 109 301.511 108.425 297.104 108.1C294.063 108.001 291.019 108.134 288 108.496V108.496Z" fill="#263238"/>
<path d="M291.552 116.653C290.272 118.801 288.912 120.88 287.552 122.989L283.416 129.193C282.04 131.271 280.6 133.318 279.152 135.396C278.432 136.42 277.688 137.436 276.944 138.452L275.816 140.003C275.4 140.553 274.912 141.181 274.448 141.701C272.626 143.72 270.618 145.573 268.448 147.238C266.36 148.851 264.24 150.34 262.048 151.736C257.721 154.512 253.207 157.004 248.536 159.196L246.4 155.512C250.4 152.666 254.4 149.665 258.208 146.617C260.104 145.067 261.96 143.516 263.696 141.895C265.388 140.364 266.946 138.699 268.352 136.916C268.688 136.49 268.944 136.141 269.248 135.652L270.232 134.101L272.192 131L276.112 124.742L280.032 118.46C281.368 116.382 282.672 114.273 284.032 112.218L291.552 116.653Z" fill="#E4897B"/>
<path d="M294.4 115.374C293.656 120.725 284 133.458 284 133.458L270.552 122.454C270.552 122.454 277.584 114.831 283.352 110.481C289.12 106.13 295.2 109.496 294.4 115.374Z" fill="#263238"/>
<path d="M249.296 153.899L244.264 155.559L249.304 160.653C249.304 160.653 252.376 160.297 252.096 156.187L249.296 153.899Z" fill="#E4897B"/>
<path d="M240.928 159.436L246.68 162.173L249.304 160.653L244.264 155.559L240.928 159.436Z" fill="#E4897B"/>
<path d="M312.672 89.4113C311.408 94.8861 310.952 98.1508 307.608 100.539C302.568 104.13 295.952 100.539 295.504 94.7776C295.096 89.6207 297.232 81.5404 303.184 80.2066C304.493 79.9069 305.86 79.9368 307.154 80.2934C308.448 80.6499 309.626 81.3213 310.577 82.2437C311.527 83.1661 312.219 84.3089 312.586 85.5634C312.953 86.818 312.982 88.1426 312.672 89.4113V89.4113Z" fill="#E4897B"/>
<path d="M320.488 89.2251C320.413 88.8038 320.247 88.4027 320 88.0484C319.753 87.6941 319.431 87.3947 319.056 87.1701C321.792 86.0069 320.424 84.6576 318.088 82.688C315.072 80.0746 313.816 74.786 313.952 73.6538C313 75.0574 313.256 77.1279 314.064 78.989C313.057 77.9143 312.246 76.682 311.664 75.3443C309.328 69.6602 304.28 74.6309 299.408 74.7937C291.224 75.0651 297.704 70.9164 303.712 71.0405C294.76 68.3806 285.832 71.6764 287.288 77.4768C288.744 83.2773 298.76 75.9259 298.704 81.2766C298.704 82.3623 299.928 83.4324 301.744 84.2777C299.224 89.3027 305.368 99.3992 308.944 99.7249C312.52 100.051 318.784 94.0175 319.048 88.7909C319.552 88.8458 320.041 88.9932 320.488 89.2251V89.2251Z" fill="#263238"/>
<path d="M304.544 90.6598C304.188 92.026 303.291 93.2014 302.048 93.9323C300.384 94.8783 299.064 93.56 299.104 91.7842C299.144 90.1945 300.064 87.7751 301.928 87.5502C302.337 87.5082 302.75 87.5657 303.13 87.7173C303.51 87.869 303.845 88.11 304.104 88.4187C304.364 88.7274 304.54 89.094 304.617 89.4853C304.694 89.8766 304.669 90.2803 304.544 90.6598V90.6598Z" fill="#E4897B"/>
<path d="M303.504 265.481H292.8C292.8 265.481 278.704 230.639 277.208 212.563C276.888 208.686 277.528 203.576 278.712 198.078C280.728 188.679 284.312 178.078 287.192 170.161C289.776 163.182 291.848 158.257 291.848 158.257L311.792 160.871C309.832 174.899 294.008 197.209 293.824 216.394C293.672 234.09 303.504 265.481 303.504 265.481Z" fill="#00796B" fill-opacity="0.8"/>
<path opacity="0.1" d="M303.504 265.481H292.8C292.8 265.481 278.704 230.639 277.208 212.563C276.888 208.686 277.528 203.576 278.712 198.078C280.728 188.679 284.312 178.078 287.192 170.161C289.776 163.182 291.848 158.257 291.848 158.257L311.792 160.871C309.832 174.899 294.008 197.209 293.824 216.394C293.672 234.09 303.504 265.481 303.504 265.481Z" fill="black"/>
<path d="M292.264 174.565C291.568 183.941 284.128 193.913 278.736 198.077C280.752 188.679 284.336 178.078 287.216 170.161C288.728 169.982 291.12 172.875 292.264 174.565Z" fill="#00796B" fill-opacity="0.8"/>
<path opacity="0.2" d="M292.264 174.565C291.568 183.941 284.128 193.913 278.736 198.077C280.752 188.679 284.336 178.078 287.216 170.161C288.728 169.982 291.12 172.875 292.264 174.565Z" fill="black"/>
<path d="M280.92 156.846C280.92 156.846 253.496 192.246 251.744 209.376C249.92 227.212 252.84 258.23 252.84 258.23L262.624 259.51C262.624 259.51 265.576 230.383 268.448 212.982C271.568 194.03 301.248 174.434 303.32 159.762L280.92 156.846Z" fill="#00796B" fill-opacity="0.8"/>
<path opacity="0.1" d="M280.92 156.846C280.92 156.846 253.496 192.246 251.744 209.376C249.92 227.212 252.84 258.23 252.84 258.23L262.624 259.51C262.624 259.51 265.576 230.383 268.448 212.982C271.568 194.03 301.248 174.434 303.32 159.762L280.92 156.846Z" fill="black"/>
<path d="M290.936 265.706H304.896V262.061L289.296 261.829L290.936 265.706Z" fill="#00796B" fill-opacity="0.8"/>
<path opacity="0.4" d="M290.936 265.706H304.896V262.061L289.296 261.829L290.936 265.706Z" fill="#FAFAFA"/>
<path d="M250.864 258.168L264.456 259.975L264.96 256.331L249.768 254.113L250.864 258.168Z" fill="#00796B" fill-opacity="0.8"/>
<path opacity="0.4" d="M250.864 258.168L264.456 259.975L264.96 256.331L249.768 254.113L250.864 258.168Z" fill="#FAFAFA"/>
<path d="M295.056 273.46C294.659 273.488 294.264 273.385 293.936 273.166C293.83 273.082 293.747 272.973 293.697 272.85C293.646 272.726 293.63 272.592 293.648 272.46C293.648 272.382 293.67 272.305 293.713 272.238C293.755 272.171 293.816 272.116 293.888 272.08C294.528 271.77 296.416 272.856 296.624 273.011C296.646 273.025 296.664 273.045 296.675 273.068C296.686 273.091 296.691 273.117 296.688 273.143C296.685 273.169 296.673 273.194 296.655 273.214C296.636 273.233 296.611 273.246 296.584 273.251C296.085 273.379 295.572 273.45 295.056 273.46ZM294.192 272.29C294.134 272.277 294.074 272.277 294.016 272.29C294.016 272.29 293.936 272.344 293.928 272.445C293.915 272.535 293.925 272.626 293.957 272.711C293.989 272.797 294.042 272.873 294.112 272.933C294.765 273.22 295.505 273.256 296.184 273.034C295.575 272.664 294.899 272.412 294.192 272.29V272.29Z" fill="#00796B" fill-opacity="0.8"/>
<path d="M296.552 273.259H296.488C295.88 272.941 294.72 271.708 294.84 271.072C294.86 270.974 294.915 270.885 294.996 270.821C295.076 270.758 295.176 270.723 295.28 270.723C295.384 270.709 295.491 270.716 295.591 270.746C295.692 270.775 295.785 270.826 295.864 270.894C296.544 271.429 296.664 273.057 296.664 273.127C296.668 273.152 296.665 273.177 296.653 273.199C296.642 273.222 296.623 273.24 296.6 273.251L296.552 273.259ZM295.376 270.933H295.312C295.136 270.933 295.12 271.033 295.112 271.064C295.04 271.437 295.784 272.375 296.384 272.817C296.34 272.175 296.1 271.559 295.696 271.049C295.603 270.985 295.49 270.954 295.376 270.964V270.933Z" fill="#00796B" fill-opacity="0.8"/>
<path d="M253.024 265.636C252.112 265.636 251.024 265.52 250.624 265.047C250.543 264.954 250.485 264.844 250.456 264.725C250.427 264.606 250.427 264.483 250.456 264.364C250.473 264.292 250.507 264.225 250.555 264.169C250.604 264.112 250.666 264.068 250.736 264.039C251.488 263.76 253.648 265.202 253.896 265.365C253.919 265.381 253.937 265.404 253.947 265.43C253.957 265.456 253.959 265.485 253.952 265.512C253.944 265.539 253.927 265.562 253.904 265.579C253.881 265.595 253.853 265.605 253.824 265.605C253.6 265.621 253.312 265.636 253.024 265.636ZM250.96 264.271C250.91 264.259 250.858 264.259 250.808 264.271C250.78 264.28 250.756 264.296 250.737 264.318C250.719 264.341 250.707 264.367 250.704 264.395C250.683 264.473 250.682 264.554 250.7 264.632C250.718 264.711 250.755 264.784 250.808 264.845C251.12 265.194 252.072 265.38 253.368 265.334C252.647 264.827 251.828 264.466 250.96 264.271Z" fill="#00796B" fill-opacity="0.8"/>
<path d="M253.792 265.613H253.72C253.064 265.217 251.856 263.829 252.048 263.209C252.088 263.069 252.216 262.899 252.568 262.899H252.608C252.746 262.905 252.881 262.938 253.006 262.995C253.131 263.052 253.243 263.133 253.336 263.232C253.775 263.91 253.983 264.705 253.928 265.504C253.929 265.528 253.923 265.552 253.91 265.573C253.897 265.593 253.878 265.61 253.856 265.621L253.792 265.613ZM252.568 263.147C252.344 263.147 252.32 263.232 252.312 263.263C252.192 263.635 253 264.706 253.656 265.217C253.678 264.569 253.493 263.93 253.128 263.387C253.062 263.314 252.981 263.254 252.89 263.213C252.799 263.171 252.7 263.149 252.6 263.147H252.568Z" fill="#00796B" fill-opacity="0.8"/>
</svg>
