<svg width="212" height="206" viewBox="0 0 212 206" fill="none" xmlns="http://www.w3.org/2000/svg">
<path d="M31.6673 188.933C72.7214 210.382 139.283 210.382 180.337 188.933C221.391 167.483 221.396 132.713 180.337 111.263C139.278 89.8131 72.7214 89.818 31.6625 111.263C-9.39644 132.708 -9.39156 167.478 31.6673 188.933Z" fill="#F5F5F5"/>
<path d="M83.5415 170.305C94.6058 175.578 112.54 175.578 123.58 170.305C134.62 165.032 134.644 156.487 123.58 151.213C112.516 145.94 94.5862 145.94 83.5415 151.213C72.4968 156.487 72.4577 165.037 83.5415 170.305Z" fill="#EBEBEB"/>
<path d="M179.321 157.253L139.771 180.08C139.443 180.246 139.081 180.333 138.714 180.333C138.347 180.333 137.984 180.246 137.657 180.08L88.2192 151.526C88.0916 151.483 87.9808 151.401 87.9024 151.291C87.8239 151.182 87.7817 151.05 87.7817 150.916C87.7817 150.781 87.8239 150.65 87.9024 150.54C87.9808 150.431 88.0916 150.349 88.2192 150.305L127.769 127.479C128.097 127.313 128.459 127.226 128.826 127.226C129.194 127.226 129.556 127.313 129.884 127.479L179.336 156.033C179.463 156.078 179.573 156.161 179.65 156.271C179.727 156.382 179.768 156.514 179.766 156.648C179.764 156.783 179.721 156.914 179.641 157.022C179.561 157.131 179.449 157.212 179.321 157.253Z" fill="#EBEBEB"/>
<path d="M190.327 31.7721V42.2553C190.327 42.2553 186.02 44.2719 178.12 44.2719C170.22 44.2719 165.913 42.2504 165.913 42.2504V31.9967L174.155 8.67186C174.043 9.40427 174.473 10.1367 175.439 10.7128C176.147 11.1493 176.951 11.4049 177.78 11.4568C178.61 11.5088 179.439 11.3555 180.195 11.0107C180.408 10.9272 180.613 10.8276 180.81 10.7128C181.836 10.122 182.275 9.3115 182.075 8.54002L190.327 31.7721Z" fill="#F5F5F5"/>
<path opacity="0.5" d="M190.327 31.7721V42.2553C190.327 42.2553 186.02 44.2719 178.12 44.2719C170.22 44.2719 165.913 42.2504 165.913 42.2504V31.9967L174.155 8.67186C174.043 9.40427 174.473 10.1367 175.439 10.7128C176.147 11.1493 176.951 11.4049 177.78 11.4568C178.61 11.5088 179.439 11.3555 180.195 11.0107C180.408 10.9272 180.613 10.8276 180.81 10.7128C181.836 10.122 182.275 9.3115 182.075 8.54002L190.327 31.7721Z" fill="white"/>
<path d="M189.38 105.257C188.672 106.19 187.775 106.962 186.748 107.523C181.973 110.282 174.233 110.282 169.463 107.523C168.434 106.962 167.535 106.19 166.826 105.257C166.275 104.525 165.95 103.647 165.889 102.733V108.177C165.977 109.915 167.163 111.639 169.463 112.967C174.233 115.721 181.973 115.721 186.748 112.967C189.131 111.59 190.327 109.784 190.327 107.977V102.538C190.309 103.522 189.977 104.475 189.38 105.257Z" fill="#F5F5F5"/>
<path d="M189.38 99.813C188.672 100.745 187.775 101.517 186.748 102.079C186.465 102.24 186.177 102.391 185.879 102.533C181.372 104.681 174.834 104.681 170.332 102.533C170.034 102.391 169.741 102.24 169.463 102.079C168.434 101.518 167.535 100.746 166.826 99.813C166.276 99.0821 165.95 98.2066 165.889 97.2935V102.733C165.95 103.647 166.275 104.525 166.826 105.257C167.535 106.19 168.434 106.962 169.463 107.523C174.233 110.282 181.973 110.282 186.748 107.523C187.775 106.962 188.672 106.19 189.38 105.257C189.977 104.475 190.309 103.522 190.327 102.538V97.0933C190.309 98.0776 189.977 99.0305 189.38 99.813Z" fill="#EBEBEB"/>
<path d="M189.38 94.3687C188.671 95.3016 187.774 96.0751 186.748 96.6392C186.465 96.8003 186.177 96.9468 185.879 97.0933C181.372 99.2417 174.834 99.2417 170.332 97.0933C170.034 96.9468 169.741 96.8003 169.463 96.6392C168.435 96.0751 167.537 95.3016 166.826 94.3687C166.276 93.6379 165.95 92.7623 165.889 91.8492V97.2935C165.95 98.2066 166.276 99.0821 166.826 99.813C167.535 100.746 168.434 101.518 169.463 102.079C169.741 102.24 170.034 102.391 170.332 102.533C174.834 104.681 181.372 104.681 185.879 102.533C186.177 102.391 186.465 102.24 186.748 102.079C187.775 101.517 188.672 100.745 189.38 99.813C189.977 99.0305 190.309 98.0776 190.327 97.0933V91.649C190.31 92.6335 189.978 93.5866 189.38 94.3687Z" fill="#F5F5F5"/>
<path d="M165.889 31.9771V91.8492C165.95 92.7623 166.276 93.6379 166.826 94.3687C167.537 95.3016 168.435 96.0751 169.463 96.6392C169.741 96.8003 170.034 96.9468 170.332 97.0933C171.513 97.6434 172.755 98.0483 174.033 98.2993L171.821 35.1997L165.889 31.9771Z" fill="#F5F5F5"/>
<path d="M184.389 35.1997L182.173 98.2993C183.451 98.0483 184.693 97.6434 185.874 97.0933C186.172 96.9468 186.46 96.8003 186.743 96.6392C187.77 96.0751 188.666 95.3016 189.375 94.3687C189.973 93.5866 190.305 92.6335 190.322 91.649V31.7721L184.389 35.1997Z" fill="#F5F5F5"/>
<path d="M165.889 31.9771V91.8492C165.95 92.7623 166.276 93.6379 166.826 94.3687C167.537 95.3016 168.435 96.0751 169.463 96.6392C169.741 96.8003 170.034 96.9468 170.332 97.0933C171.513 97.6434 172.755 98.0483 174.033 98.2993L171.821 35.1997L165.889 31.9771Z" fill="#E0E0E0"/>
<path d="M184.389 35.1997L182.173 98.2993C183.451 98.0483 184.693 97.6434 185.874 97.0933C186.172 96.9468 186.46 96.8003 186.743 96.6392C187.77 96.0751 188.666 95.3016 189.375 94.3687C189.973 93.5866 190.305 92.6335 190.322 91.649V31.7721L184.389 35.1997Z" fill="#E0E0E0"/>
<path d="M171.821 35.1997V97.6987C172.545 97.9487 173.283 98.1509 174.033 98.3042C175.374 98.575 176.738 98.7108 178.105 98.7095C179.473 98.7084 180.837 98.5726 182.178 98.3042C182.927 98.1509 183.666 97.9487 184.389 97.6987V35.1997H171.821Z" fill="#EBEBEB"/>
<path d="M180.791 10.6884C180.594 10.8032 180.388 10.9028 180.176 10.9863C179.42 11.3311 178.59 11.4844 177.761 11.4324C176.931 11.3805 176.127 11.1249 175.42 10.6884C174.443 10.1318 174.023 9.37985 174.136 8.64744L176.948 0.771591C177.041 0.541285 177.201 0.344357 177.407 0.206673C177.614 0.0689893 177.857 -0.00301375 178.105 0.000118503C178.354 -0.00332819 178.598 0.0684829 178.806 0.206144C179.013 0.343806 179.174 0.540897 179.268 0.771591L182.051 8.50584C182.241 9.27731 181.816 10.0976 180.791 10.6884Z" fill="#E0E0E0"/>
<path d="M186.748 112.967C182.646 115.335 176.357 115.662 171.641 113.944C171.377 113.852 171.118 113.75 170.864 113.636L170.513 113.489C170.147 113.323 169.795 113.143 169.463 112.952C167.163 111.624 165.977 109.901 165.889 108.162V122.996C165.801 124.871 166.987 126.761 169.463 128.187C169.756 128.357 170.064 128.519 170.381 128.675C170.498 128.733 170.625 128.777 170.742 128.831C170.947 128.919 171.148 129.012 171.357 129.09C171.567 129.168 171.685 129.207 171.846 129.261C172.007 129.314 172.192 129.388 172.373 129.441C172.554 129.495 172.773 129.554 172.974 129.607C173.174 129.661 173.281 129.695 173.438 129.729C173.594 129.764 173.901 129.832 174.136 129.876C174.268 129.876 174.399 129.935 174.531 129.954C174.795 130.003 175.063 130.037 175.332 130.076L175.649 130.12C175.947 130.154 176.245 130.179 176.543 130.198H176.777C177.104 130.223 177.432 130.232 177.754 130.237H177.91C178.262 130.237 178.613 130.237 178.965 130.237H179.043C179.414 130.237 179.785 130.193 180.156 130.159C182.331 129.974 184.449 129.367 186.391 128.372C186.499 128.313 186.611 128.265 186.719 128.201C189.101 126.824 190.298 125.018 190.298 123.211V107.977C190.327 109.784 189.131 111.59 186.748 112.967Z" fill="#E0E0E0"/>
<path d="M39.3431 121.619C37.932 121.263 30.3979 116.976 29.6313 116.453C28.8647 115.931 27.3511 114.852 27.3511 112.991C27.3511 111.346 27.522 95.8286 28.8696 88.3336C29.3123 86.0021 30.2273 83.7858 31.5582 81.8209C32.8891 79.856 34.6078 78.1842 36.6087 76.908C41.2962 74.0028 46.008 71.8984 49.9777 73.5487C53.9473 75.1991 57.5703 78.2313 59.1328 81.8933C60.6953 85.5554 61.7646 92.8892 61.8769 95.7261C61.9892 98.563 61.8769 108.289 61.8769 109.154C61.8769 110.018 61.7206 111.141 57.0674 114.036C52.4141 116.932 45.9885 120.384 44.0012 121.277C42.523 121.878 40.8931 121.998 39.3431 121.619Z" fill="#37474F"/>
<path d="M38.1809 78.9246C37.7512 79.1688 36.511 78.5584 36.3254 78.2508C36.1399 77.9432 36.091 75.2821 37.0188 73.8124C37.9465 72.3427 43.7325 69.6328 45.1632 69.833C45.699 69.9202 46.2114 70.1159 46.669 70.4081C47.1265 70.7003 47.5197 71.0828 47.8243 71.5322C48 71.9081 48.1953 74.3837 47.8243 74.8915C47.4532 75.3993 46.1299 74.618 46.0128 74.4032C45.8956 74.1884 46.4473 72.3769 45.5245 72.0009C44.6749 71.6591 40.6418 73.3729 39.0012 74.7499C38.2883 75.3505 38.3225 76.8397 38.3566 77.577C38.3908 78.3143 38.3957 78.7977 38.1809 78.9246Z" fill="#455A64"/>
<path d="M37.0188 96.395C37.8489 88.3336 39.343 83.6267 47.2286 80.116C55.1142 76.6053 58.1757 79.5936 59.2938 82.2839C60.7586 86.0534 61.7694 92.9869 61.8768 95.7261C61.9891 98.563 61.8768 108.289 61.8768 109.154C61.8768 110.018 61.7205 111.141 57.0673 114.036C52.4141 116.932 45.9884 120.384 44.0011 121.277C42.5245 121.883 40.8945 122.008 39.343 121.634C39.0314 121.539 38.7277 121.42 38.4348 121.277C35.9788 118.123 36.2571 103.758 37.0188 96.395Z" fill="#455A64"/>
<path d="M55.4023 76.9666C53.3418 75.7606 49.963 74.9647 45.0021 77.1766C36.1351 81.1267 33.8841 86.0729 32.9906 94.7544C32.8295 96.3462 32.5902 98.2407 32.5023 100.277L31.7699 99.8325C31.8724 97.6353 32.0873 95.7554 32.2582 94.0562C33.2347 85.3112 35.8567 80.4773 44.3283 76.703C49.0206 74.6132 52.1016 74.8866 54.1426 75.9168C54.5809 76.2441 55.0014 76.5945 55.4023 76.9666Z" fill="#263238"/>
<path d="M55.7099 77.1912C53.6543 75.9852 50.2706 75.1893 45.3146 77.4012C36.4427 81.3513 34.1917 86.2975 33.2982 94.979C33.1371 96.5708 32.8978 98.4653 32.8099 100.501L32.0775 100.057C32.1801 97.8599 32.3949 95.98 32.5658 94.2808C33.5423 85.5358 36.1644 80.697 44.6359 76.9276C49.3282 74.8378 52.4922 75.1844 54.5332 76.2098C54.9436 76.5146 55.3365 76.8422 55.7099 77.1912Z" fill="#455A64"/>
<path d="M52.8389 84.8571L50.1583 83.324C50.026 83.2497 49.8698 83.2306 49.7235 83.2709C49.5773 83.3111 49.4528 83.4074 49.377 83.5388L46.6281 88.319C46.5515 88.4505 46.53 88.6071 46.5685 88.7543C46.6069 88.9016 46.702 89.0277 46.8331 89.1051L49.4796 90.6481C49.6111 90.7247 49.7676 90.7461 49.9149 90.7077C50.0622 90.6692 50.1883 90.5741 50.2657 90.443L53.0489 85.6335C53.087 85.569 53.1119 85.4975 53.122 85.4232C53.1321 85.3489 53.1272 85.2734 53.1076 85.201C53.088 85.1287 53.0542 85.061 53.008 85.0019C52.9619 84.9428 52.9044 84.8936 52.8389 84.8571Z" fill="#263238"/>
<path d="M49.963 90.1012L52.6045 85.5456C52.6236 85.513 52.6359 85.4769 52.6408 85.4395C52.6457 85.4021 52.643 85.3641 52.633 85.3277C52.623 85.2913 52.6059 85.2573 52.5825 85.2276C52.5592 85.198 52.5301 85.1733 52.4971 85.155L50.0557 83.7683C49.9896 83.7312 49.9115 83.7216 49.8384 83.7417C49.7652 83.7619 49.703 83.81 49.6651 83.8757L47.0529 88.4118C47.0157 88.4779 47.0062 88.556 47.0263 88.6291C47.0464 88.7023 47.0946 88.7645 47.1603 88.8024L49.5577 90.2037C49.5907 90.2246 49.6277 90.2386 49.6663 90.2448C49.705 90.2509 49.7444 90.2491 49.7824 90.2396C49.8203 90.23 49.8559 90.2127 49.8869 90.189C49.9179 90.1652 49.9438 90.1353 49.963 90.1012Z" fill="#455A64"/>
<path d="M50.5294 87.9235C50.5997 87.8809 50.6593 87.8226 50.7034 87.7531C50.7474 87.6837 50.7748 87.6049 50.7833 87.5231V85.3405C50.7833 85.1989 50.671 85.155 50.5294 85.2331C50.459 85.2757 50.3994 85.334 50.3554 85.4035C50.3113 85.4729 50.284 85.5517 50.2755 85.6335V87.8161C50.2755 87.9577 50.3878 88.0016 50.5294 87.9235Z" fill="#37474F"/>
<path d="M49.1133 88.7438C49.1836 88.6999 49.243 88.6406 49.2869 88.5704C49.3309 88.5002 49.3584 88.4209 49.3672 88.3385V86.1608C49.3672 86.0192 49.2501 85.9704 49.1133 86.0534C49.0424 86.0954 48.9825 86.1536 48.9384 86.2231C48.8942 86.2927 48.8672 86.3718 48.8594 86.4538V88.6364C48.8741 88.7731 48.9717 88.8219 49.1133 88.7438Z" fill="#37474F"/>
<path d="M40.6711 103.211C40.6711 103.211 41.9992 104.305 42.9562 108.426C43.9132 112.547 44.4894 117.737 43.4445 118.362C42.3996 118.987 40.8908 117.679 40.5148 117.23C39.7434 116.307 39.9338 106.512 40.6711 103.211Z" fill="#263238"/>
<path d="M40.671 103.211C40.671 103.211 41.9991 104.305 42.9561 108.426C43.9132 112.547 44.4893 117.737 43.4444 118.362L59.5574 108.861C60.6121 108.236 60.8709 102.782 59.9188 98.6606C59.2889 95.9507 58.1317 94.6617 57.4188 94.0953C57.2553 93.9689 57.0576 93.8945 56.8514 93.8814C56.6452 93.8684 56.4398 93.9173 56.2616 94.022L40.671 103.211Z" fill="#37474F"/>
<path d="M57.0869 94.7251C57.8584 95.106 59.1669 96.1558 59.7577 98.9438C59.8574 99.3233 59.8484 99.7232 59.7319 100.098C59.6153 100.473 59.3959 100.807 59.0986 101.063C58.5615 101.444 47.0285 108.001 45.5002 108.914C44.1818 109.7 43.4982 108.656 43.2102 108.001C42.7219 106.839 42.302 105.936 41.9407 105.243C41.6648 104.486 41.234 103.796 40.676 103.216L56.042 94.7691C56.1992 94.6767 56.3768 94.6244 56.559 94.6168C56.7412 94.6091 56.9225 94.6463 57.0869 94.7251Z" fill="#263238"/>
<path d="M33.0003 100.956C33.2235 101.795 33.369 102.653 33.4349 103.519C33.4349 103.695 33.1957 103.787 33.1273 103.787C32.5689 103.675 32.0521 103.412 31.6332 103.026C31.7114 102.288 31.8453 101.556 32.0336 100.838L33.0003 100.956Z" fill="#263238"/>
<path d="M33.4984 100.267C33.4984 100.083 33.4437 99.9023 33.3412 99.7489C33.2387 99.5956 33.0931 99.476 32.9227 99.4054C32.7523 99.3348 32.5647 99.3164 32.3838 99.3524C32.2029 99.3883 32.0368 99.4772 31.9063 99.6076C31.7759 99.738 31.6871 99.9042 31.6511 100.085C31.6151 100.266 31.6336 100.454 31.7042 100.624C31.7748 100.794 31.8943 100.94 32.0477 101.042C32.201 101.145 32.3813 101.2 32.5658 101.2C32.8131 101.2 33.0503 101.101 33.2252 100.926C33.4001 100.752 33.4984 100.514 33.4984 100.267Z" fill="#263238"/>
<path d="M45.1632 71.9569C46.1837 71.8593 47.1456 71.957 47.3897 72.9774C47.6339 73.9979 47.546 74.9305 47.3897 75.0575C46.8727 74.992 46.3902 74.7627 46.0128 74.4032C45.8956 74.1835 46.4474 72.3769 45.5245 72.0009C45.4114 71.9633 45.2919 71.9484 45.173 71.9569H45.1632Z" fill="#263238"/>
<path d="M56.3592 93.9683C56.5171 93.8751 56.6955 93.8224 56.8786 93.8147C57.0618 93.807 57.244 93.8447 57.409 93.9244C58.1805 94.3052 59.4891 95.355 60.0799 98.1431C60.1789 98.5226 60.1697 98.9223 60.0532 99.2968C59.9367 99.6714 59.7176 100.006 59.4207 100.262C58.8836 100.643 47.3555 107.201 45.8272 108.114C44.5089 108.9 43.8204 107.855 43.5323 107.201C41.9356 103.861 40.671 103.211 40.671 103.211L56.3592 93.9683Z" fill="#37474F"/>
<path d="M53.5957 150.774L40.6662 143.313C40.3286 143.092 40.0476 142.795 39.8458 142.446C39.6439 142.096 39.5269 141.704 39.5042 141.302V141.448C39.5261 141.045 39.6428 140.653 39.8447 140.303C40.0466 139.954 40.3281 139.657 40.6662 139.436L66.6668 124.427C67.0259 124.244 67.4233 124.148 67.8264 124.148C68.2296 124.148 68.6269 124.244 68.9861 124.427L81.9156 131.893C82.2542 132.111 82.5361 132.407 82.7381 132.756C82.9401 133.105 83.0565 133.497 83.0777 133.899V133.753C83.0562 134.155 82.9403 134.547 82.7392 134.897C82.5382 135.246 82.2577 135.544 81.9205 135.765L55.9199 150.774C55.5599 150.957 55.1617 151.053 54.7578 151.053C54.3539 151.053 53.9557 150.957 53.5957 150.774Z" fill="#00796B"/>
<path opacity="0.7" d="M53.5957 150.774L40.6662 143.313C40.3286 143.092 40.0476 142.795 39.8458 142.446C39.6439 142.096 39.5269 141.704 39.5042 141.302V141.448C39.5261 141.045 39.6428 140.653 39.8447 140.303C40.0466 139.954 40.3281 139.657 40.6662 139.436L66.6668 124.427C67.0259 124.244 67.4233 124.148 67.8264 124.148C68.2296 124.148 68.6269 124.244 68.9861 124.427L81.9156 131.893C82.2542 132.111 82.5361 132.407 82.7381 132.756C82.9401 133.105 83.0565 133.497 83.0777 133.899V133.753C83.0562 134.155 82.9403 134.547 82.7392 134.897C82.5382 135.246 82.2577 135.544 81.9205 135.765L55.9199 150.774C55.5599 150.957 55.1617 151.053 54.7578 151.053C54.3539 151.053 53.9557 150.957 53.5957 150.774Z" fill="black"/>
<path d="M54.7333 131.302L40.6466 139.436C40.3084 139.657 40.027 139.954 39.8251 140.303C39.6232 140.653 39.5065 141.045 39.4845 141.448V141.302C39.5073 141.704 39.6243 142.096 39.8261 142.446C40.0279 142.795 40.309 143.092 40.6466 143.313L53.5761 150.774C53.9334 150.964 54.3334 151.06 54.7382 151.052L54.7333 131.302Z" fill="#00796B"/>
<path opacity="0.7" d="M54.7333 131.302L40.6466 139.436C40.3084 139.657 40.027 139.954 39.8251 140.303C39.6232 140.653 39.5065 141.045 39.4845 141.448V141.302C39.5073 141.704 39.6243 142.096 39.8261 142.446C40.0279 142.795 40.309 143.092 40.6466 143.313L53.5761 150.774C53.9334 150.964 54.3334 151.06 54.7382 151.052L54.7333 131.302Z" fill="black"/>
<path d="M40.6612 140.779L53.5858 148.245C53.9466 148.425 54.3445 148.519 54.7479 148.519C55.1514 148.519 55.5492 148.425 55.91 148.245L81.9106 133.23C82.5551 132.859 82.5551 132.254 81.9106 131.893L68.9811 124.427C68.6219 124.244 68.2246 124.148 67.8214 124.148C67.4183 124.148 67.021 124.244 66.6618 124.427L40.6612 139.436C40.0167 139.807 40.0167 140.408 40.6612 140.779Z" fill="#00796B"/>
<path opacity="0.5" d="M40.6612 140.779L53.5858 148.245C53.9466 148.425 54.3445 148.519 54.7479 148.519C55.1514 148.519 55.5492 148.425 55.91 148.245L81.9106 133.23C82.5551 132.859 82.5551 132.254 81.9106 131.893L68.9811 124.427C68.6219 124.244 68.2246 124.148 67.8214 124.148C67.4183 124.148 67.021 124.244 66.6618 124.427L40.6612 139.436C40.0167 139.807 40.0167 140.408 40.6612 140.779Z" fill="black"/>
<path d="M40.6614 138.323V139.563L54.0791 147.312C54.2834 147.43 54.5149 147.491 54.7505 147.491C54.9861 147.491 55.2176 147.43 55.4219 147.312L81.9107 132.015V130.735L54.7481 143.919L40.6614 138.323Z" fill="#00796B"/>
<path d="M53.5908 145.789L40.6614 138.323C40.3227 138.103 40.0408 137.806 39.8388 137.457C39.6368 137.107 39.5205 136.715 39.4993 136.311V133.924C39.5205 133.521 39.6368 133.128 39.8388 132.778C40.0408 132.429 40.3227 132.132 40.6614 131.912L66.6619 116.898C67.0211 116.715 67.4184 116.619 67.8216 116.619C68.2247 116.619 68.6221 116.715 68.9812 116.898L81.9107 124.363C82.2494 124.583 82.5313 124.88 82.7332 125.23C82.9352 125.579 83.0516 125.972 83.0728 126.375V128.768C83.0483 129.162 82.9302 129.545 82.7281 129.885C82.526 130.224 82.2457 130.511 81.9107 130.721L55.9101 145.774C55.5521 145.959 55.1554 146.057 54.7522 146.06C54.3491 146.062 53.9511 145.97 53.5908 145.789Z" fill="#00796B"/>
<path opacity="0.6" d="M53.5908 145.789L40.6614 138.323C40.3227 138.103 40.0408 137.806 39.8388 137.457C39.6368 137.107 39.5205 136.715 39.4993 136.311V133.924C39.5205 133.521 39.6368 133.128 39.8388 132.778C40.0408 132.429 40.3227 132.132 40.6614 131.912L66.6619 116.898C67.0211 116.715 67.4184 116.619 67.8216 116.619C68.2247 116.619 68.6221 116.715 68.9812 116.898L81.9107 124.363C82.2494 124.583 82.5313 124.88 82.7332 125.23C82.9352 125.579 83.0516 125.972 83.0728 126.375V128.768C83.0483 129.162 82.9302 129.545 82.7281 129.885C82.526 130.224 82.2457 130.511 81.9107 130.721L55.9101 145.774C55.5521 145.959 55.1554 146.057 54.7522 146.06C54.3491 146.062 53.9511 145.97 53.5908 145.789Z" fill="black"/>
<path d="M54.7333 123.777L40.6466 131.912C40.3079 132.132 40.026 132.429 39.8241 132.778C39.6221 133.128 39.5057 133.521 39.4845 133.924V136.311C39.5057 136.715 39.6221 137.107 39.8241 137.457C40.026 137.806 40.3079 138.103 40.6466 138.323L53.5761 145.789C53.9314 145.98 54.33 146.075 54.7333 146.067V123.777Z" fill="#00796B"/>
<path opacity="0.7" d="M54.7333 123.777L40.6466 131.912C40.3079 132.132 40.026 132.429 39.8241 132.778C39.6221 133.128 39.5057 133.521 39.4845 133.924V136.311C39.5057 136.715 39.6221 137.107 39.8241 137.457C40.026 137.806 40.3079 138.103 40.6466 138.323L53.5761 145.789C53.9314 145.98 54.33 146.075 54.7333 146.067V123.777Z" fill="black"/>
<path d="M40.6612 133.25L53.5858 140.716C53.9459 140.899 54.344 140.994 54.7479 140.994C55.1518 140.994 55.55 140.899 55.91 140.716L81.9106 125.706C82.5551 125.335 82.5551 124.73 81.9106 124.363L68.9811 116.898C68.6219 116.715 68.2246 116.619 67.8214 116.619C67.4183 116.619 67.021 116.715 66.6618 116.898L40.6612 131.912C40.0167 132.283 40.0167 132.884 40.6612 133.25Z" fill="#00796B"/>
<path opacity="0.5" d="M40.6612 133.25L53.5858 140.716C53.9459 140.899 54.344 140.994 54.7479 140.994C55.1518 140.994 55.55 140.899 55.91 140.716L81.9106 125.706C82.5551 125.335 82.5551 124.73 81.9106 124.363L68.9811 116.898C68.6219 116.715 68.2246 116.619 67.8214 116.619C67.4183 116.619 67.021 116.715 66.6618 116.898L40.6612 131.912C40.0167 132.283 40.0167 132.884 40.6612 133.25Z" fill="black"/>
<path d="M58.6933 127.317C57.2626 128.147 57.2626 129.48 58.6933 130.301C59.4977 130.705 60.3856 130.916 61.286 130.916C62.1864 130.916 63.0743 130.705 63.8787 130.301C65.3094 129.48 65.3094 128.147 63.8787 127.317C63.075 126.911 62.1868 126.699 61.286 126.699C60.3852 126.699 59.497 126.911 58.6933 127.317Z" fill="#00796B"/>
<path d="M79.8062 128.191C79.6735 128.278 79.5633 128.395 79.4844 128.532C79.4054 128.67 79.3601 128.824 79.3521 128.982C79.3521 129.275 79.5572 129.397 79.8062 129.256C79.9389 129.169 80.0491 129.052 80.1281 128.915C80.207 128.777 80.2523 128.623 80.2603 128.465C80.2603 128.172 80.0552 128.05 79.8062 128.191Z" fill="#00796B"/>
<path d="M79.8062 129.944C79.6735 130.031 79.5633 130.148 79.4844 130.285C79.4054 130.423 79.3601 130.577 79.3521 130.735C79.3521 131.028 79.5572 131.15 79.8062 131.009C79.9406 130.924 80.0521 130.807 80.1313 130.67C80.2104 130.532 80.2547 130.377 80.2603 130.218C80.2603 129.925 80.0552 129.803 79.8062 129.944Z" fill="#00796B"/>
<path d="M48.1759 160.642C48.1162 160.642 48.0574 160.627 48.005 160.598L35.4759 153.318C35.1515 153.13 34.8823 152.86 34.695 152.535C34.5078 152.211 34.4093 151.842 34.4093 151.467C34.4093 151.093 34.5078 150.724 34.695 150.399C34.8823 150.075 35.1515 149.805 35.4759 149.617L44.6603 144.314C44.7383 144.275 44.8284 144.266 44.9122 144.291C44.996 144.316 45.0671 144.372 45.1109 144.448C45.1546 144.523 45.1677 144.613 45.1475 144.698C45.1273 144.783 45.0753 144.857 45.0021 144.905L35.8226 150.193C35.604 150.323 35.4229 150.507 35.2972 150.728C35.1714 150.949 35.1053 151.199 35.1053 151.453C35.1053 151.707 35.1714 151.957 35.2972 152.178C35.4229 152.398 35.604 152.583 35.8226 152.713L48.3517 159.983C48.3938 160.005 48.4308 160.036 48.4602 160.073C48.4896 160.11 48.5107 160.154 48.5223 160.2C48.5338 160.246 48.5354 160.294 48.5271 160.341C48.5187 160.387 48.5005 160.432 48.4738 160.471C48.4444 160.524 48.4011 160.568 48.3487 160.598C48.2962 160.628 48.2364 160.643 48.1759 160.642Z" fill="#00796B"/>
<path d="M63.8689 153.611L61.1541 142.713C61.1154 142.562 61.0648 142.415 61.0028 142.273L61.7938 142.161L60.0702 141.184C59.7085 140.988 59.3002 140.894 58.889 140.912C58.4778 140.93 58.0792 141.059 57.7362 141.287L46.4327 147.83C45.6566 148.338 45.0113 149.022 44.5489 149.826C44.0866 150.63 43.8203 151.532 43.7716 152.459V165.564C43.7716 166.609 44.0255 167.327 44.548 167.576L46.169 168.513L45.7784 167.478L45.8663 167.444C47.7266 166.555 48.4004 164.934 48.9571 163.328L51.1104 157.102C51.667 155.496 53.0634 153.655 54.206 152.986C55.3486 152.317 56.9794 152.986 57.8192 154.451L58.9032 156.345C59.2341 156.947 59.7329 157.439 60.3387 157.761L61.9891 158.738L61.5692 158.083C61.9124 158.084 62.2495 157.993 62.5457 157.82C63.6736 157.146 64.2791 155.271 63.8689 153.611Z" fill="#00796B"/>
<path opacity="0.7" d="M63.8689 153.611L61.1541 142.713C61.1154 142.562 61.0648 142.415 61.0028 142.273L61.7938 142.161L60.0702 141.184C59.7085 140.988 59.3002 140.894 58.889 140.912C58.4778 140.93 58.0792 141.059 57.7362 141.287L46.4327 147.83C45.6566 148.338 45.0113 149.022 44.5489 149.826C44.0866 150.63 43.8203 151.532 43.7716 152.459V165.564C43.7716 166.609 44.0255 167.327 44.548 167.576L46.169 168.513L45.7784 167.478L45.8663 167.444C47.7266 166.555 48.4004 164.934 48.9571 163.328L51.1104 157.102C51.667 155.496 53.0634 153.655 54.206 152.986C55.3486 152.317 56.9794 152.986 57.8192 154.451L58.9032 156.345C59.2341 156.947 59.7329 157.439 60.3387 157.761L61.9891 158.738L61.5692 158.083C61.9124 158.084 62.2495 157.993 62.5457 157.82C63.6736 157.146 64.2791 155.271 63.8689 153.611Z" fill="black"/>
<path d="M61.0028 142.273L61.7939 142.161L60.0702 141.184C59.7086 140.988 59.3002 140.894 58.889 140.912C58.4778 140.93 58.0793 141.059 57.7363 141.287L46.4328 147.83C45.8014 148.223 45.2619 148.748 44.8508 149.368L47.5412 151.008L61.3007 143.235L61.1689 142.713C61.1254 142.562 61.0699 142.415 61.0028 142.273Z" fill="#00796B"/>
<path opacity="0.5" d="M61.0028 142.273L61.7939 142.161L60.0702 141.184C59.7086 140.988 59.3002 140.894 58.889 140.912C58.4778 140.93 58.0793 141.059 57.7363 141.287L46.4328 147.83C45.8014 148.223 45.2619 148.748 44.8508 149.368L47.5412 151.008L61.3007 143.235L61.1689 142.713C61.1254 142.562 61.0699 142.415 61.0028 142.273Z" fill="black"/>
<path d="M64.2694 158.835C63.1121 159.504 61.4862 158.835 60.6415 157.371L59.5624 155.476C58.7177 154.011 57.121 153.342 55.9443 154.011C54.7675 154.68 53.4053 156.516 52.8486 158.127L50.7002 164.348C50.1436 165.954 49.4649 167.576 47.6046 168.464C46.1984 169.138 45.5197 168.288 45.5197 166.589V153.474C45.57 152.548 45.8376 151.647 46.3007 150.844C46.7639 150.041 47.4096 149.358 48.1856 148.85L59.5087 142.283C59.8137 142.069 60.1682 141.937 60.5386 141.899C60.909 141.86 61.2831 141.917 61.6254 142.064C61.9677 142.211 62.2668 142.442 62.4945 142.737C62.7222 143.032 62.871 143.38 62.9266 143.748L65.6414 154.651C66.0418 156.282 65.4314 158.167 64.2694 158.835Z" fill="#00796B"/>
<path opacity="0.6" d="M64.2694 158.835C63.1121 159.504 61.4862 158.835 60.6415 157.371L59.5624 155.476C58.7177 154.011 57.121 153.342 55.9443 154.011C54.7675 154.68 53.4053 156.516 52.8486 158.127L50.7002 164.348C50.1436 165.954 49.4649 167.576 47.6046 168.464C46.1984 169.138 45.5197 168.288 45.5197 166.589V153.474C45.57 152.548 45.8376 151.647 46.3007 150.844C46.7639 150.041 47.4096 149.358 48.1856 148.85L59.5087 142.283C59.8137 142.069 60.1682 141.937 60.5386 141.899C60.909 141.86 61.2831 141.917 61.6254 142.064C61.9677 142.211 62.2668 142.442 62.4945 142.737C62.7222 143.032 62.871 143.38 62.9266 143.748L65.6414 154.651C66.0418 156.282 65.4314 158.167 64.2694 158.835Z" fill="black"/>
<path d="M59.8798 146.057L60.163 147.664L61.4178 146.863L61.6962 148.469L60.4462 149.275L60.7294 150.881L59.4794 151.682L59.1962 150.076L57.9462 150.881L57.663 149.27L58.913 148.469L58.6298 146.863L59.8798 146.057Z" fill="#263238"/>
<path d="M60.2411 146.248L60.5243 147.854L61.7743 147.053L62.0575 148.66L60.8075 149.465L61.0907 151.072L59.8407 151.873L59.5575 150.266L58.3076 151.067L58.0244 149.461L59.2743 148.66L58.9911 147.053L60.2411 146.248Z" fill="#00796B"/>
<path d="M50.4073 151.746C50.4407 151.972 50.413 152.203 50.3272 152.415C50.2413 152.627 50.1004 152.812 49.919 152.952C49.5723 153.171 49.2305 152.991 49.1524 152.546C49.1174 152.32 49.1443 152.088 49.2303 151.876C49.3163 151.664 49.4581 151.479 49.6407 151.34C49.9825 151.121 50.3389 151.301 50.4073 151.746Z" fill="#263238"/>
<path d="M50.9737 154.959C51.0087 155.185 50.9818 155.417 50.8958 155.629C50.8099 155.841 50.6681 156.026 50.4854 156.165C50.1388 156.384 49.797 156.204 49.7188 155.764C49.6833 155.538 49.71 155.306 49.796 155.094C49.882 154.881 50.0241 154.696 50.2071 154.558C50.5489 154.334 50.8956 154.514 50.9737 154.959Z" fill="#263238"/>
<path d="M51.9404 152.546C51.976 152.773 51.9493 153.005 51.8633 153.217C51.7773 153.43 51.6352 153.615 51.4522 153.753C51.1055 153.977 50.7637 153.796 50.6856 153.352C50.65 153.126 50.6767 152.894 50.7627 152.682C50.8487 152.469 50.9908 152.284 51.1739 152.146C51.5205 151.926 51.8623 152.102 51.9404 152.546Z" fill="#263238"/>
<path d="M49.4405 154.153C49.4761 154.379 49.4494 154.611 49.3634 154.824C49.2774 155.036 49.1353 155.221 48.9523 155.359C48.6056 155.584 48.2638 155.403 48.1857 154.959C48.1507 154.732 48.1776 154.501 48.2636 154.288C48.3495 154.076 48.4913 153.891 48.6739 153.753C49.0206 153.533 49.3624 153.709 49.4405 154.153Z" fill="#263238"/>
<path d="M50.4317 151.76C50.4667 151.987 50.4398 152.218 50.3538 152.431C50.2679 152.643 50.1261 152.828 49.9434 152.966C49.5968 153.186 49.255 153.01 49.1768 152.566C49.1413 152.34 49.168 152.108 49.254 151.895C49.34 151.683 49.4821 151.498 49.6651 151.36C50.0118 151.135 50.3389 151.316 50.4317 151.76Z" fill="#263238"/>
<path d="M50.9981 154.973C51.0336 155.2 51.0069 155.431 50.9209 155.644C50.8349 155.856 50.6928 156.041 50.5098 156.179C50.1631 156.404 49.8213 156.223 49.7432 155.779C49.7077 155.552 49.7343 155.321 49.8203 155.108C49.9063 154.896 50.0484 154.711 50.2315 154.573C50.5781 154.353 50.9199 154.529 50.9981 154.973Z" fill="#263238"/>
<path d="M51.9649 152.566C51.9995 152.792 51.9723 153.022 51.8864 153.234C51.8004 153.445 51.6588 153.63 51.4766 153.767C51.1348 153.992 50.7881 153.811 50.71 153.367C50.6761 153.14 50.7035 152.909 50.7894 152.697C50.8752 152.485 51.0164 152.3 51.1983 152.161C51.5449 151.941 51.8867 152.122 51.9649 152.566Z" fill="#263238"/>
<path d="M49.4649 154.172C49.4999 154.399 49.473 154.63 49.387 154.843C49.3011 155.055 49.1593 155.24 48.9766 155.378C48.6349 155.598 48.2882 155.418 48.2101 154.973C48.1767 154.747 48.2043 154.516 48.2901 154.304C48.376 154.092 48.5169 153.907 48.6983 153.767C49.045 153.547 49.3868 153.728 49.4649 154.172Z" fill="#263238"/>
<path d="M50.4561 151.775C50.4916 152.001 50.4649 152.233 50.3789 152.446C50.2929 152.658 50.1508 152.843 49.9678 152.981C49.626 153.206 49.2793 153.025 49.2012 152.581C49.1673 152.354 49.1947 152.123 49.2806 151.911C49.3665 151.699 49.5077 151.514 49.6895 151.375C50.0362 151.155 50.378 151.331 50.4561 151.775Z" fill="#263238"/>
<path d="M51.0225 154.993C51.0571 155.218 51.03 155.449 50.944 155.661C50.858 155.872 50.7164 156.056 50.5342 156.194C50.1924 156.419 49.8457 156.238 49.7676 155.794C49.7337 155.567 49.7611 155.336 49.847 155.124C49.9329 154.912 50.0741 154.726 50.2559 154.587C50.6026 154.368 50.9444 154.548 51.0225 154.993Z" fill="#263238"/>
<path d="M51.9942 152.581C52.0281 152.807 52.0007 153.038 51.9149 153.25C51.829 153.463 51.6878 153.648 51.5059 153.787C51.1593 154.006 50.8175 153.826 50.7393 153.386C50.7038 153.16 50.7305 152.928 50.8165 152.716C50.9025 152.503 51.0446 152.318 51.2276 152.18C51.5694 151.956 51.9161 152.136 51.9942 152.581Z" fill="#263238"/>
<path d="M49.4942 154.187C49.5281 154.413 49.5007 154.645 49.4148 154.857C49.3289 155.069 49.1877 155.254 49.0059 155.393C48.6592 155.613 48.3174 155.437 48.2393 154.993C48.2038 154.766 48.2304 154.535 48.3164 154.322C48.4024 154.11 48.5445 153.925 48.7276 153.787C49.0694 153.562 49.416 153.743 49.4942 154.187Z" fill="#263238"/>
<path d="M50.4854 151.795C50.5193 152.021 50.4919 152.252 50.406 152.464C50.3201 152.676 50.1789 152.862 49.9971 153.001C49.6504 153.22 49.3086 153.04 49.2305 152.595C49.1959 152.37 49.223 152.139 49.309 151.927C49.3949 151.716 49.5365 151.532 49.7188 151.394C50.0606 151.17 50.4072 151.365 50.4854 151.795Z" fill="#263238"/>
<path d="M51.0518 155.007C51.0857 155.234 51.0583 155.465 50.9724 155.677C50.8865 155.889 50.7453 156.074 50.5635 156.213C50.2168 156.433 49.875 156.257 49.7969 155.813C49.7614 155.587 49.788 155.355 49.874 155.142C49.96 154.93 50.1022 154.745 50.2852 154.607C50.627 154.382 50.9736 154.563 51.0518 155.007Z" fill="#263238"/>
<path d="M52.0185 152.595C52.0541 152.822 52.0274 153.054 51.9414 153.266C51.8554 153.478 51.7133 153.663 51.5303 153.801C51.1836 154.026 50.8418 153.845 50.7637 153.401C50.7287 153.175 50.7556 152.943 50.8416 152.731C50.9275 152.518 51.0693 152.333 51.252 152.195C51.5986 151.975 51.9404 152.151 52.0185 152.595Z" fill="#263238"/>
<path d="M49.5186 154.202C49.5541 154.428 49.5275 154.66 49.4415 154.872C49.3555 155.085 49.2134 155.27 49.0303 155.408C48.6837 155.632 48.3419 155.452 48.2637 155.007C48.2287 154.781 48.2557 154.549 48.3416 154.337C48.4276 154.125 48.5694 153.94 48.752 153.801C49.0987 153.582 49.4405 153.757 49.5186 154.202Z" fill="#263238"/>
<path d="M50.5098 151.809C50.5448 152.036 50.5179 152.267 50.432 152.48C50.346 152.692 50.2042 152.877 50.0216 153.015C49.6749 153.235 49.3331 153.059 49.255 152.615C49.2194 152.388 49.2461 152.157 49.3321 151.944C49.4181 151.732 49.5602 151.547 49.7432 151.409C50.0899 151.184 50.4317 151.365 50.5098 151.809Z" fill="#263238"/>
<path d="M51.0762 155.022C51.1117 155.248 51.085 155.48 50.999 155.693C50.913 155.905 50.7709 156.09 50.5879 156.228C50.2412 156.453 49.8994 156.272 49.8213 155.828C49.7863 155.601 49.8132 155.37 49.8992 155.157C49.9851 154.945 50.1269 154.76 50.3096 154.622C50.6562 154.402 50.998 154.578 51.0762 155.022Z" fill="#263238"/>
<path d="M52.043 152.615C52.0775 152.841 52.0503 153.073 51.9644 153.285C51.8785 153.497 51.737 153.682 51.5547 153.821C51.2081 154.041 50.8663 153.86 50.7882 153.416C50.7532 153.189 50.7801 152.958 50.866 152.745C50.952 152.533 51.0938 152.348 51.2764 152.21C51.6231 151.99 51.9649 152.171 52.043 152.615Z" fill="#263238"/>
<path d="M49.5431 154.221C49.5781 154.448 49.5511 154.679 49.4652 154.892C49.3792 155.104 49.2374 155.289 49.0548 155.427C48.713 155.647 48.3663 155.466 48.2882 155.022C48.2547 154.796 48.2823 154.566 48.3682 154.355C48.4541 154.143 48.5951 153.959 48.7765 153.821C49.1232 153.596 49.4649 153.777 49.5431 154.221Z" fill="#263238"/>
<path d="M50.5342 151.824C50.5697 152.05 50.5431 152.282 50.4571 152.494C50.3711 152.707 50.2289 152.892 50.0459 153.03C49.7041 153.254 49.3575 153.074 49.2793 152.629C49.2454 152.403 49.2728 152.172 49.3587 151.96C49.4446 151.748 49.5858 151.562 49.7676 151.423C50.1143 151.204 50.4561 151.365 50.5342 151.824Z" fill="#263238"/>
<path d="M51.1005 155.042C51.135 155.268 51.1078 155.499 51.0219 155.712C50.936 155.924 50.7945 156.109 50.6123 156.248C50.2705 156.467 49.9238 156.287 49.8457 155.842C49.8118 155.616 49.8392 155.385 49.925 155.173C50.0109 154.96 50.1521 154.775 50.334 154.636C50.6806 154.417 51.0224 154.597 51.1005 155.042Z" fill="#263238"/>
<path d="M52.0674 152.629C52.1024 152.856 52.0755 153.087 51.9895 153.3C51.9036 153.512 51.7618 153.697 51.5791 153.836C51.2373 154.055 50.8907 153.879 50.8125 153.435C50.7781 153.209 50.8053 152.977 50.8912 152.765C50.9771 152.553 51.1186 152.368 51.3008 152.229C51.6475 152.004 51.9893 152.185 52.0674 152.629Z" fill="#263238"/>
<path d="M49.5723 154.236C49.6062 154.462 49.5788 154.694 49.4929 154.906C49.407 155.118 49.2658 155.303 49.084 155.442C48.7373 155.662 48.3955 155.486 48.3174 155.042C48.2819 154.815 48.3085 154.583 48.3945 154.371C48.4806 154.159 48.6227 153.973 48.8057 153.836C49.1475 153.611 49.4941 153.806 49.5723 154.236Z" fill="#263238"/>
<path d="M50.5635 151.853C50.5974 152.079 50.57 152.311 50.4841 152.523C50.3982 152.735 50.257 152.92 50.0752 153.059C49.7285 153.279 49.3867 153.098 49.3086 152.659C49.2731 152.432 49.2998 152.201 49.3858 151.988C49.4718 151.776 49.6139 151.591 49.7969 151.453C50.1387 151.218 50.4854 151.399 50.5635 151.853Z" fill="#263238"/>
<path d="M51.1299 155.056C51.1638 155.283 51.1364 155.514 51.0505 155.726C50.9647 155.938 50.8234 156.123 50.6416 156.262C50.2949 156.482 49.9532 156.306 49.875 155.862C49.8395 155.635 49.8662 155.404 49.9522 155.191C50.0382 154.979 50.1803 154.794 50.3633 154.656C50.7051 154.431 51.0518 154.612 51.1299 155.056Z" fill="#263238"/>
<path d="M52.0967 152.644C52.1311 152.87 52.104 153.102 52.018 153.314C51.9321 153.526 51.7906 153.712 51.6084 153.85C51.2617 154.075 50.9199 153.894 50.8418 153.45C50.8068 153.223 50.8337 152.992 50.9197 152.779C51.0057 152.567 51.1475 152.382 51.3301 152.244C51.6719 152.024 52.0185 152.2 52.0967 152.644Z" fill="#263238"/>
<path d="M49.5967 154.251C49.6323 154.477 49.6056 154.709 49.5196 154.921C49.4336 155.134 49.2915 155.319 49.1084 155.457C48.7618 155.681 48.42 155.501 48.3419 155.056C48.3069 154.83 48.3338 154.598 48.4197 154.386C48.5057 154.174 48.6475 153.988 48.8301 153.85C49.1768 153.63 49.5186 153.806 49.5967 154.251Z" fill="#263238"/>
<path d="M50.5879 151.853C50.6234 152.08 50.5968 152.311 50.5108 152.524C50.4248 152.736 50.2827 152.921 50.0996 153.059C49.753 153.284 49.4112 153.103 49.333 152.659C49.2975 152.432 49.3242 152.201 49.4102 151.988C49.4962 151.776 49.6383 151.591 49.8213 151.453C50.168 151.233 50.5098 151.414 50.5879 151.853Z" fill="#263238"/>
<path d="M51.1543 155.071C51.1898 155.297 51.1631 155.529 51.0771 155.741C50.9911 155.954 50.849 156.139 50.666 156.277C50.3193 156.501 49.9775 156.321 49.8994 155.877C49.8644 155.65 49.8913 155.419 49.9773 155.206C50.0633 154.994 50.2051 154.809 50.3877 154.67C50.7344 154.451 51.0762 154.627 51.1543 155.071Z" fill="#263238"/>
<path d="M52.1212 152.664C52.1561 152.89 52.1292 153.122 52.0433 153.334C51.9573 153.546 51.8155 153.731 51.6329 153.87C51.2862 154.089 50.9444 153.909 50.8663 153.464C50.8317 153.239 50.8588 153.008 50.9448 152.797C51.0307 152.585 51.1723 152.401 51.3546 152.263C51.7012 152.039 52.043 152.219 52.1212 152.664Z" fill="#263238"/>
<path d="M49.6212 154.295C49.6562 154.521 49.6292 154.753 49.5433 154.965C49.4573 155.177 49.3155 155.362 49.1329 155.501C48.7911 155.72 48.4444 155.54 48.3663 155.1C48.3308 154.874 48.3574 154.642 48.4434 154.43C48.5294 154.217 48.6715 154.032 48.8546 153.894C49.2013 153.645 49.543 153.806 49.6212 154.295Z" fill="#263238"/>
<path d="M50.6123 151.878C50.6469 152.103 50.6198 152.334 50.5338 152.545C50.4478 152.757 50.3062 152.941 50.124 153.079C49.7773 153.303 49.4356 153.123 49.3574 152.678C49.3224 152.452 49.3493 152.22 49.4353 152.008C49.5213 151.796 49.6631 151.611 49.8457 151.472C50.1924 151.253 50.5342 151.433 50.6123 151.878Z" fill="#263238"/>
<path d="M51.1788 155.09C51.2138 155.317 51.1869 155.548 51.1009 155.761C51.0149 155.973 50.8731 156.158 50.6905 156.296C50.3487 156.516 50.002 156.335 49.9239 155.891C49.8893 155.666 49.9164 155.435 50.0024 155.223C50.0884 155.012 50.23 154.828 50.4122 154.69C50.7589 154.465 51.1007 154.646 51.1788 155.09Z" fill="#263238"/>
<path d="M52.1455 152.678C52.1805 152.905 52.1536 153.136 52.0676 153.349C51.9816 153.561 51.8398 153.746 51.6572 153.884C51.3154 154.104 50.9687 153.928 50.8906 153.484C50.8562 153.258 50.8833 153.026 50.9692 152.814C51.0552 152.602 51.1967 152.417 51.3789 152.278C51.7256 152.053 52.0673 152.234 52.1455 152.678Z" fill="#263238"/>
<path d="M49.6455 154.294C49.6811 154.521 49.6544 154.753 49.5684 154.965C49.4824 155.178 49.3403 155.363 49.1573 155.501C48.8155 155.725 48.4737 155.544 48.3907 155.1C48.3562 154.874 48.3834 154.642 48.4693 154.43C48.5552 154.218 48.6967 154.033 48.8789 153.894C49.2256 153.66 49.5674 153.84 49.6455 154.294Z" fill="#263238"/>
<path d="M50.6368 151.892C50.6717 152.119 50.6448 152.35 50.5589 152.563C50.4729 152.775 50.3311 152.96 50.1485 153.098C49.8067 153.318 49.46 153.137 49.3819 152.698C49.3474 152.472 49.3746 152.24 49.4605 152.028C49.5464 151.816 49.6879 151.63 49.8702 151.492C50.2168 151.267 50.5586 151.448 50.6368 151.892Z" fill="#263238"/>
<path d="M51.2031 155.105C51.2381 155.331 51.2112 155.563 51.1252 155.775C51.0393 155.988 50.8975 156.173 50.7149 156.311C50.3731 156.531 50.0313 156.355 49.9532 155.911C49.9176 155.684 49.9443 155.452 50.0303 155.24C50.1163 155.028 50.2584 154.843 50.4414 154.705C50.7832 154.48 51.125 154.661 51.2031 155.105Z" fill="#263238"/>
<path d="M52.1748 152.693C52.2093 152.919 52.1821 153.151 52.0962 153.363C52.0103 153.575 51.8688 153.76 51.6866 153.899C51.3399 154.124 50.9981 153.943 50.92 153.499C50.885 153.272 50.9119 153.041 50.9979 152.828C51.0838 152.616 51.2256 152.431 51.4083 152.293C51.7501 152.073 52.0967 152.254 52.1748 152.693Z" fill="#263238"/>
<path d="M49.6748 154.295C49.7084 154.52 49.6808 154.751 49.5949 154.962C49.509 155.173 49.368 155.357 49.1866 155.496C48.8399 155.72 48.4981 155.54 48.42 155.095C48.385 154.869 48.4119 154.637 48.4979 154.425C48.5838 154.213 48.7256 154.028 48.9083 153.889C49.2501 153.679 49.5967 153.86 49.6748 154.295Z" fill="#263238"/>
<path d="M50.6661 151.907C50.7005 152.133 50.6734 152.365 50.5874 152.577C50.5015 152.789 50.36 152.974 50.1778 153.113C49.8311 153.337 49.4893 153.157 49.4112 152.713C49.3762 152.486 49.4031 152.254 49.4891 152.042C49.575 151.83 49.7169 151.645 49.8995 151.506C50.2413 151.287 50.5879 151.463 50.6661 151.907Z" fill="#263238"/>
<path d="M51.2325 155.12C51.2669 155.346 51.2398 155.577 51.1538 155.79C51.0679 156.002 50.9264 156.187 50.7442 156.326C50.3975 156.55 50.0557 156.37 49.9776 155.925C49.9426 155.699 49.9695 155.467 50.0555 155.255C50.1415 155.043 50.2833 154.858 50.4659 154.719C50.8272 154.5 51.1543 154.68 51.2325 155.12Z" fill="#263238"/>
<path d="M52.1992 152.712C52.2342 152.939 52.2073 153.17 52.1213 153.383C52.0354 153.595 51.8936 153.78 51.711 153.919C51.3643 154.138 51.0225 153.958 50.9444 153.518C50.9088 153.292 50.9355 153.06 51.0215 152.848C51.1075 152.635 51.2496 152.45 51.4326 152.312C51.8037 152.088 52.1211 152.268 52.1992 152.712Z" fill="#263238"/>
<path d="M49.6993 154.319C49.7343 154.545 49.7074 154.777 49.6214 154.989C49.5354 155.202 49.3936 155.387 49.211 155.525C48.8643 155.745 48.5226 155.564 48.4444 155.125C48.4089 154.898 48.4356 154.666 48.5216 154.454C48.6076 154.242 48.7497 154.056 48.9327 153.919C49.2794 153.694 49.6212 153.875 49.6993 154.319Z" fill="#263238"/>
<path d="M50.6905 151.926C50.7249 152.153 50.6978 152.384 50.6119 152.596C50.5259 152.809 50.3844 152.994 50.2022 153.132C49.8555 153.352 49.5137 153.171 49.4356 152.727C49.4006 152.501 49.4275 152.269 49.5135 152.057C49.5995 151.844 49.7413 151.659 49.9239 151.521C50.2706 151.301 50.6124 151.482 50.6905 151.926Z" fill="#263238"/>
<path d="M51.2569 155.139C51.2918 155.366 51.2649 155.597 51.179 155.81C51.093 156.022 50.9512 156.207 50.7686 156.345C50.4219 156.565 50.0801 156.384 50.002 155.945C49.9665 155.718 49.9931 155.487 50.0791 155.274C50.1651 155.062 50.3072 154.877 50.4903 154.739C50.8272 154.514 51.1787 154.695 51.2569 155.139Z" fill="#263238"/>
<path d="M52.2237 152.727C52.2592 152.954 52.2325 153.185 52.1465 153.398C52.0605 153.61 51.9184 153.795 51.7354 153.933C51.3936 154.158 51.0469 153.977 50.9688 153.533C50.9343 153.306 50.9615 153.075 51.0474 152.863C51.1333 152.651 51.2749 152.465 51.4571 152.327C51.8037 152.102 52.1455 152.283 52.2237 152.727Z" fill="#263238"/>
<path d="M49.7237 154.334C49.7592 154.56 49.7325 154.792 49.6465 155.004C49.5605 155.217 49.4184 155.402 49.2354 155.54C48.8936 155.764 48.5469 155.584 48.4688 155.139C48.4349 154.913 48.4623 154.682 48.5481 154.469C48.634 154.257 48.7752 154.072 48.9571 153.933C49.3037 153.713 49.6455 153.889 49.7237 154.334Z" fill="#263238"/>
<path d="M59.8797 146.057L60.2411 146.248L58.9911 147.053L58.6298 146.863L59.8797 146.057Z" fill="#263238"/>
<path d="M58.913 148.469L59.2743 148.66L58.0243 149.461L57.663 149.27L58.913 148.469Z" fill="#263238"/>
<path d="M60.5243 147.854L60.4559 147.478L61.4178 146.863L61.7743 147.053L60.5243 147.854Z" fill="#263238"/>
<path d="M57.663 149.27L58.0243 149.461L58.3075 151.067L57.9462 150.881L57.663 149.27Z" fill="#263238"/>
<path d="M59.4794 151.682L59.8407 151.873L59.5575 150.266L59.2645 150.457L59.4794 151.682Z" fill="#263238"/>
<path d="M50.6905 151.926C50.7249 152.153 50.6978 152.384 50.6119 152.596C50.5259 152.809 50.3844 152.994 50.2022 153.132C49.8555 153.352 49.5137 153.171 49.4356 152.727C49.4006 152.501 49.4275 152.269 49.5135 152.057C49.5995 151.844 49.7413 151.659 49.9239 151.521C50.2706 151.301 50.6124 151.482 50.6905 151.926Z" fill="#00796B"/>
<path d="M51.2569 155.139C51.2918 155.366 51.2649 155.597 51.179 155.81C51.093 156.022 50.9512 156.207 50.7686 156.345C50.4219 156.565 50.0801 156.384 50.002 155.945C49.9665 155.718 49.9931 155.487 50.0791 155.274C50.1651 155.062 50.3072 154.877 50.4903 154.739C50.8272 154.514 51.1787 154.695 51.2569 155.139Z" fill="#00796B"/>
<path d="M52.2237 152.727C52.2592 152.954 52.2325 153.185 52.1465 153.398C52.0605 153.61 51.9184 153.795 51.7354 153.933C51.3936 154.158 51.0469 153.977 50.9688 153.533C50.9343 153.306 50.9615 153.075 51.0474 152.863C51.1333 152.651 51.2749 152.465 51.4571 152.327C51.8037 152.102 52.1455 152.283 52.2237 152.727Z" fill="#00796B"/>
<path d="M49.7237 154.334C49.7592 154.56 49.7325 154.792 49.6465 155.004C49.5605 155.217 49.4184 155.402 49.2354 155.54C48.8936 155.764 48.5469 155.584 48.4688 155.139C48.4349 154.913 48.4623 154.682 48.5481 154.469C48.634 154.257 48.7752 154.072 48.9571 153.933C49.3037 153.713 49.6455 153.889 49.7237 154.334Z" fill="#00796B"/>
<path d="M62.702 15.4735L57.4531 18.5008C57.4822 18.2708 57.4968 18.0392 57.497 17.8074V16.2889C57.497 13.5839 55.5976 12.4853 53.2588 13.8475C52.2477 14.467 51.3844 15.3003 50.7296 16.2889C50.3438 12.871 47.6778 11.621 44.4357 13.4911C40.9299 15.5174 38.0882 20.4392 38.0882 24.4821V26.7575C38.0658 27.6657 38.2494 28.5671 38.6253 29.3942L34.265 31.9088C33.5802 32.3559 33.0103 32.958 32.6015 33.6663C32.1926 34.3746 31.9562 35.1692 31.9115 35.9859C31.9115 37.4849 32.9662 38.0952 34.265 37.3433L62.702 20.9275C63.3868 20.4803 63.9566 19.8782 64.3655 19.1699C64.7744 18.4616 65.0107 17.667 65.0555 16.8504C65.0555 15.3319 64.0106 14.7216 62.702 15.4735Z" fill="#F0F0F0"/>
<path d="M171.758 151.907L170.781 151.355L171.475 151.043C171.475 151.043 172.017 151.189 172.031 151.213C172.027 151.34 172.014 151.465 171.992 151.589L171.758 151.907Z" fill="#E0E0E0"/>
<path d="M171.758 151.907L170.781 151.355L171.475 151.043C171.475 151.043 172.017 151.189 172.031 151.213C172.027 151.34 172.014 151.465 171.992 151.589L171.758 151.907Z" fill="#00796B"/>
<path opacity="0.1" d="M171.758 151.907L170.781 151.355L171.475 151.043C171.475 151.043 172.017 151.189 172.031 151.213C172.027 151.34 172.014 151.465 171.992 151.589L171.758 151.907Z" fill="white"/>
<path d="M135.42 170.212C135.853 170.431 136.332 170.546 136.817 170.546C137.302 170.546 137.781 170.431 138.213 170.212L169.531 152.146L122.657 125.076L121.563 124.446L90.2454 142.512C89.4788 142.957 89.4788 143.684 90.2454 144.124L135.42 170.212Z" fill="#00796B"/>
<path opacity="0.8" d="M135.42 170.212C135.853 170.431 136.332 170.546 136.817 170.546C137.302 170.546 137.781 170.431 138.213 170.212L169.531 152.146L122.657 125.076L121.563 124.446L90.2454 142.512C89.4788 142.957 89.4788 143.684 90.2454 144.124L135.42 170.212Z" fill="white"/>
<path d="M147.183 136.053L158.106 142.337L165.176 138.255L173.384 143.011V148.923C173.384 149.641 172.578 150.662 172.285 150.496C171.743 150.627 171.216 150.813 170.713 151.052C169.892 151.519 169.129 152.083 168.442 152.732L143.345 138.245L147.183 136.053Z" fill="#E0E0E0"/>
<path d="M147.183 136.053L158.106 142.337L165.176 138.255L173.384 143.011V148.923C173.384 149.641 172.578 150.662 172.285 150.496C171.743 150.627 171.216 150.813 170.713 151.052C169.892 151.519 169.129 152.083 168.442 152.732L143.345 138.245L147.183 136.053Z" fill="#00796B"/>
<path opacity="0.1" d="M147.183 136.053L158.106 142.337L165.176 138.255L173.384 143.011V148.923C173.384 149.641 172.578 150.662 172.285 150.496C171.743 150.627 171.216 150.813 170.713 151.052C169.892 151.519 169.129 152.083 168.442 152.732L143.345 138.245L147.183 136.053Z" fill="white"/>
<path d="M138.228 170.207L140.118 169.114L168.472 152.747C168.493 152.377 168.628 152.022 168.857 151.731C169.192 151.286 169.614 150.914 170.098 150.637C170.502 150.39 170.962 150.247 171.436 150.222C171.752 150.218 172.062 150.319 172.314 150.51C172.684 149.786 172.863 148.979 172.837 148.167H173.911C173.911 149.631 173.423 151.135 172.822 151.477L172.28 151.795C171.973 151.97 171.728 151.98 171.728 151.795V151.506C171.728 151.184 171.24 151.199 170.635 151.55C170.029 151.902 169.546 152.439 169.546 152.761V153.054C169.546 153.22 169.126 153.591 168.618 153.884L141.197 169.719L138.228 171.428C137.798 171.65 137.32 171.763 136.836 171.755V170.515C137.319 170.535 137.799 170.429 138.228 170.207Z" fill="#00796B"/>
<path opacity="0.6" d="M138.228 170.207L140.118 169.114L168.472 152.747C168.493 152.377 168.628 152.022 168.857 151.731C169.192 151.286 169.614 150.914 170.098 150.637C170.502 150.39 170.962 150.247 171.436 150.222C171.752 150.218 172.062 150.319 172.314 150.51C172.684 149.786 172.863 148.979 172.837 148.167H173.911C173.911 149.631 173.423 151.135 172.822 151.477L172.28 151.795C171.973 151.97 171.728 151.98 171.728 151.795V151.506C171.728 151.184 171.24 151.199 170.635 151.55C170.029 151.902 169.546 152.439 169.546 152.761V153.054C169.546 153.22 169.126 153.591 168.618 153.884L141.197 169.719L138.228 171.428C137.798 171.65 137.32 171.763 136.836 171.755V170.515C137.319 170.535 137.799 170.429 138.228 170.207Z" fill="white"/>
<path d="M89.6595 143.294V144.558C89.6756 144.727 89.7354 144.889 89.833 145.028C89.9306 145.166 90.0626 145.277 90.2161 145.349L132.437 169.724L135.401 171.433C135.831 171.655 136.309 171.768 136.793 171.76V170.52C136.306 170.531 135.824 170.415 135.396 170.183L133.511 169.094L90.2161 144.09C90.062 144.017 89.9295 143.905 89.8318 143.766C89.7342 143.626 89.6748 143.463 89.6595 143.294Z" fill="#00796B"/>
<path opacity="0.1" d="M89.6595 143.294V144.558C89.6756 144.727 89.7354 144.889 89.833 145.028C89.9306 145.166 90.0626 145.277 90.2161 145.349L132.437 169.724L135.401 171.433C135.831 171.655 136.309 171.768 136.793 171.76V170.52C136.306 170.531 135.824 170.415 135.396 170.183L133.511 169.094L90.2161 144.09C90.062 144.017 89.9295 143.905 89.8318 143.766C89.7342 143.626 89.6748 143.463 89.6595 143.294Z" fill="white"/>
<path d="M136.817 162.185V169.431C137.14 169.441 137.46 169.365 137.745 169.211L141.163 167.229L167.329 152.122V144.563L136.817 162.185Z" fill="white"/>
<path d="M91.0218 136.648V142.219C91.0389 142.542 91.1319 142.856 91.2931 143.136C91.4542 143.416 91.6791 143.654 91.9495 143.831L132.476 167.219L135.894 169.201C136.179 169.354 136.499 169.43 136.822 169.421V162.952L91.0218 136.648Z" fill="#F0F0F0"/>
<path d="M167.349 152.112C167.375 151.741 167.513 151.387 167.744 151.096C168.081 150.654 168.502 150.284 168.984 150.007C169.386 149.756 169.845 149.612 170.317 149.588C170.635 149.585 170.946 149.686 171.201 149.876V142.332L167.358 144.553L167.349 152.112Z" fill="#455A64"/>
<path d="M168.887 150.071C168.442 150.334 168.053 150.682 167.744 151.096C167.513 151.387 167.375 151.741 167.349 152.112V144.905H168.882L168.887 150.071Z" fill="#F5F5F5"/>
<path d="M122.647 116.209L169.522 143.279V143.909C169.522 144.256 170.01 144.397 170.61 144.036C171.211 143.675 171.704 143.255 171.704 142.654L171.763 142.058L123.995 114.481L123.804 114.368C123.755 114.457 123.726 114.555 123.721 114.656V114.949C123.731 115.311 123.248 115.872 122.647 116.209Z" fill="#00796B"/>
<path opacity="0.6" d="M122.647 116.209L169.522 143.279V143.909C169.522 144.256 170.01 144.397 170.61 144.036C171.211 143.675 171.704 143.255 171.704 142.654L171.763 142.058L123.995 114.481L123.804 114.368C123.755 114.457 123.726 114.555 123.721 114.656V114.949C123.731 115.311 123.248 115.872 122.647 116.209Z" fill="white"/>
<path d="M138.228 161.379L168.853 143.694C169.238 143.494 169.595 143.328 169.746 143.406L169.546 143.294L122.672 116.224L122.125 115.906C121.879 115.837 121.621 115.82 121.369 115.858C121.116 115.896 120.874 115.987 120.66 116.126L90.2747 133.675C89.5081 134.119 89.5081 134.842 90.2747 135.286L135.46 161.379C135.889 161.595 136.363 161.707 136.844 161.707C137.324 161.707 137.798 161.595 138.228 161.379Z" fill="#00796B"/>
<path opacity="0.8" d="M138.228 161.379L168.853 143.694C169.238 143.494 169.595 143.328 169.746 143.406L169.546 143.294L122.672 116.224L122.125 115.906C121.879 115.837 121.621 115.82 121.369 115.858C121.116 115.896 120.874 115.987 120.66 116.126L90.2747 133.675C89.5081 134.119 89.5081 134.842 90.2747 135.286L135.46 161.379C135.889 161.595 136.363 161.707 136.844 161.707C137.324 161.707 137.798 161.595 138.228 161.379Z" fill="white"/>
<path d="M123.814 114.383L124.005 114.495L171.772 142.088C171.797 142.037 171.832 141.992 171.875 141.956L172.036 141.863L172.383 141.668L172.808 141.419C172.89 141.364 172.989 141.339 173.087 141.348C173.186 141.357 173.278 141.399 173.35 141.468C173.37 141.481 173.388 141.498 173.403 141.516C173.461 141.575 173.509 141.643 173.545 141.717C173.597 141.801 173.639 141.891 173.672 141.985C173.709 142.086 173.74 142.188 173.765 142.293C173.794 142.415 173.813 142.532 173.838 142.659C173.851 142.732 173.859 142.805 173.862 142.879C173.862 142.937 173.862 142.991 173.862 143.059C173.862 143.128 173.862 143.333 173.862 143.474V142.132C173.812 141.69 173.659 141.267 173.417 140.895C173.175 140.523 172.849 140.213 172.466 139.988L127.276 113.895C126.904 113.675 126.486 113.544 126.055 113.513C125.624 113.482 125.191 113.551 124.791 113.714L124.22 114.046L123.975 114.183C123.905 114.234 123.849 114.303 123.814 114.383Z" fill="#00796B"/>
<path opacity="0.8" d="M123.814 114.383L124.005 114.495L171.772 142.088C171.797 142.037 171.832 141.992 171.875 141.956L172.036 141.863L172.383 141.668L172.808 141.419C172.89 141.364 172.989 141.339 173.087 141.348C173.186 141.357 173.278 141.399 173.35 141.468C173.37 141.481 173.388 141.498 173.403 141.516C173.461 141.575 173.509 141.643 173.545 141.717C173.597 141.801 173.639 141.891 173.672 141.985C173.709 142.086 173.74 142.188 173.765 142.293C173.794 142.415 173.813 142.532 173.838 142.659C173.851 142.732 173.859 142.805 173.862 142.879C173.862 142.937 173.862 142.991 173.862 143.059C173.862 143.128 173.862 143.333 173.862 143.474V142.132C173.812 141.69 173.659 141.267 173.417 140.895C173.175 140.523 172.849 140.213 172.466 139.988L127.276 113.895C126.904 113.675 126.486 113.544 126.055 113.513C125.624 113.482 125.191 113.551 124.791 113.714L124.22 114.046L123.975 114.183C123.905 114.234 123.849 114.303 123.814 114.383Z" fill="white"/>
<path d="M138.228 161.384L140.123 160.286L161.904 147.717L168.857 143.704C169.346 143.411 169.756 143.308 169.78 143.46V143.772C169.78 144.124 170.269 144.124 170.869 143.772C171.092 143.675 171.287 143.525 171.437 143.334C171.587 143.143 171.687 142.918 171.728 142.678V142.337C171.721 142.26 171.732 142.184 171.76 142.112C171.788 142.041 171.833 141.977 171.89 141.927L172.051 141.834L172.397 141.638L172.822 141.389C172.905 141.335 173.003 141.31 173.102 141.318C173.2 141.327 173.293 141.37 173.364 141.438C173.384 141.452 173.403 141.468 173.418 141.487C173.454 141.525 173.485 141.568 173.511 141.614C173.531 141.635 173.548 141.66 173.56 141.687C173.611 141.772 173.654 141.862 173.686 141.956C173.724 142.056 173.755 142.159 173.779 142.263C173.809 142.385 173.828 142.503 173.852 142.63C173.866 142.702 173.874 142.776 173.877 142.849C173.877 142.908 173.877 142.962 173.877 143.03C173.877 143.098 173.877 143.303 173.877 143.445V148.152H172.803V143.445C172.803 143.333 172.803 143.22 172.803 143.113L172.773 142.844C172.776 142.836 172.776 142.828 172.773 142.82C172.676 143.675 171.86 144.436 171.152 144.837C170.759 145.085 170.308 145.226 169.844 145.247C169.486 145.251 169.138 145.125 168.867 144.89L168.77 144.944L168.584 145.056L141.163 160.891L138.228 162.62C137.805 162.836 137.336 162.945 136.861 162.937V161.697C137.335 161.707 137.805 161.599 138.228 161.384Z" fill="#00796B"/>
<path opacity="0.6" d="M138.228 161.384L140.123 160.286L161.904 147.717L168.857 143.704C169.346 143.411 169.756 143.308 169.78 143.46V143.772C169.78 144.124 170.269 144.124 170.869 143.772C171.092 143.675 171.287 143.525 171.437 143.334C171.587 143.143 171.687 142.918 171.728 142.678V142.337C171.721 142.26 171.732 142.184 171.76 142.112C171.788 142.041 171.833 141.977 171.89 141.927L172.051 141.834L172.397 141.638L172.822 141.389C172.905 141.335 173.003 141.31 173.102 141.318C173.2 141.327 173.293 141.37 173.364 141.438C173.384 141.452 173.403 141.468 173.418 141.487C173.454 141.525 173.485 141.568 173.511 141.614C173.531 141.635 173.548 141.66 173.56 141.687C173.611 141.772 173.654 141.862 173.686 141.956C173.724 142.056 173.755 142.159 173.779 142.263C173.809 142.385 173.828 142.503 173.852 142.63C173.866 142.702 173.874 142.776 173.877 142.849C173.877 142.908 173.877 142.962 173.877 143.03C173.877 143.098 173.877 143.303 173.877 143.445V148.152H172.803V143.445C172.803 143.333 172.803 143.22 172.803 143.113L172.773 142.844C172.776 142.836 172.776 142.828 172.773 142.82C172.676 143.675 171.86 144.436 171.152 144.837C170.759 145.085 170.308 145.226 169.844 145.247C169.486 145.251 169.138 145.125 168.867 144.89L168.77 144.944L168.584 145.056L141.163 160.891L138.228 162.62C137.805 162.836 137.336 162.945 136.861 162.937V161.697C137.335 161.707 137.805 161.599 138.228 161.384Z" fill="white"/>
<path d="M89.6595 134.466V135.74C89.6748 135.91 89.7342 136.073 89.8318 136.212C89.9295 136.352 90.062 136.463 90.2161 136.536L132.437 160.911L135.401 162.624C135.831 162.847 136.309 162.959 136.793 162.952V161.711C136.306 161.722 135.825 161.608 135.396 161.379L133.511 160.29L90.2161 135.286C90.0586 135.211 89.9239 135.096 89.826 134.952C89.7281 134.807 89.6706 134.64 89.6595 134.466Z" fill="#00796B"/>
<path opacity="0.1" d="M89.6595 134.466V135.74C89.6748 135.91 89.7342 136.073 89.8318 136.212C89.9295 136.352 90.062 136.463 90.2161 136.536L132.437 160.911L135.401 162.624C135.831 162.847 136.309 162.959 136.793 162.952V161.711C136.306 161.722 135.825 161.608 135.396 161.379L133.511 160.29L90.2161 135.286C90.0586 135.211 89.9239 135.096 89.826 134.952C89.7281 134.807 89.6706 134.64 89.6595 134.466Z" fill="white"/>
<path d="M120.621 116.126C120.835 115.987 121.077 115.896 121.33 115.858C121.582 115.82 121.84 115.837 122.086 115.906L122.633 116.224C123.233 115.872 123.717 115.311 123.717 114.964V114.671C123.721 114.57 123.75 114.471 123.8 114.383C123.838 114.304 123.897 114.236 123.97 114.188L124.215 114.051L124.786 113.719C125.186 113.555 125.619 113.487 126.05 113.518C126.481 113.549 126.899 113.68 127.271 113.9L172.461 139.993L172.51 140.022L140.621 158.435C140.333 158.582 140.014 158.659 139.69 158.659C139.367 158.659 139.048 158.582 138.76 158.435L93.2776 131.917L120.621 116.126Z" fill="#263238"/>
<path d="M143.174 155.759L141.968 155.066C142.293 154.953 142.642 154.928 142.979 154.993C143.301 155.159 143.174 155.759 143.174 155.759Z" fill="#00796B"/>
<path opacity="0.7" d="M143.174 155.759L141.968 155.066C142.293 154.953 142.642 154.928 142.979 154.993C143.301 155.159 143.174 155.759 143.174 155.759Z" fill="black"/>
<path d="M144.004 155.012C143.867 154.864 143.701 154.745 143.515 154.664C143.33 154.583 143.13 154.541 142.928 154.541C142.725 154.541 142.525 154.583 142.34 154.664C142.155 154.745 141.988 154.864 141.851 155.012C140.674 156.091 140.616 157.161 140.127 157.146C139.639 157.131 139.639 148.528 139.639 148.528L144.283 152.83L144.004 155.012Z" fill="#00796B"/>
<path opacity="0.7" d="M144.004 155.012C143.867 154.864 143.701 154.745 143.515 154.664C143.33 154.583 143.13 154.541 142.928 154.541C142.725 154.541 142.525 154.583 142.34 154.664C142.155 154.745 141.988 154.864 141.851 155.012C140.674 156.091 140.616 157.161 140.127 157.146C139.639 157.131 139.639 148.528 139.639 148.528L144.283 152.83L144.004 155.012Z" fill="black"/>
<path d="M95.4602 123.738L95.3821 123.694L96.1243 123.265L128.096 104.808L174.683 134.954C175.449 135.398 175.586 136.043 174.985 136.385L173.896 137.014L144.014 154.294L143.799 154.138L95.4602 123.738Z" fill="#00796B"/>
<path opacity="0.5" d="M95.4602 123.738L95.3821 123.694L96.1243 123.265L128.096 104.808L174.683 134.954C175.449 135.398 175.586 136.043 174.985 136.385L173.896 137.014L144.014 154.294L143.799 154.138L95.4602 123.738Z" fill="black"/>
<path d="M140.025 144.456L142.339 143.968V153.245C140.943 153.84 140.054 154.397 139.898 155.564L140.025 144.456Z" fill="#455A64"/>
<path d="M143.36 153.367L172.964 136.277C173.235 136.101 173.461 135.863 173.623 135.583C173.785 135.303 173.879 134.989 173.896 134.666V125.53L144.004 142.937C144.004 142.937 143.648 144.231 142.588 144.636C141.529 145.042 142.339 145.457 142.339 145.457V153.269C143.252 153.137 143.36 153.367 143.36 153.367Z" fill="#F0F0F0"/>
<path d="M140.63 144.138C140.938 143.963 141.182 143.953 141.182 144.138V144.426C141.182 144.749 141.67 144.734 142.276 144.383C142.881 144.031 143.37 143.494 143.37 143.172V142.879C143.37 142.713 143.785 142.342 144.292 142.049L96.1292 114.451L95.3821 114.881C95.2786 114.991 95.2135 115.131 95.1965 115.281V115.574C95.1965 115.897 94.7083 116.439 94.1077 116.785C93.5071 117.132 93.014 117.152 93.014 116.829V116.536C93.014 116.37 92.7698 116.385 92.4671 116.561L140.63 144.138Z" fill="#00796B"/>
<path opacity="0.6" d="M140.63 144.138C140.938 143.963 141.182 143.953 141.182 144.138V144.426C141.182 144.749 141.67 144.734 142.276 144.383C142.881 144.031 143.37 143.494 143.37 143.172V142.879C143.37 142.713 143.785 142.342 144.292 142.049L96.1292 114.451L95.3821 114.881C95.2786 114.991 95.2135 115.131 95.1965 115.281V115.574C95.1965 115.897 94.7083 116.439 94.1077 116.785C93.5071 117.132 93.014 117.152 93.014 116.829V116.536C93.014 116.37 92.7698 116.385 92.4671 116.561L140.63 144.138Z" fill="black"/>
<path d="M95.4602 114.905L95.3821 114.862L96.1243 114.432L128.096 95.9751L174.683 122.879C175.449 123.323 175.586 123.963 174.985 124.31L173.896 124.935L144.004 142.937L95.4602 114.905Z" fill="#00796B"/>
<path opacity="0.5" d="M95.4602 114.905L95.3821 114.862L96.1243 114.432L128.096 95.9751L174.683 122.879C175.449 123.323 175.586 123.963 174.985 124.31L173.896 124.935L144.004 142.937L95.4602 114.905Z" fill="black"/>
<path d="M93.0042 116.238L141.158 144.041L139.473 145.359L91.5004 117.664C91.6173 117.308 91.8406 116.996 92.14 116.771L93.0042 116.238Z" fill="#00796B"/>
<path opacity="0.5" d="M93.0042 116.238L141.158 144.041L139.473 145.359L91.5004 117.664C91.6173 117.308 91.8406 116.996 92.14 116.771L93.0042 116.238Z" fill="black"/>
<path d="M91.6615 130.091C91.6318 130.072 91.604 130.051 91.5785 130.027C91.5564 130.016 91.5378 129.999 91.5248 129.978C91.4854 129.94 91.4524 129.896 91.4271 129.847C91.4055 129.828 91.3888 129.805 91.3783 129.778C91.326 129.695 91.285 129.604 91.2562 129.51C91.2157 129.408 91.183 129.304 91.1586 129.197C91.1293 129.08 91.1097 128.963 91.0902 128.836C91.0733 128.764 91.0635 128.69 91.0609 128.616V128.436C91.0609 128.304 91.0609 128.162 91.0609 128.021V120.067C91.0521 119.231 91.2047 118.402 91.5101 117.625L139.483 145.32L139.683 157.781L91.7152 130.076L91.6615 130.091Z" fill="#00796B"/>
<path opacity="0.7" d="M91.6615 130.091C91.6318 130.072 91.604 130.051 91.5785 130.027C91.5564 130.016 91.5378 129.999 91.5248 129.978C91.4854 129.94 91.4524 129.896 91.4271 129.847C91.4055 129.828 91.3888 129.805 91.3783 129.778C91.326 129.695 91.285 129.604 91.2562 129.51C91.2157 129.408 91.183 129.304 91.1586 129.197C91.1293 129.08 91.1097 128.963 91.0902 128.836C91.0733 128.764 91.0635 128.69 91.0609 128.616V128.436C91.0609 128.304 91.0609 128.162 91.0609 128.021V120.067C91.0521 119.231 91.2047 118.402 91.5101 117.625L139.483 145.32L139.683 157.781L91.7152 130.076L91.6615 130.091Z" fill="black"/>
<path opacity="0.79" d="M139.449 145.34C139.449 145.34 101.666 127.659 98.2288 126.038C95.9583 124.969 94.845 127.215 95.3821 129.539C95.8704 131.57 97.8577 133.665 97.8577 133.665L91.681 130.096C91.6513 130.077 91.6235 130.056 91.598 130.032C91.5759 130.021 91.5573 130.004 91.5443 129.983C91.5049 129.945 91.4719 129.9 91.4466 129.852C91.4251 129.833 91.4083 129.81 91.3978 129.783C91.3455 129.699 91.3045 129.609 91.2757 129.515C91.2352 129.413 91.2025 129.309 91.1781 129.202C91.1488 129.085 91.1293 128.968 91.1097 128.841C91.0928 128.769 91.083 128.695 91.0804 128.621V128.44C91.0804 128.309 91.0804 128.167 91.0804 128.025V120.067C91.0717 119.231 91.2242 118.402 91.5296 117.625L139.449 145.34Z" fill="#263238"/>
<path d="M139.004 147.766H140.079C140.053 146.954 140.231 146.149 140.596 145.423C140.852 145.612 141.162 145.713 141.48 145.711C141.953 145.687 142.412 145.542 142.813 145.291C143.296 145.016 143.718 144.645 144.053 144.202C144.079 144.171 144.102 144.139 144.122 144.104C144.311 143.834 144.421 143.516 144.439 143.186L172.793 126.819L173.77 126.258L175 125.55C175.107 125.501 175.199 125.424 175.265 125.326C175.331 125.229 175.37 125.116 175.376 124.998V123.743C175.371 123.863 175.333 123.979 175.267 124.079C175.2 124.178 175.108 124.258 175 124.31L171.743 126.185L144.327 142.019C143.814 142.312 143.399 142.683 143.399 142.849V143.142C143.368 143.328 143.279 143.499 143.145 143.631C142.91 143.914 142.625 144.152 142.305 144.334C141.7 144.685 141.211 144.7 141.211 144.378V144.09C141.211 143.919 140.972 143.933 140.665 144.09L140.123 144.407C139.493 144.798 139.004 146.287 139.004 147.766Z" fill="#00796B"/>
<path d="M140.079 147.766V155.72C140.079 155.833 140.079 155.945 140.079 156.052L140.103 156.321C140.101 156.329 140.101 156.337 140.103 156.345C140.201 155.491 141.016 154.729 141.724 154.329C142.119 154.08 142.571 153.939 143.038 153.919C143.396 153.914 143.743 154.041 144.014 154.275L144.107 154.221L144.297 154.109L171.714 138.274L173.291 137.366L173.74 137.102L175.068 136.336C175.156 136.281 175.228 136.206 175.279 136.116C175.33 136.027 175.358 135.926 175.361 135.823V137.078C175.358 137.175 175.331 137.27 175.283 137.355C175.236 137.44 175.169 137.512 175.088 137.566C174.932 137.659 174.766 137.747 174.6 137.849L174.292 138.03L173.765 138.333C173.647 138.406 173.54 138.47 173.437 138.523C173.335 138.577 173.276 138.621 173.208 138.655L172.803 138.894L151.021 151.463L144.068 155.476C143.58 155.769 143.174 155.872 143.145 155.72C143.143 155.702 143.143 155.684 143.145 155.667V155.388C143.145 155.037 142.657 155.037 142.056 155.388C141.833 155.485 141.638 155.636 141.488 155.827C141.338 156.017 141.238 156.243 141.197 156.482V156.824C141.204 156.9 141.193 156.977 141.165 157.048C141.137 157.119 141.093 157.183 141.036 157.234L140.874 157.327L140.533 157.522L140.108 157.771C140.025 157.826 139.927 157.851 139.828 157.842C139.73 157.833 139.637 157.791 139.566 157.722C139.544 157.711 139.525 157.694 139.512 157.673C139.473 157.637 139.44 157.594 139.415 157.546C139.396 157.526 139.379 157.503 139.366 157.478C139.313 157.394 139.272 157.304 139.244 157.209C139.202 157.11 139.17 157.007 139.146 156.902C139.117 156.78 139.097 156.663 139.078 156.536C139.06 156.464 139.051 156.39 139.048 156.316C139.048 156.257 139.048 156.204 139.048 156.135C139.048 156.067 139.048 155.862 139.048 155.72V147.766H140.079Z" fill="#00796B"/>
<g opacity="0.6">
<path opacity="0.6" d="M139.004 147.766H140.079C140.053 146.954 140.231 146.149 140.596 145.423C140.852 145.612 141.162 145.713 141.48 145.711C141.953 145.687 142.412 145.542 142.813 145.291C143.296 145.016 143.718 144.645 144.053 144.202C144.079 144.171 144.102 144.139 144.122 144.104C144.311 143.834 144.421 143.516 144.439 143.186L172.793 126.819L173.77 126.258L175 125.55C175.107 125.501 175.199 125.424 175.265 125.326C175.331 125.229 175.37 125.116 175.376 124.998V123.743C175.371 123.863 175.333 123.979 175.267 124.079C175.2 124.178 175.108 124.258 175 124.31L171.743 126.185L144.327 142.019C143.814 142.312 143.399 142.683 143.399 142.849V143.142C143.368 143.328 143.279 143.499 143.145 143.631C142.91 143.914 142.625 144.152 142.305 144.334C141.7 144.685 141.211 144.7 141.211 144.378V144.09C141.211 143.919 140.972 143.933 140.665 144.09L140.123 144.407C139.493 144.798 139.004 146.287 139.004 147.766Z" fill="black"/>
<path opacity="0.6" d="M140.079 147.766V155.72C140.079 155.833 140.079 155.945 140.079 156.052L140.103 156.321C140.101 156.329 140.101 156.337 140.103 156.345C140.201 155.491 141.016 154.729 141.724 154.329C142.119 154.08 142.572 153.939 143.038 153.919C143.396 153.914 143.743 154.041 144.014 154.275L144.107 154.221L144.297 154.109L171.714 138.274L173.291 137.366L173.74 137.102L175.068 136.336C175.156 136.281 175.228 136.206 175.279 136.116C175.33 136.027 175.358 135.926 175.361 135.823V137.078C175.358 137.175 175.331 137.27 175.283 137.355C175.236 137.44 175.169 137.512 175.088 137.566C174.932 137.659 174.766 137.747 174.6 137.849L174.292 138.03L173.765 138.333C173.647 138.406 173.54 138.47 173.437 138.523C173.335 138.577 173.276 138.621 173.208 138.655L172.803 138.894L151.021 151.463L144.068 155.476C143.58 155.769 143.174 155.872 143.145 155.72C143.143 155.702 143.143 155.684 143.145 155.667V155.388C143.145 155.037 142.657 155.037 142.056 155.388C141.834 155.485 141.638 155.636 141.488 155.827C141.338 156.017 141.238 156.243 141.197 156.482V156.824C141.204 156.9 141.193 156.977 141.165 157.048C141.137 157.119 141.093 157.183 141.036 157.234L140.875 157.327L140.533 157.522L140.108 157.771C140.026 157.826 139.927 157.851 139.828 157.842C139.73 157.833 139.637 157.791 139.566 157.722C139.544 157.711 139.525 157.694 139.512 157.673C139.473 157.637 139.44 157.594 139.415 157.546C139.396 157.526 139.379 157.503 139.366 157.478C139.314 157.394 139.272 157.304 139.244 157.209C139.202 157.11 139.17 157.007 139.146 156.902C139.117 156.78 139.097 156.663 139.078 156.536C139.06 156.464 139.051 156.39 139.048 156.316C139.048 156.257 139.048 156.204 139.048 156.135C139.048 156.067 139.048 155.862 139.048 155.72V147.766H140.079Z" fill="black"/>
</g>
<path d="M91.4759 117.64L137.071 143.968L171.533 124.07C171.646 124.033 171.744 123.961 171.813 123.864C171.882 123.768 171.92 123.652 171.92 123.533C171.92 123.415 171.882 123.299 171.813 123.202C171.744 123.106 171.646 123.034 171.533 122.996L126.417 96.9419L96.1438 114.432L95.3967 114.866C95.2957 114.975 95.2323 115.114 95.2161 115.262V115.555C95.2161 115.877 94.7278 116.419 94.1272 116.766C94.0967 116.786 94.064 116.802 94.0296 116.815L93.0237 116.234L92.5354 116.507L92.4671 116.541L92.1155 116.746C91.8165 116.972 91.5934 117.284 91.4759 117.64Z" fill="#263238"/>
<path d="M168.989 124.266L167.617 123.533L168.867 123.235C168.987 123.376 169.063 123.549 169.085 123.732C169.106 123.915 169.073 124.101 168.989 124.266Z" fill="#E0E0E0"/>
<g style="mix-blend-mode:multiply" opacity="0.5">
<path d="M168.989 124.266L167.617 123.533L168.867 123.235C168.987 123.376 169.063 123.549 169.085 123.732C169.106 123.915 169.073 124.101 168.989 124.266Z" fill="#E0E0E0"/>
</g>
<path d="M132.628 142.576C133.06 142.795 133.537 142.909 134.022 142.909C134.506 142.909 134.984 142.795 135.416 142.576L166.733 124.51L119.859 94.8765L118.761 94.2417L87.4476 114.866C86.681 115.311 86.681 116.033 87.4476 116.478L132.628 142.576Z" fill="#00796B"/>
<path d="M144.385 105.843L168.047 121.878L155.308 112.113L162.378 108.031L170.601 112.791V121.282C170.601 122.005 169.795 123.025 169.502 122.859C168.96 122.99 168.433 123.177 167.93 123.416C167.108 123.883 166.346 124.447 165.659 125.096L140.567 108.04L144.385 105.843Z" fill="#00796B"/>
<path opacity="0.2" d="M144.385 105.843L168.047 121.878L155.308 112.113L162.378 108.031L170.601 112.791V121.282C170.601 122.005 169.795 123.025 169.502 122.859C168.96 122.99 168.433 123.177 167.93 123.416C167.108 123.883 166.346 124.447 165.659 125.096L140.567 108.04L144.385 105.843Z" fill="black"/>
<path d="M134.019 131.976V141.78C134.344 141.787 134.665 141.712 134.952 141.56L138.37 139.578L164.541 124.471V114.344L134.019 131.976Z" fill="white"/>
<path d="M88.2241 106.444V114.583C88.242 114.906 88.3352 115.219 88.4964 115.499C88.6575 115.779 88.882 116.017 89.1518 116.195L129.678 139.583L133.096 141.565C133.382 141.716 133.701 141.792 134.024 141.785V132.742L88.2241 106.444Z" fill="#F0F0F0"/>
<path d="M164.556 124.471C164.58 124.1 164.716 123.746 164.946 123.455C165.28 123.01 165.702 122.64 166.187 122.366C166.59 122.115 167.05 121.971 167.524 121.946C167.832 121.915 168.141 121.987 168.403 122.151V112.122L164.561 114.344L164.556 124.471Z" fill="#455A64"/>
<path d="M166.089 122.425C165.646 122.693 165.258 123.042 164.946 123.455C164.716 123.746 164.58 124.1 164.556 124.471V114.705H166.084L166.089 122.425Z" fill="#F5F5F5"/>
<path d="M119.854 86.0143L166.729 113.089V113.714C166.729 114.066 167.217 114.202 167.817 113.846C168.418 113.489 168.916 113.06 168.916 112.459L168.975 111.864L121.207 84.2859L121.012 84.1736C120.962 84.2635 120.936 84.364 120.933 84.4665V84.7546C120.938 85.1013 120.455 85.6628 119.854 86.0143Z" fill="#00796B"/>
<path opacity="0.2" d="M119.854 86.0143L166.729 113.089V113.714C166.729 114.066 167.217 114.202 167.817 113.846C168.418 113.489 168.916 113.06 168.916 112.459L168.975 111.864L121.207 84.2859L121.012 84.1736C120.962 84.2635 120.936 84.364 120.933 84.4665V84.7546C120.938 85.1013 120.455 85.6628 119.854 86.0143Z" fill="black"/>
<path d="M135.416 131.17L166.06 113.489C166.45 113.284 166.807 113.118 166.953 113.197L166.753 113.089L119.879 86.0143L119.327 85.7019C119.082 85.629 118.823 85.6109 118.57 85.6489C118.317 85.6869 118.075 85.7799 117.862 85.9216L87.4476 103.465C86.681 103.91 86.681 104.637 87.4476 105.077L132.637 131.17C133.068 131.387 133.544 131.501 134.026 131.501C134.509 131.501 134.985 131.387 135.416 131.17Z" fill="#00796B"/>
<path d="M121.016 84.1736L121.212 84.2859L168.989 111.864C169.013 111.813 169.048 111.768 169.092 111.732L169.253 111.644L169.595 111.444L170.02 111.195C170.102 111.141 170.201 111.116 170.299 111.125C170.397 111.134 170.49 111.176 170.562 111.243C170.582 111.257 170.6 111.273 170.615 111.292C170.672 111.353 170.721 111.42 170.762 111.492C170.812 111.577 170.853 111.667 170.884 111.761C170.922 111.863 170.955 111.968 170.981 112.073C171.006 112.191 171.03 112.308 171.05 112.435C171.065 112.509 171.074 112.584 171.079 112.659V112.835C171.079 112.967 171.079 113.109 171.079 113.255V111.912C171.03 111.47 170.878 111.046 170.636 110.672C170.393 110.299 170.067 109.988 169.683 109.764L124.493 83.6706C124.12 83.4513 123.702 83.3213 123.271 83.2908C122.84 83.2603 122.407 83.3302 122.008 83.4949L121.436 83.8269L121.197 83.9685C121.119 84.0182 121.056 84.0894 121.016 84.1736Z" fill="#00796B"/>
<path d="M135.416 142.576L137.305 141.482L165.659 125.11C165.684 124.74 165.82 124.386 166.05 124.095C166.385 123.651 166.807 123.281 167.29 123.006C167.693 122.758 168.151 122.616 168.623 122.591C168.942 122.584 169.253 122.686 169.507 122.879C169.871 122.151 170.049 121.344 170.024 120.53H171.099C171.099 121.995 170.61 123.499 170.01 123.846L169.468 124.163C169.16 124.339 168.921 124.349 168.921 124.163V123.875C168.921 123.553 168.433 123.567 167.822 123.914C167.212 124.261 166.733 124.808 166.733 125.13V125.418C166.733 125.584 166.318 125.955 165.806 126.253L138.384 142.088L135.416 143.801C134.986 144.024 134.508 144.136 134.024 144.129V142.888C134.507 142.905 134.986 142.797 135.416 142.576Z" fill="#00796B"/>
<path opacity="0.4" d="M135.416 142.576L137.305 141.482L165.659 125.11C165.684 124.74 165.82 124.386 166.05 124.095C166.385 123.651 166.807 123.281 167.29 123.006C167.693 122.758 168.151 122.616 168.623 122.591C168.942 122.584 169.253 122.686 169.507 122.879C169.871 122.151 170.049 121.344 170.024 120.53H171.099C171.099 121.995 170.61 123.499 170.01 123.846L169.468 124.163C169.16 124.339 168.921 124.349 168.921 124.163V123.875C168.921 123.553 168.433 123.567 167.822 123.914C167.212 124.261 166.733 124.808 166.733 125.13V125.418C166.733 125.584 166.318 125.955 165.806 126.253L138.384 142.088L135.416 143.801C134.986 144.024 134.508 144.136 134.024 144.129V142.888C134.507 142.905 134.986 142.797 135.416 142.576Z" fill="black"/>
<path d="M135.406 131.175L137.295 130.081L159.077 117.513L166.06 113.489C166.548 113.201 166.958 113.099 166.987 113.25V113.568C166.987 113.914 167.476 113.914 168.076 113.568C168.3 113.47 168.495 113.319 168.645 113.127C168.795 112.935 168.895 112.709 168.936 112.469V112.127C168.928 112.051 168.939 111.974 168.967 111.903C168.995 111.832 169.04 111.768 169.097 111.717L169.258 111.629L169.6 111.429L170.024 111.18C170.107 111.126 170.206 111.102 170.304 111.11C170.402 111.119 170.495 111.161 170.566 111.229C170.587 111.242 170.605 111.259 170.62 111.278C170.658 111.317 170.691 111.362 170.718 111.409C170.736 111.431 170.753 111.453 170.767 111.478C170.817 111.563 170.858 111.653 170.889 111.746C170.927 111.849 170.96 111.953 170.986 112.059C171.011 112.176 171.035 112.293 171.055 112.42C171.07 112.494 171.079 112.569 171.084 112.645V112.821C171.084 112.952 171.084 113.094 171.084 113.24V120.506H170.01V113.28C170.01 113.167 170.01 113.05 170.01 112.943L169.985 112.674C169.888 113.529 169.072 114.29 168.359 114.691C167.967 114.94 167.516 115.082 167.051 115.101C166.693 115.105 166.345 114.979 166.074 114.744L165.982 114.798L165.791 114.91L138.37 130.745L135.401 132.459C134.977 132.676 134.505 132.785 134.029 132.776V131.536C134.511 131.533 134.984 131.408 135.406 131.175Z" fill="#00796B"/>
<path opacity="0.4" d="M135.406 131.175L137.295 130.081L159.077 117.513L166.06 113.489C166.548 113.201 166.958 113.099 166.987 113.25V113.568C166.987 113.914 167.476 113.914 168.076 113.568C168.3 113.47 168.495 113.319 168.645 113.127C168.795 112.935 168.895 112.709 168.936 112.469V112.127C168.928 112.051 168.939 111.974 168.967 111.903C168.995 111.832 169.04 111.768 169.097 111.717L169.258 111.629L169.6 111.429L170.024 111.18C170.107 111.126 170.206 111.102 170.304 111.11C170.402 111.119 170.495 111.161 170.566 111.229C170.587 111.242 170.605 111.259 170.62 111.278C170.658 111.317 170.691 111.362 170.718 111.409C170.736 111.431 170.753 111.453 170.767 111.478C170.817 111.563 170.858 111.653 170.889 111.746C170.927 111.849 170.96 111.953 170.986 112.059C171.011 112.176 171.035 112.293 171.055 112.42C171.07 112.494 171.079 112.569 171.084 112.645V112.821C171.084 112.952 171.084 113.094 171.084 113.24V120.506H170.01V113.28C170.01 113.167 170.01 113.05 170.01 112.943L169.985 112.674C169.888 113.529 169.072 114.29 168.359 114.691C167.967 114.94 167.516 115.082 167.051 115.101C166.693 115.105 166.345 114.979 166.074 114.744L165.982 114.798L165.791 114.91L138.37 130.745L135.401 132.459C134.977 132.676 134.505 132.785 134.029 132.776V131.536C134.511 131.533 134.984 131.408 135.406 131.175Z" fill="black"/>
<path d="M86.8666 104.256V105.516C86.8814 105.685 86.9401 105.848 87.0368 105.987C87.1336 106.127 87.2651 106.239 87.4183 106.312L129.644 130.686L132.608 132.4C133.036 132.622 133.513 132.734 133.995 132.727V131.487C133.51 131.498 133.031 131.384 132.603 131.155L130.718 130.066L87.4476 105.077C87.2836 105.008 87.1421 104.895 87.0393 104.75C86.9366 104.605 86.8767 104.434 86.8666 104.256Z" fill="#00796B"/>
<path opacity="0.2" d="M86.8666 104.256V105.516C86.8814 105.685 86.9401 105.848 87.0368 105.987C87.1336 106.127 87.2651 106.239 87.4183 106.312L129.644 130.686L132.608 132.4C133.036 132.622 133.513 132.734 133.995 132.727V131.487C133.51 131.498 133.031 131.384 132.603 131.155L130.718 130.066L87.4476 105.077C87.2836 105.008 87.1421 104.895 87.0393 104.75C86.9366 104.605 86.8767 104.434 86.8666 104.256Z" fill="black"/>
<path d="M86.8666 115.653V116.912C86.8814 117.081 86.9401 117.244 87.0368 117.383C87.1336 117.523 87.2651 117.635 87.4183 117.708L129.664 142.088L132.628 143.802C133.056 144.023 133.532 144.135 134.014 144.129V142.888C133.53 142.899 133.05 142.785 132.623 142.556L130.738 141.468L87.4476 116.473C87.2836 116.404 87.1421 116.291 87.0393 116.146C86.9366 116.001 86.8767 115.83 86.8666 115.653Z" fill="#00796B"/>
<path opacity="0.2" d="M86.8666 115.653V116.912C86.8814 117.081 86.9401 117.244 87.0368 117.383C87.1336 117.523 87.2651 117.635 87.4183 117.708L129.664 142.088L132.628 143.802C133.056 144.023 133.532 144.135 134.014 144.129V142.888C133.53 142.899 133.05 142.785 132.623 142.556L130.738 141.468L87.4476 116.473C87.2836 116.404 87.1421 116.291 87.0393 116.146C86.9366 116.001 86.8767 115.83 86.8666 115.653Z" fill="black"/>
<path d="M106.368 71.3515L101.886 79.3397L108.419 82.8162L113.175 75.7362L106.368 71.3515Z" fill="#FFA8A7"/>
<path d="M122.271 53.3586C119.781 52.9338 116.012 52.8215 113.561 57.0256C111.109 61.2296 105.826 71.6054 105.826 71.6054C105.826 71.6054 108.912 75.5995 113.38 76.327L120.68 64.7452L122.271 53.3586Z" fill="#00796B"/>
<path d="M116.388 151.189H110.812V160.735H116.388V151.189Z" fill="#FFA8A7"/>
<path d="M100.245 148.865L94.6692 149.055L94.3909 138.953L99.9621 138.763L100.245 148.865Z" fill="#FFA8A7"/>
<path d="M110.812 157.981V157.185C110.279 157.415 109.039 162.146 106.827 164.162C105.069 165.769 102.672 167.619 102.062 169.407C101.427 171.267 105.401 172.297 107.042 172.004C108.951 171.667 112.262 170.324 113.092 169.075C113.922 167.825 114.312 165.994 114.986 165.08C115.66 164.167 117.218 163.127 117.584 162.087C117.784 161.506 117.545 160.237 117.267 159.158C117.008 158.181 116.725 157.087 116.388 157.18V157.786C115.982 158.235 114.864 158.679 113.6 158.728C112.784 158.767 110.807 158.606 110.812 157.981Z" fill="#263238"/>
<path d="M94.6106 147.337C94.3225 147.337 94.0882 147.757 93.4485 148.445C92.4944 149.409 91.3853 150.206 90.1673 150.803C88.0775 151.853 84.0297 153.46 82.1841 154.294C81.0366 154.812 81.0903 156.199 82.2768 156.99C83.4634 157.781 86.3246 158.347 89.767 157.576C91.637 157.156 94.0784 155.427 95.6262 155.52C97.1741 155.613 100.06 155.593 101.197 154.807C102.335 154.021 101.881 152.366 101.559 150.901C101.207 149.329 100.704 146.922 100.182 147.029V147.517C99.5129 148.533 96.0999 148.948 94.6253 148.201L94.6106 147.337Z" fill="#263238"/>
<path d="M138.848 93.1383C140.069 101.756 138.423 103.392 130.235 111.663C125.841 116.102 118.736 122.61 118.736 122.61C118.736 122.61 118.839 125.364 118.892 131.536C118.946 136.971 116.676 154.656 116.676 154.656C116.676 154.656 112.975 156.213 110.436 154.597C110.436 154.597 109.288 141.438 108.668 134.578C107.828 125.301 107.389 120.623 107.862 118.626C108.282 116.863 116.617 106.336 118.541 103.387L100.826 113.68C101.17 116.288 101.343 118.916 101.344 121.546C101.149 128.924 100.24 143.66 100.24 143.66C100.24 143.66 96.1877 145.471 94.1761 143.909C94.1761 143.909 89.0736 111.683 89.0736 109.036C89.0736 105.018 106.524 93.0211 109.83 90.2281C111.715 88.6364 113.814 86.9128 113.814 86.9128L138.848 93.1383Z" fill="#455A64"/>
<path d="M118.541 103.392C116.678 101.883 115.275 99.8821 114.493 97.6157C114.591 99.0945 114.801 100.564 115.123 102.01C115.611 103.924 100.826 113.68 100.826 113.68L118.541 103.392Z" fill="#37474F"/>
<path d="M128.386 37.9462C129.384 33.6902 126.742 29.4315 122.486 28.434C118.23 27.4366 113.972 30.0781 112.974 34.3341C111.977 38.5901 114.618 42.8488 118.874 43.8462C123.13 44.8437 127.389 42.2021 128.386 37.9462Z" fill="#263238"/>
<path d="M137.31 58.1535C137.31 58.1535 139.263 59.755 139.263 64.8135V75.7362L138.985 94.105C135.079 98.3579 117.501 96.7466 113.15 87.4694C113.15 87.4694 113.185 68.0801 113.185 63.7344C113.185 59.3888 115.626 53.7492 122.266 53.3586L130.87 55.3606L137.31 58.1535Z" fill="#263238"/>
<path d="M134.361 41.767C134.361 41.767 133.077 47.7923 132.564 48.7835C132.222 49.3945 131.657 49.8495 130.987 50.053L131.075 45.8148L134.361 41.767Z" fill="#263238"/>
<path d="M132.75 33.1343C133.195 33.0842 133.647 33.136 134.07 33.2857C134.493 33.4354 134.876 33.6792 135.191 33.9986C136.246 35.0777 135.655 38.4565 134.341 41.767L131.924 42.0453L132.75 33.1343Z" fill="#263238"/>
<path d="M131.221 42.0453C131.71 42.3334 132.398 41.4057 132.994 40.7807C133.589 40.1557 135.543 39.3159 136.514 41.352C137.486 43.3881 135.655 46.2005 134.122 46.6839C131.475 47.514 131.075 45.8148 131.075 45.8148L130.875 55.3605C128.594 57.9093 120.797 57.3136 122.266 55.1066V52.177C122.266 52.177 119.869 52.5432 118.702 52.3625C116.749 52.0598 115.528 50.5266 114.937 48.4173C113.99 45.0336 113.629 42.3041 114.449 35.6489C115.333 28.3541 123.814 28.2809 128.394 31.1617C132.974 34.0425 131.221 42.0453 131.221 42.0453Z" fill="#FFA8A7"/>
<path d="M124.478 43.7152H124.068C123.352 43.7152 122.665 43.4307 122.159 42.9244C121.653 42.418 121.368 41.7312 121.368 41.0151C121.368 40.299 121.653 39.6122 122.159 39.1058C122.665 38.5994 123.352 38.3149 124.068 38.3149H124.483C125.199 38.3149 125.886 38.5994 126.393 39.1058C126.899 39.6122 127.183 40.299 127.183 41.0151C127.183 41.7312 126.899 42.418 126.393 42.9244C125.886 43.4307 125.199 43.7152 124.483 43.7152H124.478ZM124.068 38.769C123.473 38.769 122.901 39.0057 122.48 39.4269C122.059 39.8481 121.822 40.4194 121.822 41.0151C121.822 41.6108 122.059 42.1821 122.48 42.6033C122.901 43.0245 123.473 43.2611 124.068 43.2611H124.483C125.079 43.2611 125.65 43.0245 126.071 42.6033C126.493 42.1821 126.729 41.6108 126.729 41.0151C126.729 40.4194 126.493 39.8481 126.071 39.4269C125.65 39.0057 125.079 38.769 124.483 38.769H124.068Z" fill="#263238"/>
<path d="M116.256 43.7152H115.841C115.125 43.7152 114.438 43.4307 113.931 42.9244C113.425 42.418 113.141 41.7312 113.141 41.0151C113.141 40.299 113.425 39.6122 113.931 39.1058C114.438 38.5994 115.125 38.3149 115.841 38.3149H116.256C116.972 38.3149 117.659 38.5994 118.165 39.1058C118.671 39.6122 118.956 40.299 118.956 41.0151C118.956 41.7312 118.671 42.418 118.165 42.9244C117.659 43.4307 116.972 43.7152 116.256 43.7152ZM115.841 38.769C115.245 38.769 114.674 39.0057 114.253 39.4269C113.831 39.8481 113.595 40.4194 113.595 41.0151C113.595 41.6108 113.831 42.1821 114.253 42.6033C114.674 43.0245 115.245 43.2611 115.841 43.2611H116.256C116.852 43.2611 117.423 43.0245 117.844 42.6033C118.265 42.1821 118.502 41.6108 118.502 41.0151C118.502 40.4194 118.265 39.8481 117.844 39.4269C117.423 39.0057 116.852 38.769 116.256 38.769H115.841Z" fill="#263238"/>
<path d="M121.397 40.4829C121.233 40.2591 121.018 40.0768 120.77 39.9505C120.523 39.8242 120.249 39.7574 119.972 39.7553C119.74 39.732 119.507 39.7642 119.29 39.8491C119.073 39.934 118.88 40.0692 118.726 40.2436L118.365 39.9702C118.563 39.7364 118.815 39.5549 119.099 39.4416C119.384 39.3284 119.692 39.2869 119.996 39.3208C120.348 39.3242 120.694 39.4115 121.006 39.5754C121.317 39.7393 121.586 39.975 121.788 40.2631L121.397 40.4829Z" fill="#263238"/>
<path d="M132.672 40.4633H126.929V40.9174H132.672V40.4633Z" fill="#263238"/>
<path d="M131.221 42.8607C131.465 42.8607 132.388 41.3276 132.994 40.7807C133.829 40.019 132.75 33.1343 132.75 33.1343C132.75 33.1343 133.555 31.4205 131.944 29.653C130.801 28.3932 128.887 28.2516 125.621 27.7389C123.907 27.4704 121.309 26.987 119.596 26.6696C117.555 26.2888 115.86 25.8884 114.42 27.1579C113.854 27.648 113.455 28.3012 113.275 29.0278C113.096 29.7543 113.146 30.5185 113.419 31.2154C113.832 32.0846 114.568 32.7587 115.47 33.0953C115.47 33.0953 116.358 33.8863 119.459 34.2623C122.559 34.6382 127.388 34.1939 128.048 34.1011C128.946 33.9791 129.136 34.8482 129.625 37.231C130.05 39.3061 130.416 42.8461 131.221 42.8607Z" fill="#263238"/>
<path d="M132.745 33.691L135.674 32.1139C135.581 31.9169 135.448 31.741 135.284 31.5968C135.121 31.4525 134.929 31.3428 134.722 31.2744C134.515 31.206 134.296 31.1802 134.079 31.1986C133.862 31.217 133.65 31.2792 133.458 31.3814C133.066 31.6022 132.774 31.9647 132.641 32.3942C132.509 32.8238 132.546 33.2879 132.745 33.691Z" fill="#263238"/>
<path d="M122.271 52.2014C122.271 52.2014 126.617 51.3274 128.131 50.5218C129.024 50.0553 129.755 49.3304 130.23 48.4417C130 49.327 129.595 50.1572 129.039 50.8831C127.926 52.304 122.266 53.3489 122.266 53.3489L122.271 52.2014Z" fill="#F28F8F"/>
<path d="M123.316 40.9614C123.323 41.1328 123.38 41.2985 123.48 41.4378C123.58 41.577 123.719 41.6837 123.88 41.7445C124.04 41.8053 124.215 41.8175 124.383 41.7796C124.55 41.7417 124.702 41.6554 124.821 41.5315C124.94 41.4075 125.019 41.2513 125.05 41.0825C125.08 40.9136 125.06 40.7395 124.992 40.5819C124.925 40.4243 124.812 40.2901 124.668 40.1961C124.525 40.102 124.357 40.0523 124.185 40.0532C124.069 40.0557 123.954 40.0812 123.847 40.1282C123.74 40.1753 123.643 40.2429 123.563 40.3272C123.482 40.4115 123.419 40.511 123.376 40.6198C123.334 40.7286 123.314 40.8447 123.316 40.9614Z" fill="#263238"/>
<path d="M124.713 37.3579L126.578 38.3833C126.704 38.1293 126.729 37.8372 126.648 37.5656C126.567 37.2939 126.387 37.0628 126.143 36.9185C126.021 36.8509 125.886 36.8086 125.748 36.7942C125.609 36.7797 125.468 36.7934 125.335 36.8344C125.201 36.8755 125.077 36.9429 124.97 37.0329C124.864 37.1228 124.776 37.2334 124.713 37.3579Z" fill="#263238"/>
<path d="M122.667 46.972L120.68 47.7191C120.722 47.8525 120.792 47.9759 120.883 48.0819C120.975 48.1878 121.087 48.2742 121.213 48.3358C121.339 48.3973 121.476 48.4328 121.616 48.4401C121.756 48.4474 121.896 48.4264 122.027 48.3782C122.295 48.2722 122.511 48.0664 122.631 47.8041C122.75 47.5419 122.763 47.2436 122.667 46.972Z" fill="#F28F8F"/>
<path d="M115.328 38.1196L117.027 36.8159C116.948 36.7021 116.847 36.6055 116.729 36.532C116.612 36.4584 116.481 36.4095 116.344 36.388C116.207 36.3666 116.067 36.3731 115.933 36.4072C115.798 36.4413 115.672 36.5023 115.562 36.5864C115.334 36.7628 115.182 37.0205 115.138 37.3061C115.094 37.5916 115.162 37.883 115.328 38.1196Z" fill="#263238"/>
<path d="M116.075 40.7123C116.082 40.8838 116.139 41.0495 116.239 41.1887C116.339 41.328 116.478 41.4347 116.639 41.4955C116.799 41.5563 116.974 41.5685 117.141 41.5306C117.309 41.4927 117.461 41.4064 117.58 41.2824C117.699 41.1585 117.778 41.0023 117.809 40.8335C117.839 40.6646 117.819 40.4905 117.751 40.3329C117.684 40.1753 117.571 40.0411 117.427 39.947C117.284 39.853 117.116 39.8033 116.944 39.8041C116.828 39.8067 116.712 39.8322 116.606 39.8792C116.499 39.9262 116.402 39.9938 116.322 40.0782C116.241 40.1625 116.177 40.2619 116.135 40.3707C116.093 40.4796 116.073 40.5956 116.075 40.7123Z" fill="#263238"/>
<path d="M120.377 40.0141L120.279 45.2924L117.159 44.6039L120.377 40.0141Z" fill="#F28F8F"/>
<path d="M115.045 83.8952V84.3835C115.045 84.6332 114.979 84.8783 114.853 85.0943C114.728 85.3103 114.548 85.4896 114.332 85.614L100.773 93.4263C100.557 93.551 100.312 93.6167 100.062 93.6167C99.8128 93.6167 99.5678 93.551 99.3518 93.4263L74.4742 79.0662C74.2578 78.9418 74.0779 78.7626 73.9528 78.5466C73.8276 78.3306 73.7616 78.0854 73.7614 77.8358V77.4891L100.06 92.6695L115.045 83.8952Z" fill="#00796B"/>
<path opacity="0.6" d="M115.045 83.8952V84.3835C115.045 84.6332 114.979 84.8783 114.853 85.0943C114.728 85.3103 114.548 85.4896 114.332 85.614L100.773 93.4263C100.557 93.551 100.312 93.6167 100.062 93.6167C99.8128 93.6167 99.5678 93.551 99.3518 93.4263L74.4742 79.0662C74.2578 78.9418 74.0779 78.7626 73.9528 78.5466C73.8276 78.3306 73.7616 78.0854 73.7614 77.8358V77.4891L100.06 92.6695L115.045 83.8952Z" fill="black"/>
<path d="M73.776 77.494L88.5267 68.9785C88.6559 68.9039 88.8024 68.8647 88.9515 68.8647C89.1007 68.8647 89.2472 68.9039 89.3763 68.9785L114.962 83.7536C114.99 83.7705 115.014 83.7945 115.03 83.8232C115.046 83.8518 115.055 83.8842 115.055 83.9172C115.055 83.9502 115.046 83.9826 115.03 84.0113C115.014 84.04 114.99 84.0639 114.962 84.0808L100.074 92.6744L73.776 77.494Z" fill="#00796B"/>
<path opacity="0.5" d="M73.776 77.494L88.5267 68.9785C88.6559 68.9039 88.8024 68.8647 88.9515 68.8647C89.1007 68.8647 89.2472 68.9039 89.3763 68.9785L114.962 83.7536C114.99 83.7705 115.014 83.7945 115.03 83.8232C115.046 83.8518 115.055 83.8842 115.055 83.9172C115.055 83.9502 115.046 83.9826 115.03 84.0113C115.014 84.04 114.99 84.0639 114.962 84.0808L100.074 92.6744L73.776 77.494Z" fill="black"/>
<path d="M100.196 91.4244L108.15 86.8346L84.8891 73.4071L76.8912 77.9725L100.196 91.4244Z" fill="#263238"/>
<path d="M104.107 78.661L103.961 78.744L100.06 80.9949L93.1262 76.991L92.9846 76.908L97.0275 74.5741L104.107 78.661Z" fill="#263238"/>
<path d="M103.961 78.744L100.06 80.9949L93.1262 76.9911L97.0275 74.7401L103.961 78.744Z" fill="#263238"/>
<path opacity="0.7" d="M100.06 92.6744V93.6216C99.8111 93.6214 99.5669 93.5558 99.3518 93.4312L74.4742 79.0711C74.2578 78.9467 74.0779 78.7675 73.9528 78.5515C73.8276 78.3355 73.7616 78.0903 73.7614 77.8407V77.494L100.06 92.6744Z" fill="black"/>
<path d="M99.6545 92.8843C99.4179 92.9785 99.1629 93.0174 98.909 92.9979C98.6552 92.9785 98.4091 92.9012 98.1896 92.772L73.4244 78.4754C73.2093 78.352 73.0242 78.1825 72.8823 77.979C72.7405 77.7755 72.6455 77.5432 72.6041 77.2987L69.8942 61.1271C69.8788 61.0367 69.8706 60.9453 69.8698 60.8536C69.8668 60.4043 70.0425 59.9723 70.3581 59.6525L96.095 74.5155C96.2583 74.6053 96.3995 74.7303 96.5085 74.8815C96.6174 75.0327 96.6913 75.2062 96.7248 75.3895L99.6545 92.8843Z" fill="#00796B"/>
<path opacity="0.5" d="M99.6545 92.8843C99.4179 92.9785 99.1629 93.0174 98.909 92.9979C98.6552 92.9785 98.4091 92.9012 98.1896 92.772L73.4244 78.4754C73.2093 78.352 73.0242 78.1825 72.8823 77.979C72.7405 77.7755 72.6455 77.5432 72.6041 77.2987L69.8942 61.1271C69.8788 61.0367 69.8706 60.9453 69.8698 60.8536C69.8668 60.4043 70.0425 59.9723 70.3581 59.6525L96.095 74.5155C96.2583 74.6053 96.3995 74.7303 96.5085 74.8815C96.6174 75.0327 96.6913 75.2062 96.7248 75.3895L99.6545 92.8843Z" fill="black"/>
<path d="M100.06 92.6744L99.8938 92.772C99.8186 92.8154 99.7402 92.8529 99.6594 92.8843L96.7297 75.3895C96.699 75.2084 96.6288 75.0362 96.5241 74.8852C96.4195 74.7342 96.283 74.608 96.1243 74.5155L70.3874 59.6525C70.4896 59.5517 70.6045 59.4648 70.7292 59.3937L96.5198 74.2811C96.6785 74.3736 96.815 74.4998 96.9197 74.6508C97.0243 74.8019 97.0945 74.974 97.1252 75.1551L100.06 92.6744Z" fill="#E0E0E0"/>
<path d="M85.7093 77.9578C85.5287 76.8788 84.4105 75.4383 83.2143 74.7499C82.018 74.0614 81.1928 74.3739 81.3784 75.4579C81.5639 76.5418 82.6772 77.9774 83.8734 78.6707C85.0697 79.3641 85.8949 79.0418 85.7093 77.9578Z" fill="#00796B"/>
<path d="M90.7826 88.485C90.7309 87.7844 90.5948 87.0925 90.3773 86.4245C89.9964 85.2282 88.8637 80.6189 86.2758 79.9256C85.9681 79.8331 85.6414 79.823 85.3286 79.8963C84.6108 80.0916 84.2836 80.8386 84.142 81.5076C84.0102 82.496 84.0102 83.4976 84.142 84.486C83.7442 84.031 83.278 83.6406 82.7602 83.3288C82.3011 82.9831 81.7476 82.7856 81.1733 82.7624C81.0935 82.7585 81.0138 82.7743 80.9415 82.8083C80.8691 82.8424 80.8062 82.8937 80.7583 82.9578C80.6655 83.1286 80.7583 83.3435 80.9048 83.4949C81.1636 83.8073 81.481 84.071 81.7397 84.3835C81.9426 84.656 82.13 84.9397 82.3013 85.2331C82.6284 85.7604 82.9946 86.2585 83.3608 86.7614C84.0644 87.8064 84.9471 88.7189 85.9682 89.4567C87.1426 90.2516 88.4752 90.7829 89.8744 91.0143C91.764 91.2486 93.5999 91.2193 94.7913 90.8043L90.7826 88.485Z" fill="#FFA8A7"/>
<path d="M136.793 58.2951C135.049 57.3966 132.501 60.9562 133.311 64.6768C134.122 68.3974 138.116 81.4783 138.116 81.4783C138.116 81.4783 120.074 83.0896 118.541 83.28C117.472 83.407 116.275 82.865 115.284 82.5378C113.936 82.0886 112.574 81.7761 111.246 81.2879C111.015 81.1817 110.763 81.1283 110.509 81.1316C110.381 81.1371 110.259 81.1846 110.161 81.2667C110.063 81.3488 109.995 81.4609 109.967 81.5857C109.96 81.7385 109.999 81.8897 110.079 82.0203C110.505 82.8892 111.145 83.6352 111.939 84.1882C112.324 84.4155 112.69 84.6735 113.033 84.9597C113.243 85.1696 113.707 85.7507 113.521 86.0681L106.354 90.194C106.354 90.194 108.004 91.6295 113.98 89.9547C116.135 89.3911 118.237 88.6446 120.264 87.7233C120.264 87.7233 141.524 88.6071 145.367 87.445C146.724 87.03 147.212 86.0681 146.294 81.6931C145.245 76.6248 142.232 67.3818 141.548 64.9405C140.049 59.6525 139.693 59.7745 136.793 58.2951Z" fill="#FFA8A7"/>
<path d="M135.894 57.5382C135.894 57.5382 138.775 58.3488 140.015 59.9796C141.255 61.6104 146.04 77.3866 146.04 77.3866C144.79 78.4299 143.327 79.1886 141.754 79.6102C140.18 80.0318 138.534 80.1061 136.929 79.8279C136.929 79.8279 133.082 68.915 132.671 66C131.944 61.4835 134.151 57.9289 135.894 57.5382Z" fill="#00796B"/>
<path d="M120.348 68.124C120.113 66.9033 120.875 66.2442 122.052 66.6592C122.674 66.9151 123.228 67.3134 123.669 67.8222C124.11 68.3309 124.426 68.936 124.591 69.5888C124.825 70.8242 120.577 69.3349 120.348 68.124Z" fill="#00796B"/>
<path d="M128.399 71.9277L124.937 69.7255C125.113 70.663 123.848 70.5312 122.711 70.1357C121.573 69.7402 120.182 68.9394 120.001 68.0019L116.983 67.9629C116.705 67.9629 116.7 68.3242 116.983 68.622C117.73 69.457 119.469 70.9365 123.121 72.2109C126.773 73.4852 128.175 73.0897 128.702 72.6991C128.873 72.5526 128.717 72.1278 128.399 71.9277Z" fill="#00796B"/>
</svg>
